<svg width="16" height="22" viewBox="0 0 16 22" fill="none" xmlns="http://www.w3.org/2000/svg">
<path d="M0.293717 14.2531C0.606217 10.2562 4.89997 6.34375 5.89997 4.87812C6.76872 3.5625 6.43747 2 6.15934 1.3125C6.15247 1.29062 6.14809 1.26562 6.14809 1.23937C6.14809 1.105 6.25747 0.995621 6.39184 0.995621C6.40809 0.995621 6.42372 0.997496 6.43872 0.999996H6.43747C10.7812 1.9125 11 5.21562 10.8687 6.69375C10.7375 8.17187 11 9.16875 11.9562 8.95312C12.9125 8.7375 12.5906 6.3125 12.5906 6.3125C12.5906 6.3125 16.9812 11.5281 15.3718 16.6562C14.5625 19.3375 12.5468 20.4687 10.8531 21C10.7656 21.0437 10.6781 20.9562 10.6781 20.8281C10.8968 20.0031 11.4625 19.35 11.6343 18.4375C11.9843 16.9375 10.5937 15.5562 9.56247 14.775C8.91747 14.2944 8.50372 13.5337 8.50372 12.6762C8.50372 12.6362 8.50434 12.5962 8.50622 12.5569V12.5625C8.50622 12.475 8.37497 12.4312 8.33434 12.475C7.65559 13.2925 6.97372 14.0294 6.25372 14.7275L6.24684 14.7344C4.64059 16.5156 3.81247 18.5156 5.24684 20.7312C5.29059 20.8187 5.20309 20.9469 5.11872 20.9062C1.55309 19.9469 0.0780917 17.25 0.293717 14.2531Z" fill="#686F78"/>
</svg>
