<svg width="86" height="36" viewBox="0 0 86 36" fill="none" xmlns="http://www.w3.org/2000/svg">
<path d="M5.66386 12.9805H6.67252V16.7581H0.0355225V12.9805H1.04419V3.77759H0.0355225V0H10.4449L13.128 2.69254V6.97248L12.0184 8.07762L13.128 9.16268V12.9805H14.1366V16.7581H8.50829V10.529L7.96361 9.98651H5.66386V12.9805ZM5.66386 6.20892H7.96361L8.50829 5.66639V4.32012L7.96361 3.77759H5.66386V6.20892Z" fill="white"/>
<path d="M44.4111 10.308H39.4687L36.7856 7.63556V2.69254L39.4687 0H46.8723L49.5553 2.69254V5.98789H44.9356V4.32012L44.4111 3.77759H41.95L41.4053 4.32012V6.00798L41.95 6.53042H46.8723L49.5553 9.22296V14.0856L46.8723 16.7581H39.4687L36.7856 14.0856V10.8706H41.4053V12.4379L41.95 12.9805H44.4111L44.9356 12.458V10.8505L44.4111 10.308Z" fill="white"/>
<path d="M65.7031 4.78227H61.9307V3.77759H60.922V12.9805H61.9307V16.7581H55.2735V12.9805H56.3023V3.77759H55.2735V4.78227H51.5011V0H65.7031V4.78227Z" fill="white"/>
<path d="M78.9991 9.20286V12.9805H80.0078V16.7581H73.3708V12.9805H74.3996V9.20286L68.9327 3.77759H67.3592V0H75.3679V3.77759H74.6821L76.6994 5.78695L78.7167 3.77759H78.0308V0H85.7774V3.7575H84.4459L78.9991 9.20286Z" fill="white"/>
<path d="M23.8337 1.21878L27.7947 1.06644L27.6424 1.67582L27.7947 2.89459C28.658 3.09772 30.476 3.53444 30.8416 3.65632C31.2987 3.80866 32.6698 4.41805 32.8221 4.57039C32.9745 4.72274 34.1932 6.39855 34.1932 6.55089C34.1932 6.67277 32.9745 6.60167 32.3651 6.55089L31.1463 5.33212L27.6424 5.48447L25.2048 7.16027C25.3572 7.41419 25.6923 8.01341 25.8142 8.37904C25.9361 8.74467 26.4744 8.83608 26.7283 8.83608C26.8299 9.24234 27.033 10.0853 27.033 10.2072C27.033 10.3595 26.1189 12.34 26.1189 12.4924C26.1189 12.6143 25.6111 14.3713 25.3572 15.2346C24.697 15.0315 23.3157 14.5948 23.072 14.4729C22.7673 14.3205 22.4626 12.9494 22.1579 12.4924C21.8532 12.0353 21.2438 11.5783 21.0915 11.2736C20.9391 10.9689 20.7868 10.3595 20.9391 10.2072C21.061 10.0853 21.1931 9.44546 21.2438 9.14077L20.0251 9.44546C19.7712 9.49625 19.2329 9.59781 19.111 9.59781C18.9891 9.59781 17.8414 9.08999 17.2828 8.83608L17.1305 7.16027L18.0446 7.31262L20.6344 6.39855L21.0915 4.11336L21.5485 2.43755L23.8337 1.21878Z" fill="#CD412A"/>
<path d="M31.2813 2.79852C29.6822 2.51643 29.3997 2.51585 29.3997 2.51585C29.3997 2.51585 29.0765 1.63464 29.5616 1.02735C29.5616 1.02735 27.6434 -0.567811 23.6531 0.217238C23.6531 0.217238 20.3664 0.799468 20.1905 3.03281V4.84944C20.1905 4.86051 20.1911 4.87216 20.1922 4.88324C20.194 4.9048 20.1928 4.97066 20.1049 5.00679C20.0414 5.03302 19.9197 5.0371 19.7578 5.03594C18.7841 5.03011 15.7722 5.36115 15.9166 7.75651C15.9166 7.75651 16.0384 9.86804 18.6082 10.0306C18.6082 10.0306 19.9069 10.0848 20.7047 9.81384C20.6936 9.82141 19.9348 10.3302 20.0286 10.6397C20.1235 10.9509 21.3674 15.4584 26.8455 16.7581C26.8455 16.7581 25.926 15.1967 27.3865 13.2839C28.8471 11.3705 29.8394 9.99917 29.695 8.9163C29.695 8.9163 29.2081 10.2882 27.8734 10.9014C27.8734 10.9014 29.0818 9.52942 28.811 8.04966C28.811 8.04966 27.7831 7.30949 25.7274 7.5263C25.7274 7.5263 28.829 5.43283 31.318 6.40729C31.318 6.40729 29.9652 6.35309 28.9915 6.84032C28.9915 6.84032 30.5062 7.00293 31.4985 7.72445C32.4902 8.44656 34.3759 8.1569 34.4923 6.46091C34.6001 4.87391 33.1081 3.12081 31.2813 2.79852ZM26.2026 9.27998C26.2026 9.92982 26.2026 10.0178 25.141 11.4323C24.0794 12.8468 24.9855 14.8231 24.9855 14.8231C22.4902 13.334 22.0651 11.5145 21.9824 11.2872C21.9119 11.0937 22.125 11.0739 22.125 11.0739C22.6119 11.0267 23.1191 10.6747 23.1191 10.6747C22.2264 10.5866 21.7395 9.998 21.7395 9.998C24.1068 9.48338 25.1072 8.1365 25.1072 8.1365C24.9785 9.09756 24.4492 9.60286 24.4492 9.60286C25.1142 9.62792 25.8701 9.36041 26.0361 9.26599C26.2079 9.16866 26.2026 9.27998 26.2026 9.27998ZM21.1642 8.37604C21.1642 8.37604 18.829 9.0352 17.8186 8.37604C17.8186 8.37604 17.2689 8.00595 17.3993 7.31532C17.3993 7.31532 17.5886 8.10503 19.3694 7.77108C21.1502 7.43712 21.5648 6.83275 21.5648 6.83275C21.5648 6.83275 21.8001 5.01845 21.7232 4.23806C21.6469 3.45768 21.6172 2.43076 22.9968 1.88292C24.3764 1.33449 26.0535 1.24649 27.5822 1.6189C27.5822 1.6189 25.8305 1.6189 24.6204 2.45116C24.6204 2.45116 24.529 2.50245 24.6431 2.68953C24.7654 2.8906 25.3058 4.01485 25.3058 4.01485C25.3058 4.01485 25.3524 4.09586 25.2586 4.16813C25.1649 4.2404 24.3251 4.8471 23.9286 5.57387C23.9286 5.57387 26.4216 3.92684 29.1266 3.92684C31.8316 3.92684 32.9049 5.12685 32.941 6.09258C32.941 6.09258 32.0936 4.49508 28.4685 5.12685C24.8434 5.75862 23.8697 7.70813 21.1642 8.37604Z" fill="white"/>
<path d="M7.07378 29.9929H2.48892L0 27.504V22.9004L2.48892 20.3928H9.35686L11.8458 22.9004V25.9694H7.56034V24.4162L7.07378 23.9109H4.79071L4.28544 24.4162V25.9882L4.79071 26.4747H9.35686L11.8458 28.9824V33.5111L9.35686 36H2.48892L0 33.5111V30.5169H4.28544V31.9766L4.79071 32.4818H7.07378L7.56034 31.9953V30.4982L7.07378 29.9929Z" fill="#CD412A"/>
<path d="M25.6276 20.3928V23.9109H24.8416L28.2662 32.4818H29.2019V36H23.2135V32.4818H23.7188L23.4942 31.7894H19.3585L19.1152 32.4818H19.6204V36H13.6508V32.4818H14.5865L18.0111 23.9109H17.3374V20.3928H25.6276ZM20.4251 28.7952H22.4088L21.417 26.325L20.4251 28.7952Z" fill="#CD412A"/>
<path d="M35.9584 23.9109V32.4818H38.7655V31.5461H42.2649V36H30.7373V32.4818H31.673V23.9109H30.7373V20.3928H36.8941V23.9109H35.9584Z" fill="#CD412A"/>
<path d="M43.8215 22.9004L46.3104 20.3928H53.1784L55.6673 22.9004V33.5111L53.1784 36H46.3104L43.8215 33.5111V22.9004ZM51.3819 24.4162L50.8953 23.9109H48.6122L48.107 24.4162V31.9953L48.6122 32.4818H50.8953L51.3819 31.9953V24.4162Z" fill="#CD412A"/>
<path d="M57.5637 22.9004L60.0526 20.3928H66.9205L69.4094 22.9004V33.5111L66.9205 36H60.0526L57.5637 33.5111V22.9004ZM65.124 24.4162L64.6375 23.9109H62.3544L61.8491 24.4162V31.9953L62.3544 32.4818H64.6375L65.124 31.9953V24.4162Z" fill="#CD412A"/>
<path d="M80.7188 36L76.5269 29.0198V32.4818H77.4626V36H71.3058V32.4818H72.2415V23.9109H71.3058V20.3928H76.3772L80.6627 27.5414V23.9109H79.727V20.3928H85.8838V23.9109H84.9481V32.4818H85.8838V36H80.7188Z" fill="#CD412A"/>
</svg>
