<svg width="20" height="19" viewBox="0 0 20 19" fill="none" xmlns="http://www.w3.org/2000/svg">
<g filter="url(#filter0_d_1_1373)">
<path d="M8.23502 15.3381C9.30314 15.6356 10.4169 15.6506 11.4831 15.3931L11.9913 17.5075C10.5963 17.845 9.10752 17.8387 7.65439 17.4337L8.23502 15.3381ZM15.0125 13.2606L16.6625 14.6719C15.7319 15.7669 14.5238 16.64 13.1106 17.1694L12.3519 15.1319C13.3906 14.7425 14.3 14.0987 15.0119 13.2612L15.0125 13.2606ZM4.90314 13.1231C5.59314 13.9937 6.48502 14.6625 7.49877 15.0825L6.67064 17.0931C5.34502 16.5437 4.14377 15.6612 3.20564 14.4769L4.90314 13.1231ZM16.5238 9.52874L18.6856 9.69749C18.5744 11.1325 18.1088 12.5506 17.2756 13.8119L15.4675 12.6106C16.08 11.6831 16.4381 10.6262 16.5231 9.52874H16.5238ZM3.41626 9.24749C3.46439 10.3587 3.79376 11.4256 4.36814 12.3631L2.52001 13.5012C1.76939 12.275 1.31501 10.8531 1.24939 9.34124L3.41626 9.24749ZM12.7519 7.90312L10.0119 13.4037L7.26752 7.90312L10.0119 9.28624L12.7519 7.90312V7.90312ZM17.4794 4.47249C18.23 5.69874 18.6844 7.12062 18.75 8.63249L16.5838 8.72687C16.5356 7.61562 16.2063 6.54874 15.6319 5.61124L17.4794 4.47249ZM2.74064 4.15937L4.54876 5.36062C3.93626 6.28812 3.57814 7.34499 3.49314 8.44249L1.33126 8.27374C1.44251 6.83874 1.90814 5.42062 2.74126 4.15937H2.74064ZM13.3431 0.909369C14.6688 1.45874 15.87 2.34124 16.8081 3.52562L15.1106 4.87937C14.4206 4.00874 13.5288 3.33999 12.515 2.91999L13.3431 0.909369ZM6.95252 0.786244L7.71127 2.82374C6.67252 3.21312 5.76314 3.85687 5.05126 4.69437L3.40126 3.28312C4.33189 2.18812 5.54002 1.31499 6.95314 0.785619L6.95252 0.786244ZM7.96627 0.492494C9.36127 0.154994 10.85 0.161244 12.3031 0.566244L11.7231 2.66187C10.655 2.36437 9.54127 2.34937 8.47502 2.60687L7.96627 0.492494Z" fill="#686F78"/>
</g>
<defs>
<filter id="filter0_d_1_1373" x="-2.75061" y="0.250122" width="25.5006" height="25.4998" filterUnits="userSpaceOnUse" color-interpolation-filters="sRGB">
<feFlood flood-opacity="0" result="BackgroundImageFix"/>
<feColorMatrix in="SourceAlpha" type="matrix" values="0 0 0 0 0 0 0 0 0 0 0 0 0 0 0 0 0 0 127 0" result="hardAlpha"/>
<feOffset dy="4"/>
<feGaussianBlur stdDeviation="2"/>
<feComposite in2="hardAlpha" operator="out"/>
<feColorMatrix type="matrix" values="0 0 0 0 0 0 0 0 0 0 0 0 0 0 0 0 0 0 0.25 0"/>
<feBlend mode="normal" in2="BackgroundImageFix" result="effect1_dropShadow_1_1373"/>
<feBlend mode="normal" in="SourceGraphic" in2="effect1_dropShadow_1_1373" result="shape"/>
</filter>
</defs>
</svg>
