<svg width="18" height="20" viewBox="0 0 18 20" fill="none" xmlns="http://www.w3.org/2000/svg">
<path d="M13.5137 11.97C15.4724 11.97 17.0599 13.5575 17.0599 15.5163C17.0599 17.475 15.4724 19.0625 13.5137 19.0625C11.5549 19.0625 9.96744 17.475 9.96744 15.5163C9.96744 13.5575 11.5549 11.97 13.5137 11.97ZM7.44807 0.945624C7.46119 0.949374 7.47494 0.951874 7.48932 0.953749C10.0593 2.05 12.3443 3.16187 14.6931 4.39875C14.8206 4.45562 14.9118 4.60312 14.9393 4.77125C14.9556 4.86812 14.9518 4.9675 14.9287 5.06312C14.4062 7.02437 13.7606 8.91 13.0074 10.7075C10.5749 10.9606 8.67869 13.0169 8.67869 15.5163C8.67869 16.3238 8.87619 17.0844 9.22619 17.7531C9.04244 18.0275 8.85557 18.2988 8.66557 18.5669C8.58619 18.6919 8.43994 18.7594 8.29244 18.7381C8.22744 18.725 8.16932 18.69 8.12682 18.6394C6.23682 16.7119 4.20494 14.9256 2.04744 13.2956C2.00744 13.2669 1.97369 13.2306 1.94744 13.1887C1.92182 13.1431 1.90182 13.0944 1.88932 13.0438C1.86557 12.9463 1.88432 12.8431 1.94119 12.76C4.10057 9.56875 5.97057 5.62312 7.03619 1.2325C7.05869 1.13 7.12244 1.04062 7.21307 0.986249C7.28244 0.940624 7.36744 0.925624 7.44807 0.944374V0.945624ZM13.6649 14.0056H12.3906V17.6112H13.1956V16.6056H13.6756C14.2087 16.6056 14.6049 16.5025 14.8643 16.2963C15.1237 16.09 15.2537 15.7644 15.2537 15.3188C15.2537 14.8731 15.1274 14.5431 14.8743 14.3281C14.6212 14.1131 14.2181 14.0056 13.6649 14.0056ZM13.6343 14.755C13.8993 14.755 14.0943 14.7988 14.2199 14.8863C14.3456 14.9738 14.4081 15.1219 14.4081 15.33C14.4081 15.5381 14.3599 15.6963 14.2637 15.8044C14.1674 15.9125 13.9849 15.9669 13.7168 15.9669H13.1749V14.7544H13.6343V14.755ZM7.24244 7.69187C6.36682 8.03312 6.16119 8.83187 6.18494 9.56437C6.24369 10.5187 6.36682 11.805 6.49494 12.6656C6.49869 12.7 6.51307 12.725 6.53807 12.7425C6.56307 12.76 6.59932 12.7594 6.63494 12.7506C7.56744 12.4756 8.23057 12.2413 9.00619 11.8831C9.78182 11.525 10.7906 11.1506 11.0068 10.0306C11.1143 9.47437 10.7593 8.93062 10.4049 8.76062C10.1531 8.60812 9.54994 8.565 9.14619 8.83687C9.10994 8.85375 9.07432 8.85437 9.04932 8.83687C9.02432 8.81937 9.00619 8.79437 9.00619 8.76C9.04932 8.2625 8.73182 7.9225 8.46244 7.77812C8.18182 7.63375 7.65307 7.53062 7.24182 7.69062L7.24244 7.69187ZM16.0924 8.10125C16.6268 8.10125 17.0593 8.53437 17.0593 9.06812C17.0593 9.60187 16.6262 10.035 16.0924 10.035C15.5581 10.035 15.1256 9.60187 15.1256 9.06812C15.1256 8.53437 15.5587 8.10125 16.0924 8.10125ZM2.55182 5.52187C3.44182 5.52187 4.16369 6.24375 4.16369 7.13375C4.16369 8.02375 3.44182 8.74562 2.55182 8.74562C1.66182 8.74562 0.939941 8.02375 0.939941 7.13375C0.939941 6.24375 1.66182 5.52187 2.55182 5.52187ZM7.94494 2.94812C7.76307 3.31812 7.57494 3.68312 7.37994 4.04125L7.08244 4.57312L7.59807 4.80062L7.69557 4.61687L8.04182 4.7725L8.02244 4.99312L8.28682 5.11375L8.54682 5.23937C8.60057 4.80562 8.64744 4.36687 8.68869 3.92687L8.74557 3.26625L7.94494 2.94812ZM8.17744 3.59375L8.23432 3.62L8.18932 3.94687L8.13494 4.27937L7.90932 4.18187L8.17807 3.59437L8.17744 3.59375Z" fill="#686F78"/>
</svg>
