<svg width="20" height="16" viewBox="0 0 20 16" fill="none" xmlns="http://www.w3.org/2000/svg">
<path d="M4.82402 12.3325C4.61438 12.2078 4.4609 12.0016 4.39751 11.7596C4.33412 11.5176 4.36581 11.2595 4.48592 11.0418L9.48779 1.97016L9.14136 1.00225C9.05739 0.7672 8.88668 0.576043 8.66703 0.471513C8.44738 0.366982 8.19659 0.357165 7.97027 0.444947L0.593972 3.28863C0.367651 3.37584 0.183591 3.55313 0.0829416 3.78068C-0.0177075 4.00822 -0.0271607 4.26868 0.0568062 4.50372L3.92763 15.3339C4.01159 15.5689 4.18231 15.7601 4.4014 15.8646C4.62049 15.9691 4.87128 15.979 5.0976 15.8917L8.56193 14.556L4.82235 12.3319L4.82402 12.3325Z" fill="#686F78"/>
<path d="M19.5559 4.327L12.8024 0.134239C12.595 0.00545302 12.347 -0.032663 12.1129 0.0285536C11.8788 0.0897702 11.6775 0.245122 11.5535 0.460535L5.84654 10.3759C5.72254 10.5913 5.68583 10.8489 5.74478 11.092C5.80372 11.3351 5.95331 11.5442 6.16072 11.673L12.9142 15.8658C13.1216 15.9945 13.3696 16.0327 13.6037 15.9714C13.8379 15.9102 14.0392 15.7549 14.1632 15.5395L19.8707 5.6241C19.9947 5.40869 20.0314 5.15111 19.9724 4.90798C19.9135 4.66485 19.7639 4.45579 19.5565 4.327H19.5559ZM14.6497 10.1732C13.79 10.8691 12.6634 10.2009 12.5216 9.23703C12.5216 9.23703 11.6364 10.9292 12.4054 11.6926L10.0188 10.179C11.0236 10.5405 12.0695 8.95059 12.0695 8.95059C11.1798 9.25956 10.0944 8.5238 10.2968 7.41151C10.4964 6.31943 11.2026 6.16292 12.2075 6.11037C12.8842 6.07514 14.4629 5.41042 14.4629 5.41042C14.4629 5.41042 14.6147 7.17242 14.8927 7.81404C15.3064 8.76636 15.4944 9.49114 14.6497 10.1738V10.1732Z" fill="#686F78"/>
</svg>
