<svg width="18" height="16" viewBox="0 0 18 16" fill="none" xmlns="http://www.w3.org/2000/svg">
<path d="M10.5369 0.047506C10.5488 0.050631 10.5613 0.0531311 10.5738 0.0550061C12.8713 1.03501 14.9144 2.02938 17.0144 3.13501C17.1282 3.18626 17.2101 3.31751 17.2344 3.46813C17.2494 3.55501 17.2457 3.64376 17.2244 3.72938C16.0144 8.27188 14.0626 12.3619 11.6251 15.8025C11.5544 15.9144 11.4232 15.9744 11.2913 15.9556C11.2332 15.9438 11.1813 15.9125 11.1432 15.8675C9.45381 14.1438 7.63693 12.5469 5.70756 11.09C5.67193 11.0644 5.64193 11.0319 5.61818 10.995C5.59506 10.9544 5.57756 10.9106 5.56631 10.8656C5.54506 10.7781 5.56193 10.6863 5.61256 10.6119C7.54318 7.75876 9.21506 4.23126 10.1682 0.305631C10.1882 0.213756 10.2451 0.134381 10.3263 0.085631C10.3882 0.045006 10.4644 0.031256 10.5369 0.048131V0.047506ZM6.54693 0.393756L6.62318 0.409381L6.66006 0.426881C7.60381 0.909381 8.48631 1.34876 9.35568 1.78001C9.04381 2.82251 8.67006 3.87251 8.23381 4.92813C8.13381 5.17063 8.02068 5.43251 7.89693 5.70813C7.52943 5.76751 7.19818 5.96876 6.99193 6.30813C6.77693 6.66188 6.76006 7.04563 6.75506 7.24001C5.69631 6.84063 4.77943 7.18063 4.52881 7.83563C4.31693 8.39063 4.40943 9.09501 5.07381 9.44563C5.20068 9.51251 5.45818 9.58876 5.77381 9.61751L5.58256 9.89813C5.34318 10.2388 4.80756 10.8588 5.22756 11.1994C6.34631 12.1069 7.44818 13.0119 8.13256 13.5869C8.18318 13.6294 8.23193 13.6688 8.28006 13.7063C7.88506 14.31 7.48631 14.8906 7.08631 15.44C7.00131 15.5638 6.74568 15.665 6.54131 15.545C4.93256 14.1144 3.21881 12.7238 1.48381 11.54L0.905059 11.1531L0.886309 11.1356C0.823184 11.0794 0.779434 11.0056 0.762559 10.9256C0.745684 10.8363 0.765684 10.7444 0.818184 10.6688C2.93506 7.73751 4.88506 3.93063 6.20193 0.608131C6.23631 0.522506 6.30506 0.453131 6.39381 0.415631L6.46943 0.396256L6.54693 0.394381V0.393756ZM10.3532 6.08001C9.57068 6.38501 9.38693 7.09938 9.40756 7.75438C9.46006 8.60751 9.57006 9.75751 9.68506 10.5269C9.68818 10.5575 9.70131 10.58 9.72381 10.5956C9.74631 10.6113 9.77818 10.6106 9.81068 10.6031C10.6444 10.3575 11.2376 10.1475 11.9307 9.82751C12.6238 9.50751 13.5263 9.17313 13.7194 8.17126C13.8157 7.67438 13.4982 7.18813 13.1813 7.03563C12.9563 6.89876 12.4169 6.86063 12.0557 7.10376C12.0232 7.11876 11.9913 7.11938 11.9688 7.10376C11.9463 7.08813 11.9301 7.06563 11.9301 7.03501C11.9688 6.59063 11.6851 6.28626 11.4438 6.15751C11.1932 6.02876 10.7201 5.93626 10.3526 6.07938L10.3532 6.08001ZM10.9807 1.83876C10.8182 2.17001 10.6501 2.49626 10.4757 2.81626L10.2094 3.29188L10.6701 3.49501L10.7576 3.33063L11.0669 3.47001L11.0494 3.66688L11.2857 3.77438L11.5182 3.88688C11.5663 3.49938 11.6082 3.10688 11.6451 2.71313L11.6957 2.12251L10.9801 1.83813L10.9807 1.83876ZM7.61318 2.12188C7.49068 2.36001 7.29506 2.70376 7.17631 2.94563C7.12693 3.04251 7.09256 3.11126 7.06818 3.15501C7.04381 3.19876 7.00756 3.23001 6.93506 3.23001C6.89193 3.23001 6.84131 3.21626 6.80443 3.20438L6.75506 3.18813C6.71256 3.26501 6.64756 3.38938 6.56193 3.56126C6.70318 3.61688 6.82756 3.65126 6.93506 3.66501C7.09631 3.68563 7.23631 3.67188 7.32193 3.63063C7.41506 3.58251 7.49693 3.50626 7.55068 3.41813L7.58568 3.35001L8.09068 2.33313L7.98381 2.28751L7.61256 2.12188H7.61318ZM11.1888 2.41563L11.2394 2.43876L11.1994 2.73063L11.1507 3.02813L10.9488 2.94063L11.1888 2.41501V2.41563Z" fill="#686F78"/>
</svg>
