<svg width="16" height="18" viewBox="0 0 16 18" fill="none" xmlns="http://www.w3.org/2000/svg">
<path d="M12.6728 11.9281C12.7236 12.2791 12.7615 13.0736 12.6728 13.5146C12.3385 15.184 11.4758 16.6137 10.0854 17.8035L9.84885 17.9996L9.38794 17.781C9.64443 17.2301 9.79807 16.6895 9.84885 16.1579C9.9247 15.3608 9.84178 15.1615 9.84885 15.13C10.2583 15.0426 10.707 14.6074 11.2586 13.998C11.8294 13.3667 12.3745 12.4726 12.6728 11.9281V11.9281ZM4.14053 12.776C4.53523 13.2992 5.06492 13.7653 5.73025 14.1735C6.41358 14.5933 7.17597 14.88 7.8908 15.0362C7.72623 15.1429 6.4335 15.4251 5.3452 14.7546C4.61944 14.3078 4.21767 13.6477 4.13989 12.7753L4.14053 12.776ZM5.04435 6.56947C4.3681 7.86284 3.84355 9.2025 3.47135 10.5878C2.70381 10.5312 1.95042 10.8006 1.21181 11.3958C1.0511 11.1837 0.95982 11.0371 0.936035 10.9555C1.43937 9.87425 2.59003 8.46003 3.19301 7.82235C3.83712 7.14095 4.45488 6.72375 5.04435 6.56947V6.56947ZM13.6923 0.0589077C13.7785 0.104548 13.8447 0.173331 13.8871 0.253685L13.8987 0.273612C14.4084 1.17164 14.8681 2.57879 14.9812 3.72817C15.1779 5.72223 15.0281 6.08285 14.5049 7.47265C14.5004 7.47458 14.4959 7.47715 14.4914 7.47907C14.4116 7.67514 14.321 7.87056 14.2182 8.06341C14.0787 8.32568 13.9237 8.57253 13.7553 8.80394C11.6822 12.2932 10.3303 14.16 9.69843 14.403C9.22017 14.6177 7.99365 14.3278 6.62507 13.6001C5.16006 12.821 4.16368 11.8297 4.19003 11.3187C4.09682 10.5582 4.91 8.33082 6.62957 4.63649L6.77935 4.31636L6.86548 4.15437C7.12004 3.6761 7.42603 3.24798 7.76994 2.87642C8.30285 2.17703 8.73611 1.81576 10.1124 1.07201C11.1287 0.52303 12.3392 0.0807637 13.369 0.00105302C13.3973 -0.000875465 13.4249 -0.000232516 13.4525 0.00362445C13.5329 0.000410312 13.6152 0.0177665 13.6917 0.0582647L13.6923 0.0589077ZM9.36416 5.06783C8.4867 4.69499 7.37203 5.34488 6.87448 6.51933C6.37693 7.69378 6.68421 8.94858 7.56167 9.32142C8.43913 9.69426 9.55379 9.04436 10.0513 7.86991C10.5489 6.69547 10.2416 5.44067 9.36416 5.06783V5.06783ZM8.61334 5.90093L8.50405 6.10664L8.90775 6.00636L8.93346 6.00057C8.97653 5.99286 9.01639 5.99607 9.05174 6.00893L9.07231 6.01793C9.1051 6.03464 9.1321 6.061 9.15074 6.09635L9.50622 6.8491L9.51394 6.86967C9.54351 6.96288 9.52422 7.08824 9.46251 7.20394L8.90389 8.25433L8.88911 8.28068C8.8229 8.39189 8.7284 8.46839 8.63712 8.48317L7.83101 8.57767H7.80787C7.76994 8.57574 7.73587 8.5616 7.7063 8.53846L7.68959 8.52303C7.66259 8.49539 7.64074 8.45875 7.62724 8.41439L7.31804 7.53886C7.28847 7.44565 7.30004 7.33508 7.34953 7.24123L8.34913 5.3616L8.35363 5.35581C8.36327 5.34553 8.38256 5.3346 8.38963 5.33589C8.42563 5.34103 8.45906 5.34874 8.48863 5.35774L8.51113 5.36481C8.72004 5.44002 8.75926 5.62644 8.61334 5.90029V5.90093ZM8.80875 6.55983L8.7869 6.55083C8.4867 6.43512 8.092 6.63311 7.89401 7.00467C7.69152 7.38522 7.74809 7.84934 8.02065 8.04091L8.04507 8.05698C8.17043 8.13283 8.31956 8.13283 8.46741 8.06919L8.47191 8.06662C8.47963 8.06083 8.48991 8.04669 8.48863 8.03384L8.48734 8.01969C8.47834 7.90977 8.44813 7.59928 8.43013 7.43408L8.41727 7.32608V7.31644C8.41856 7.30423 8.42563 7.29523 8.43656 7.28944L8.44877 7.28301C8.57862 7.21552 9.03632 6.96738 9.05046 6.95967L9.05753 6.95453C9.06781 6.94488 9.06974 6.93139 9.06846 6.92496L9.06203 6.89153C9.02603 6.73854 8.93989 6.61897 8.80747 6.56047L8.80875 6.55983ZM8.46163 6.77839C8.53427 6.82789 8.5047 6.9481 8.44877 7.01817C8.39284 7.08824 8.29578 7.15252 8.21607 7.09852C8.13571 7.04452 8.18843 6.91789 8.24949 6.84653C8.31056 6.77518 8.38899 6.72889 8.46163 6.77839Z" fill="#686F78"/>
</svg>
