<svg width="29" height="29" viewBox="0 0 29 29" fill="none" xmlns="http://www.w3.org/2000/svg">
<path d="M13.1993 1.64992L1.64992 13.1993C0.742462 14.1068 0.742462 15.5917 1.64992 16.4992L13.1993 28.0486C14.1068 28.956 15.5917 28.956 16.4992 28.0486L28.0486 16.4992C28.956 15.5917 28.956 14.1068 28.0486 13.1993L16.4992 1.64992C15.5917 0.742463 14.1068 0.742464 13.1993 1.64992ZM16.0867 23.5113C15.402 24.196 14.2965 24.196 13.6118 23.5113C12.9271 22.8266 12.9271 21.7211 13.6118 21.0364C14.2965 20.3517 15.402 20.3517 16.0867 21.0364C16.7714 21.7211 16.7714 22.8266 16.0867 23.5113ZM8.66206 16.0867C7.97734 16.7714 6.8719 16.7714 6.18718 16.0867C5.50247 15.402 5.50247 14.2965 6.18718 13.6118C6.8719 12.9271 7.97734 12.9271 8.66206 13.6118C9.34677 14.2965 9.34677 15.402 8.66206 16.0867ZM16.0867 16.0867C15.402 16.7714 14.2965 16.7714 13.6118 16.0867C12.9271 15.402 12.9271 14.2965 13.6118 13.6118C14.2965 12.9271 15.402 12.9271 16.0867 13.6118C16.7714 14.2965 16.7714 15.402 16.0867 16.0867ZM23.5113 16.0867C22.8266 16.7714 21.7211 16.7714 21.0364 16.0867C20.3517 15.402 20.3517 14.2965 21.0364 13.6118C21.7211 12.9271 22.8266 12.9271 23.5113 13.6118C24.196 14.2965 24.196 15.402 23.5113 16.0867ZM16.0867 8.66206C15.402 9.34677 14.2965 9.34677 13.6118 8.66206C12.9271 7.97734 12.9271 6.8719 13.6118 6.18719C14.2965 5.50247 15.402 5.50247 16.0867 6.18719C16.7714 6.8719 16.7714 7.97734 16.0867 8.66206Z" fill="black"/>
</svg>
