<svg width="20" height="14" viewBox="0 0 20 14" fill="none" xmlns="http://www.w3.org/2000/svg">
<path d="M5.38496 1.08813L7.74059 1.41375C7.82184 1.425 7.90246 1.44001 7.98121 1.45813L5.79184 4.16251C4.84059 5.33688 4.57621 6.92563 5.09246 8.35438L6.03309 10.955L4.22621 10.7056C3.30434 10.5781 2.52184 9.98376 2.16309 9.13751L1.11559 6.67001C0.756212 5.82376 0.872462 4.84813 1.42121 4.09626L2.82371 2.17563C3.41059 1.37126 4.39871 0.952505 5.38496 1.08813Z" fill="#686F78"/>
<path d="M17.9037 3.34624L18.8981 6.14249C19.2875 7.23686 19.0775 8.45811 18.3437 9.36436L16.2043 12.0062C15.4706 12.9125 14.32 13.3719 13.1681 13.2181L10.2262 12.8269C8.99434 12.6631 7.95934 11.825 7.54309 10.6544L6.54871 7.85811C6.15934 6.76374 6.36934 5.54249 7.10309 4.63624L9.24246 1.99436C9.97621 1.08811 11.1268 0.628737 12.2787 0.782487L15.2206 1.17374C16.4525 1.33749 17.4875 2.17561 17.9037 3.34624ZM11.7893 11.5119C11.7681 11.2325 11.39 11.0537 10.945 11.1131C10.5 11.1725 10.1568 11.4475 10.1787 11.7269C10.2 12.0062 10.5781 12.185 11.0231 12.1256C11.4681 12.0662 11.8112 11.7912 11.7893 11.5119ZM10.4387 6.24624C10.3812 5.45749 9.90559 4.87561 9.37746 4.94561C8.84934 5.01561 8.46746 5.71186 8.52496 6.50061C8.58246 7.28936 9.05809 7.87124 9.58621 7.80124C10.1143 7.73124 10.4962 7.03499 10.4387 6.24624ZM14.6718 10.425C14.6506 10.1456 14.2725 9.96686 13.8275 10.0262C13.3825 10.0856 13.0393 10.3606 13.0612 10.64C13.0825 10.9194 13.4606 11.0981 13.9056 11.0387C14.3506 10.9794 14.6937 10.7044 14.6718 10.425ZM17.3018 9.45874C17.2806 9.17936 16.9025 9.00061 16.4575 9.05999C16.0125 9.11936 15.6693 9.39436 15.6912 9.67374C15.7125 9.95311 16.0906 10.1319 16.5356 10.0725C16.9806 10.0131 17.3237 9.73811 17.3018 9.45874ZM17.2693 5.04936C16.81 4.67686 16.235 4.62499 15.9856 4.93311C15.7362 5.24124 15.9068 5.79249 16.3662 6.16436C16.8256 6.53686 17.4006 6.58874 17.65 6.28061C17.8993 5.97249 17.7287 5.42124 17.2693 5.04936ZM13.7256 2.17936C13.2662 1.80686 12.6912 1.75499 12.4418 2.06311C12.1925 2.37124 12.3631 2.92249 12.8225 3.29436C13.2818 3.66686 13.8568 3.71874 14.1062 3.41061C14.3556 3.10249 14.185 2.55124 13.7256 2.17936Z" fill="#686F78"/>
</svg>
