<svg width="18" height="18" viewBox="0 0 18 18" fill="none" xmlns="http://www.w3.org/2000/svg">
<g clip-path="url(#clip0_1_1769)">
<path d="M9.00028 18C13.9708 18 18.0003 13.9706 18.0003 9C18.0003 4.02944 13.9708 0 9.00028 0C4.02971 0 0.000274658 4.02944 0.000274658 9C0.000274658 13.9706 4.02971 18 9.00028 18Z" fill="#F0F0F0"/>
<path d="M1.86048 3.52069C1.15353 4.44048 0.620453 5.50062 0.310059 6.6523H4.9921L1.86048 3.52069Z" fill="#0052B4"/>
<path d="M17.69 6.65233C17.3796 5.50068 16.8465 4.44054 16.1396 3.52075L13.008 6.65233H17.69Z" fill="#0052B4"/>
<path d="M0.310059 11.348C0.620488 12.4996 1.15356 13.5597 1.86048 14.4795L4.99199 11.348H0.310059Z" fill="#0052B4"/>
<path d="M14.4794 1.86058C13.5596 1.15362 12.4995 0.620549 11.3478 0.31012V4.99212L14.4794 1.86058Z" fill="#0052B4"/>
<path d="M3.52063 16.1396C4.44042 16.8465 5.50056 17.3796 6.65221 17.69V13.0081L3.52063 16.1396Z" fill="#0052B4"/>
<path d="M6.65217 0.31012C5.50052 0.620549 4.44039 1.15362 3.52063 1.86055L6.65217 4.99209V0.31012Z" fill="#0052B4"/>
<path d="M11.3478 17.69C12.4994 17.3796 13.5596 16.8465 14.4793 16.1396L11.3478 13.0081V17.69Z" fill="#0052B4"/>
<path d="M13.008 11.348L16.1396 14.4795C16.8465 13.5598 17.3796 12.4996 17.69 11.348H13.008Z" fill="#0052B4"/>
<path d="M17.9241 7.8261H10.1742H10.1742V0.0761836C9.78992 0.0261563 9.39814 0 9.00028 0C8.60234 0 8.21063 0.0261563 7.82637 0.0761836V7.82603V7.82606H0.0764583C0.0264309 8.21036 0.000274658 8.60214 0.000274658 9C0.000274658 9.39793 0.0264309 9.78964 0.0764583 10.1739H7.8263H7.82634V17.9238C8.21063 17.9738 8.60234 18 9.00028 18C9.39814 18 9.78992 17.9739 10.1742 17.9238V10.174V10.1739H17.9241C17.9741 9.78964 18.0003 9.39793 18.0003 9C18.0003 8.60214 17.9741 8.21035 17.9241 7.8261Z" fill="#D80027"/>
<path d="M11.3478 11.3479L15.3639 15.364C15.5487 15.1793 15.7249 14.9863 15.893 14.7862L12.4546 11.3478H11.3478V11.3479Z" fill="#D80027"/>
<path d="M6.65219 11.3478H6.65212L2.63605 15.3639C2.82069 15.5486 3.01373 15.7248 3.21384 15.8929L6.65219 12.4545V11.3478Z" fill="#D80027"/>
<path d="M6.65219 6.6522V6.65213L2.63609 2.63599C2.45138 2.82063 2.27517 3.01367 2.10706 3.21378L5.54544 6.65217H6.65219V6.6522Z" fill="#D80027"/>
<path d="M11.3478 6.65223L15.364 2.63605C15.1793 2.45134 14.9863 2.27514 14.7862 2.10706L11.3478 5.54544V6.65223Z" fill="#D80027"/>
</g>
<defs>
<clipPath id="clip0_1_1769">
<rect width="18" height="18" fill="white"/>
</clipPath>
</defs>
</svg>
