<svg width="14" height="20" viewBox="0 0 14 20" fill="none" xmlns="http://www.w3.org/2000/svg">
<path d="M11.7193 10.3937V15.9856L6.99122 19.0625L2.26309 15.9856V10.3937H11.7193ZM10.3143 11.51H3.68122V15.2694L6.99122 17.3013L10.3143 15.27V11.51ZM8.01184 12.74C8.16934 12.74 8.31997 12.7644 8.46309 12.8131C8.60622 12.8619 8.73246 12.9331 8.84122 13.0281C8.94997 13.1225 9.03684 13.2387 9.10122 13.3769C9.16559 13.515 9.19747 13.6719 9.19747 13.8475C9.19747 14.0262 9.16559 14.185 9.10122 14.3244C9.03684 14.4638 8.94997 14.5813 8.84122 14.6769C8.73246 14.7725 8.60622 14.8456 8.46309 14.8956C8.31997 14.9456 8.16934 14.9706 8.01184 14.9706C7.85684 14.9706 7.70809 14.9456 7.56497 14.8956C7.42184 14.8456 7.29622 14.7731 7.18872 14.6769C7.08122 14.5813 6.99497 14.4638 6.93059 14.3244C6.86622 14.185 6.83372 14.0262 6.83372 13.8475C6.83372 13.6713 6.86559 13.5144 6.93059 13.3769C6.99559 13.2394 7.08122 13.1225 7.18872 13.0281C7.29622 12.9337 7.42184 12.8619 7.56497 12.8131C7.70809 12.7644 7.85747 12.74 8.01184 12.74ZM5.73059 12.1019V14.0875H6.65684V14.8913H4.78497V12.1019H5.73059ZM8.01184 13.5044C7.91184 13.5044 7.83122 13.5387 7.76934 13.6069C7.70747 13.675 7.67684 13.755 7.67684 13.8475C7.67684 13.9444 7.70809 14.0275 7.77122 14.0956C7.83434 14.1637 7.91559 14.1981 8.01559 14.1981C8.11559 14.1981 8.19684 14.1637 8.25997 14.0956C8.32309 14.0275 8.35434 13.9444 8.35434 13.8475C8.35434 13.7556 8.32247 13.6756 8.25809 13.6069C8.19372 13.5381 8.11184 13.5044 8.01184 13.5044ZM12.9187 8.81813C13.3537 8.81813 13.7068 9.17125 13.7068 9.60625V10.3944C13.7068 10.8294 13.3543 11.1825 12.9187 11.1825H12.5075V8.81813H12.9187ZM1.49247 8.81813V11.1825H1.08122C0.646216 11.1825 0.293091 10.83 0.293091 10.3944V9.60625C0.293091 9.17125 0.645591 8.81813 1.08122 8.81813H1.49247ZM6.99122 0.9375L11.7193 4.08938V9.60563H2.26309V4.08938L6.99122 0.9375ZM5.72184 4.94625H4.54872V8.45062H5.72684V7.11937H6.68747V8.45062H7.86559V4.94625H6.68247V6.13437H5.72184V4.94625ZM9.43747 5.84687H8.29434V8.45062H9.43747V5.84687ZM8.87309 4.51062C8.79059 4.51062 8.71309 4.52625 8.64059 4.5575C8.56809 4.58875 8.50434 4.63063 8.44997 4.68375C8.39559 4.73688 8.35247 4.79875 8.32122 4.86937C8.28997 4.94 8.27434 5.01562 8.27434 5.09438C8.27434 5.17688 8.28997 5.25375 8.32122 5.32438C8.35247 5.395 8.39559 5.45625 8.44997 5.5075C8.50434 5.55875 8.56809 5.59875 8.64059 5.62875C8.71309 5.65875 8.79059 5.67312 8.87309 5.67312C8.95247 5.67312 9.02622 5.65812 9.09559 5.62875C9.16497 5.59937 9.22684 5.55875 9.28122 5.5075C9.33559 5.45625 9.37872 5.395 9.40997 5.32438C9.44122 5.25375 9.45684 5.17688 9.45684 5.09438C9.45684 5.015 9.44122 4.94 9.40997 4.86937C9.37872 4.79875 9.33559 4.73625 9.28122 4.68375C9.22684 4.63063 9.16497 4.58875 9.09559 4.5575C9.02622 4.52625 8.95184 4.51062 8.87309 4.51062Z" fill="#686F78"/>
</svg>
