<svg width="20" height="20" viewBox="0 0 20 20" fill="none" xmlns="http://www.w3.org/2000/svg">
<path d="M3.57814 12.7109C3.83855 9.38021 7.41668 6.1198 8.25001 4.89844C8.97397 3.80209 8.69793 2.5 8.46616 1.92709C8.46043 1.90886 8.45678 1.88802 8.45678 1.86615C8.45678 1.75417 8.54793 1.66302 8.65991 1.66302C8.67345 1.66302 8.68647 1.66459 8.69897 1.66667H8.69793C12.3177 2.42709 12.5 5.17969 12.3906 6.41146C12.2813 7.64323 12.5 8.47396 13.2969 8.29427C14.0938 8.11459 13.8255 6.09375 13.8255 6.09375C13.8255 6.09375 17.4844 10.4401 16.1432 14.7135C15.4688 16.9479 13.7891 17.8906 12.3776 18.3333C12.3047 18.3698 12.2318 18.2969 12.2318 18.1901C12.4141 17.5026 12.8854 16.9583 13.0287 16.1979C13.3203 14.9479 12.1615 13.7969 11.3021 13.1458C10.7646 12.7453 10.4198 12.1115 10.4198 11.3969C10.4198 11.3635 10.4203 11.3302 10.4219 11.2974V11.3021C10.4219 11.2292 10.3125 11.1927 10.2787 11.2292C9.71303 11.9104 9.1448 12.5245 8.5448 13.1063L8.53907 13.112C7.20053 14.5964 6.51043 16.263 7.70574 18.1094C7.7422 18.1823 7.66928 18.2891 7.59897 18.2552C4.62762 17.4557 3.39845 15.2083 3.57814 12.7109V12.7109Z" fill="#686F78"/>
</svg>
