<svg width="16" height="16" viewBox="0 0 16 16" fill="none" xmlns="http://www.w3.org/2000/svg">
<path d="M13.91 0.1875L15.8125 2.08188V13.9581L13.9125 15.8125H2.16813L0.1875 14.0269V2.11L2.2125 0.188125H13.91V0.1875ZM12.8956 2.14062H3.1575L2.14125 3.10375V12.9394L3.1575 13.8594H12.8956L13.8594 12.9394V3.10375L12.8956 2.14062ZM11.1919 4.09375L11.9062 4.85188V11.2L11.1919 11.9062H4.81313L4.09375 11.2V4.85188L4.81313 4.09375H11.1919ZM7.55 6.04688H6.28813V9.95312H7.55562V8.3975H7.56687L8.59937 9.95312H10.1944L8.67 7.83437L10.1231 6.04688H8.59312L7.56063 7.48688H7.54938V6.04688H7.55Z" fill="#686F78"/>
</svg>
