<svg width="16" height="20" viewBox="0 0 16 20" fill="none" xmlns="http://www.w3.org/2000/svg">
<path d="M5.23752 0.901868C5.45377 1.20124 5.38689 1.61874 5.08752 1.83499C3.63189 2.88749 3.09939 4.14312 3.50064 5.70749L5.56502 3.84937C5.83939 3.60249 6.26189 3.62437 6.50877 3.89874L7.84189 5.37874C10.0075 5.14437 12.2506 5.91749 13.82 7.65999C16.4138 10.5406 16.1813 14.9781 13.3006 17.5719C10.42 20.1656 5.98252 19.9331 3.38877 17.0525C1.76627 15.2506 1.24939 12.8387 1.79564 10.6506L0.548769 9.26562C0.301894 8.99124 0.323769 8.56874 0.598144 8.32187L2.41439 6.68624C1.54814 4.32124 2.17314 2.29249 4.30439 0.751243C4.60377 0.534993 5.02127 0.601868 5.23752 0.901243V0.901868ZM9.03252 6.90937C8.66314 6.90937 8.36439 7.20874 8.36439 7.57749C8.36439 7.94624 8.66377 8.24562 9.03252 8.24562C11.2475 8.24562 13.0431 10.0412 13.0431 12.2562C13.0431 12.6256 13.3425 12.9244 13.7113 12.9244C14.08 12.9244 14.3794 12.625 14.3794 12.2562C14.3794 9.30312 11.985 6.90874 9.03189 6.90874L9.03252 6.90937Z" fill="#686F78"/>
</svg>
