<svg width="24" height="24" viewBox="0 0 24 24" fill="none" xmlns="http://www.w3.org/2000/svg">
<path d="M20.9279 0.562321C20.8087 0.871862 20.6325 1.21236 20.5444 1.32586C20.3838 1.51158 20.363 1.5219 20.1454 1.4961C20.0054 1.48063 19.6634 1.35165 19.3006 1.17109L18.6942 0.866704L18.9948 1.22783C19.399 1.7231 19.5027 1.87787 19.596 2.14098C19.7566 2.58982 19.5856 2.72911 18.7408 2.82197L18.1966 2.88388L18.4247 2.95095C18.746 3.04381 19.2021 3.28113 19.3731 3.4359C19.4612 3.5236 19.5131 3.62162 19.5131 3.71448C19.5131 3.91053 19.2695 4.32325 18.9481 4.6689C18.803 4.82883 18.6838 4.97329 18.6838 4.98876C18.6838 5.00424 18.7823 4.95781 18.9067 4.88042C19.1865 4.70502 19.6996 4.47286 19.9173 4.42643C20.1298 4.38516 20.1298 4.43159 19.9329 4.83915C19.6893 5.34989 19.3835 5.55626 18.5024 5.81937C17.5747 6.09795 17.4037 6.15986 17.0875 6.34559C16.9113 6.44877 16.6159 6.68092 16.4345 6.85633L16.108 7.18135L15.569 6.63965C14.973 6.0412 14.8071 5.9277 14.5946 5.97414C14.5065 5.99477 14.1696 6.28884 13.6565 6.79958C13.216 7.2381 12.8688 7.60439 12.8791 7.61471C12.8947 7.63018 13.0346 7.71789 13.1901 7.81075C14.294 8.4711 15.2891 9.43068 16.0302 10.5399C16.2479 10.8649 16.4293 11.1435 16.4397 11.159C16.45 11.1693 16.818 10.8236 17.2586 10.3851C18.0826 9.56998 18.1811 9.42036 18.0619 9.18821C18.0256 9.12114 17.6939 8.76517 17.3208 8.38856L16.6418 7.70757L16.958 7.40834C17.3726 7.0111 17.668 6.85633 18.4921 6.6087C19.2954 6.37138 19.6374 6.22177 19.9847 5.97414C20.2594 5.76778 20.617 5.27251 20.7103 4.96297C20.7466 4.85463 20.788 4.76177 20.8087 4.76177C20.8554 4.76177 21.0834 5.26735 21.2026 5.6388L21.2959 5.91739L21.3581 5.5511C21.3892 5.34989 21.4462 5.10226 21.4825 4.99908C21.5602 4.76692 21.7727 4.50381 21.8919 4.50381C22.0267 4.50381 22.3584 4.6947 22.7834 5.01972L23.1773 5.3241L22.9389 4.9217C22.7056 4.53993 22.5191 4.07562 22.5191 3.88473C22.5191 3.62678 22.9285 3.36367 23.6074 3.1831C24.0013 3.07992 24.1102 3.0077 23.8821 3.0077C23.6437 3.0077 22.944 2.85293 22.6901 2.74459C22.405 2.62593 22.3325 2.45568 22.4206 2.14098C22.488 1.89851 22.7886 1.44451 23.0788 1.12981C23.3017 0.902817 23.2861 0.902817 22.8197 1.16593C22.3947 1.4084 21.9593 1.56317 21.7157 1.56317C21.5654 1.56317 21.5136 1.53222 21.4307 1.39808C21.3115 1.19688 21.2337 0.88218 21.1819 0.381755L21.1456 -1.33514e-05L20.9279 0.562321ZM21.1923 2.44021C21.2959 2.40925 21.3892 2.35766 21.4048 2.33187C21.4255 2.30607 21.4773 2.2648 21.5343 2.23384C21.6173 2.18741 21.6276 2.20289 21.6017 2.38862C21.5551 2.73427 21.6121 2.84777 21.9075 2.9819L22.1718 3.10572L21.9593 3.15731C21.6173 3.25017 21.5188 3.36367 21.524 3.64742C21.5291 3.78155 21.5499 3.91569 21.5706 3.9518C21.5913 3.98791 21.5188 3.93632 21.4151 3.84346C21.1871 3.64742 20.9694 3.62678 20.7155 3.78155C20.6222 3.8383 20.5392 3.88473 20.5341 3.88473C20.5289 3.88473 20.5289 3.78155 20.5392 3.65773C20.56 3.39978 20.4563 3.26049 20.135 3.12636L19.9536 3.04381L20.1972 2.97159C20.4926 2.88904 20.5703 2.77038 20.5392 2.44021L20.5133 2.19773L20.7621 2.34734C20.985 2.4918 21.0212 2.49695 21.1923 2.44021Z" fill="black"/>
<path d="M7.77413 7.08334C4.37943 7.3774 1.46154 9.65253 0.393889 12.8511C0.0673758 13.821 0.00518276 14.2647 0 15.5183C0 16.7926 0.0518275 17.1538 0.373158 18.1494C1.37861 21.2707 4.14102 23.5509 7.40097 23.9533C8.12138 24.0462 9.54145 23.9946 10.1997 23.8502C11.3243 23.6129 12.4904 23.1073 13.3974 22.4675C14.0297 22.0239 14.9833 21.0746 15.4291 20.4452C16.0717 19.5475 16.5745 18.3816 16.8284 17.226C16.9269 16.7771 16.9424 16.545 16.9424 15.5441C16.9476 14.2647 16.8802 13.8159 16.5537 12.8357C15.7089 10.318 13.6047 8.2596 11.0445 7.44963C10.0856 7.14525 8.76922 6.99564 7.77413 7.08334Z" fill="black"/>
</svg>
