<svg width="19" height="16" viewBox="0 0 19 16" fill="none" xmlns="http://www.w3.org/2000/svg">
<path d="M6.22181 2.58376C9.56063 2.58376 12.2671 5.45938 12.2671 9.00688C12.2671 12.5544 9.56063 15.43 6.22181 15.43C2.88298 15.43 0.176514 12.5544 0.176514 9.00688C0.176514 5.45938 2.88298 2.58376 6.22181 2.58376ZM16.653 3.78563L13.19 7.43751L12.9 6.45688L16.653 3.78563ZM4.64122 4.28501C4.06181 4.28501 3.5924 4.78376 3.5924 5.39938C3.5924 6.01501 4.06181 6.51376 4.64122 6.51376C5.22063 6.51376 5.69004 6.01501 5.69004 5.39938C5.69004 4.78376 5.22063 4.28501 4.64122 4.28501ZM19 0.570007L12.5759 5.47063L12.1071 4.61626L19 0.570007ZM14.8636 1.47938L11.3577 3.88813L10.6536 3.17813L14.8636 1.47938Z" fill="#686F78"/>
</svg>
