<svg width="18" height="14" viewBox="0 0 18 14" fill="none" xmlns="http://www.w3.org/2000/svg">
<path d="M12.0656 0.530029C12.2663 0.530029 12.4288 0.695029 12.4288 0.898779C12.4288 1.10253 12.2663 1.26753 12.0656 1.26753C11.9775 1.26753 11.8975 1.23565 11.8344 1.18315L11.8475 1.21253C10.8956 1.90065 10.3631 2.26315 10.2506 2.30003L10.2331 2.30315V2.83253C14.2769 3.14503 17.3806 4.9694 17.3806 7.17378C17.3806 7.26753 17.375 7.36003 17.3644 7.4519C17.375 7.5494 17.3806 7.64753 17.3806 7.74628C17.3806 8.60753 16.9457 9.41253 16.1894 10.1007C15.7819 11.9975 12.8038 13.4707 9.19003 13.4707C5.84377 13.4707 3.0419 12.2075 2.3219 10.5138C1.25315 9.74565 0.618774 8.78628 0.618774 7.74628C0.618774 7.64878 0.6244 7.5519 0.63565 7.45565C0.625025 7.36253 0.618774 7.26878 0.618774 7.17378C0.618774 4.9094 3.8944 3.04503 8.10002 2.81003L8.10065 2.25503C7.9044 2.14253 7.45377 1.8319 6.74877 1.3244L6.59377 1.21253L6.6069 1.18315C6.54377 1.23565 6.46377 1.26753 6.37565 1.26753C6.17502 1.26753 6.01252 1.10253 6.01252 0.898779C6.01252 0.695029 6.17502 0.530029 6.37565 0.530029C6.57627 0.530029 6.73877 0.695029 6.73877 0.898779C6.73877 0.928779 6.73565 0.957529 6.72815 0.984404C7.54565 1.35878 8.07002 1.63065 8.30127 1.80065C8.49377 1.66065 8.8094 1.57003 9.16565 1.57003C9.5569 1.57003 9.89878 1.6794 10.0844 1.84315C10.2769 1.67878 10.82 1.39253 11.7113 0.984404C11.7044 0.957529 11.7006 0.928779 11.7006 0.898779C11.7006 0.695029 11.8631 0.530029 12.0638 0.530029H12.0656ZM6.68565 8.38253C5.50252 9.0119 4.73127 9.4344 4.37315 9.6494C5.24377 10.3838 7.0019 11.01 8.31502 11.06C8.31502 10.815 8.2944 10.125 8.25252 8.98878H8.21502C7.75815 8.94628 7.0344 8.72253 6.68502 8.38253H6.68565ZM11.4763 8.4819C11.0056 8.78253 10.1563 9.00878 9.66502 9.00878C9.78877 9.4594 9.96065 10.0925 10.1819 10.9075C11.72 10.7132 12.8463 10.2225 13.5769 9.63878C13.11 9.37628 12.4094 8.99065 11.4756 8.48253L11.4763 8.4819ZM14.5569 6.25503L11.8675 6.79253C12.0081 7.01565 12.065 7.2794 12.0381 7.5819C12.3019 7.65378 12.6975 7.75691 13.1031 7.86065L13.3738 7.9294C14.0475 8.10065 14.6744 8.2544 14.6906 8.24878C15.0663 7.54253 15.0213 6.87815 14.5569 6.2544V6.25503ZM4.51502 5.18878L4.40815 5.24815C3.26627 5.80503 2.3919 6.86253 2.98127 7.9344C3.91377 7.81503 5.37752 7.63378 6.33565 7.49878C6.33377 7.48565 6.33315 7.47253 6.33315 7.4594C6.33315 7.07315 6.50627 6.77628 6.85065 6.4944C6.26002 6.14315 5.46315 5.6869 4.51502 5.18878ZM10.835 4.31878L10.8275 4.32878C10.57 4.7644 10.3206 5.1569 10.1094 5.5469V5.88315C10.54 5.92253 10.9144 6.03878 11.1894 6.1644C12.0513 5.88065 12.6675 5.63378 13.5863 5.25065C12.8519 4.82128 11.9056 4.49503 10.8344 4.31878H10.835ZM6.34565 4.45003C6.79565 4.8819 7.41815 5.5094 7.84127 5.9219C7.93502 5.87815 8.04565 5.85378 8.15627 5.83628V5.44253C8.15627 5.33753 8.20002 5.28628 8.29377 5.25253V5.10253C8.29377 5.04003 8.34377 4.9319 8.49065 4.9319C8.4894 4.58815 8.4894 4.33753 8.49065 4.17815C7.83252 4.15315 6.89752 4.29128 6.34502 4.4494L6.34565 4.45003Z" fill="#686F78"/>
</svg>
