<svg id="Capa_1" enable-background="new 0 0 512 512" height="512" viewBox="0 0 512 512" width="512" xmlns="http://www.w3.org/2000/svg"><g><path d="m271 122.487c7.531.837 14.91 2.316 22.24 4.417l11.79-28.466c-10.898-3.398-22.299-5.614-34.03-6.678z"/><path d="m218.76 126.903c7.33-2.1 14.709-3.58 22.24-4.417v-30.726c-11.732 1.064-23.132 3.279-34.03 6.678z"/><path d="m122.487 241c.837-7.531 2.316-14.91 4.417-22.24l-28.466-11.79c-3.398 10.898-5.614 22.299-6.678 34.03z"/><path d="m320.969 138.357c6.572 3.622 12.803 7.85 18.816 12.647l21.722-21.722c-8.86-7.39-18.523-13.823-28.808-19.248z"/><path d="m172.215 151.004c6.013-4.797 12.244-9.025 18.816-12.647l-11.73-28.323c-10.285 5.425-19.948 11.858-28.808 19.248z"/><path d="m360.941 256c0-58.356-47.087-104.941-104.941-104.941-58.232 0-104.941 46.943-104.941 104.941 0 27.43 10.507 54.071 30.688 74.253 39.58 39.58 108.926 39.58 148.506 0 19.511-19.511 30.688-45.881 30.688-74.253zm-59.941 0c0 6.927-1.703 13.412-4.51 19.279l12.537 12.537c5.859 5.859 5.859 15.352 0 21.211s-15.351 5.86-21.211 0l-12.537-12.537c-5.867 2.807-12.352 4.51-19.279 4.51s-13.412-1.703-19.279-4.51l-12.537 12.537c-5.859 5.859-15.351 5.86-21.211 0-5.859-5.859-5.859-15.352 0-21.211l12.537-12.537c-2.807-5.867-4.51-12.352-4.51-19.279s1.703-13.412 4.51-19.279l-12.537-12.537c-5.859-5.859-5.859-15.352 0-21.211s15.352-5.859 21.211 0l12.537 12.537c5.867-2.807 12.352-4.51 19.279-4.51s13.412 1.703 19.279 4.51l12.537-12.537c5.859-5.859 15.352-5.859 21.211 0s5.859 15.352 0 21.211l-12.537 12.537c2.807 5.867 4.51 12.352 4.51 19.279z"/><path d="m122.487 271h-30.727c1.064 11.732 3.279 23.132 6.678 34.03l28.466-11.79c-2.101-7.33-3.58-14.709-4.417-22.24z"/><path d="m138.355 320.969-28.321 11.73c5.425 10.285 11.858 19.946 19.248 28.808l21.72-21.72c-4.798-6.013-9.025-12.246-12.647-18.818z"/><path d="m373.645 191.031 28.319-11.732c-5.425-10.283-11.856-19.946-19.246-28.806l-21.72 21.72c4.798 6.013 9.025 12.246 12.647 18.818z"/><path d="m61 256c0-21.13 3.484-41.437 9.73-60.507l-55.419-22.952c-9.111 26.193-15.311 54.201-15.311 83.459s6.198 57.266 15.31 83.459l55.421-22.954c-6.247-19.07-9.731-39.375-9.731-60.505z"/><path d="m389.513 241h30.727c-1.064-11.732-3.279-23.134-6.678-34.032l-28.466 11.79c2.101 7.33 3.58 14.711 4.417 22.242z"/><circle cx="256" cy="256" r="15"/><path d="m138.355 191.031c3.622-6.572 7.85-12.805 12.647-18.818l-21.72-21.72c-7.39 8.86-13.823 18.523-19.248 28.808z"/><path d="m82.31 167.818c19.35-37.952 48.773-66.779 85.508-85.508l-22.971-55.457c-51.345 25.01-92.985 66.65-117.995 117.997z"/><path d="m167.816 429.69c-37.716-19.23-66.733-48.688-85.507-85.508l-55.457 22.969c25.01 51.346 66.65 92.985 117.995 117.995z"/><path d="m195.493 70.73c19.07-6.246 39.377-9.73 60.507-9.73s41.437 3.484 60.507 9.73l22.952-55.419c-26.193-9.111-54.201-15.311-83.459-15.311s-57.266 6.2-83.461 15.312z"/><path d="m344.182 82.308c36.586 18.653 66.102 47.445 85.508 85.507l55.455-22.971c-25.012-51.343-66.65-92.981-117.995-117.991z"/><path d="m316.505 441.27c-19.07 6.246-39.375 9.73-60.505 9.73s-41.437-3.484-60.507-9.73l-22.954 55.419c26.195 9.111 54.201 15.311 83.461 15.311 29.258 0 57.264-6.198 83.458-15.31z"/><path d="m429.692 344.182c-19.361 37.973-48.805 66.795-85.51 85.51l22.967 55.455c51.348-25.01 92.988-66.65 117.999-117.997z"/><path d="m373.645 320.969c-3.622 6.572-7.85 12.805-12.647 18.818l21.72 21.72c7.39-8.86 13.823-18.523 19.248-28.808z"/><path d="m339.785 360.996c-6.015 4.796-12.246 9.027-18.818 12.647l11.732 28.323c10.285-5.425 19.946-11.858 28.808-19.248z"/><path d="m512 256c0-29.26-6.2-57.27-15.313-83.465l-55.417 22.956c6.246 19.07 9.73 39.379 9.73 60.509s-3.484 41.437-9.73 60.507l55.419 22.952c9.111-26.193 15.311-54.201 15.311-83.459z"/><path d="m241 389.508c-7.531-.839-14.908-2.318-22.238-4.417l-11.794 28.471c10.898 3.398 22.3 5.614 34.032 6.678z"/><path d="m293.238 385.091c-7.33 2.098-14.707 3.578-22.238 4.417v30.732c11.732-1.064 23.132-3.279 34.03-6.678z"/><path d="m389.513 271c-.837 7.531-2.316 14.91-4.417 22.24l28.466 11.79c3.398-10.898 5.614-22.299 6.678-34.03z"/><path d="m191.032 373.643c-6.572-3.62-12.803-7.852-18.818-12.647l-21.722 21.722c8.86 7.39 18.525 13.823 28.808 19.248z"/></g></svg>
