<svg width="20" height="12" viewBox="0 0 20 12" fill="none" xmlns="http://www.w3.org/2000/svg">
<path d="M15.5 0.0625C17.7094 0.0625 19.5 1.83438 19.5 4.02063C19.5 4.83938 19.2488 5.60063 18.8181 6.23188C18.7419 6.34938 18.6544 6.4675 18.555 6.58563C15.5931 10.1225 6.55626 11.9606 6.53814 11.9369C8.99002 10.4819 10.2313 9.07312 10.1881 9.04875C7.59502 10.3825 4.36501 11.2819 0.49939 11.7463C2.83064 10.7137 5.01939 9.42062 7.06501 7.86687C10.1331 5.53562 11.0481 2.83312 12.6606 1.23375L12.6063 1.2875L12.7144 1.17937C13.4344 0.488125 14.4169 0.0625 15.4994 0.0625H15.5ZM15.4794 1.05188C13.8225 1.05188 12.4794 2.38125 12.4794 4.02063C12.4794 5.66 13.8225 6.98938 15.4794 6.98938C17.1363 6.98938 18.4794 5.66 18.4794 4.02063C18.4794 2.38125 17.1363 1.05188 15.4794 1.05188Z" fill="#686F78"/>
</svg>
