<svg width="24" height="24" viewBox="0 0 24 24" fill="none" xmlns="http://www.w3.org/2000/svg">
<path d="M16.704 3.48075C17.7075 3.48075 18.6037 4.71375 19.1895 6.64275L19.197 6.642L19.29 6.999C20.031 10.0268 19.98 14.2882 18.972 18.0037H18.9712C18.3922 19.5577 17.5897 20.5192 16.7032 20.5192L16.6492 20.5155L16.65 20.5192L7.2577 20.5132C6.42895 20.43 5.6812 19.506 5.1307 18.0518L5.12245 18.051C4.3222 14.3303 4.2802 9.90975 4.8652 6.858L4.9432 6.47775H4.94695C5.5222 4.67775 6.3742 3.5235 7.32745 3.48225V3.48075H16.7032H16.704ZM4.53595 6.47775C3.9727 8.37225 3.7132 10.335 3.75895 12.366C3.80095 14.2523 4.08895 16.0545 4.62295 17.7727L4.7122 18.0495H4.17745C3.3802 18.0495 2.77045 16.8525 2.44495 15.1448C1.5997 14.7113 0.996704 13.5773 0.996704 12.2468C0.996704 10.9343 1.5832 9.81375 2.4097 9.36675C2.72545 7.63875 3.35095 6.47775 4.1782 6.47775H4.5367H4.53595ZM19.9155 6.6435C20.6902 6.741 21.3592 7.80825 21.7215 9.447C22.479 9.936 23.0032 11.0063 23.0032 12.2468C23.0032 13.4678 22.4955 14.5238 21.759 15.024C21.4252 16.6665 20.79 17.775 20.0422 17.9707L19.9162 17.9948L19.9147 18.003L19.3477 18.0037L19.4797 17.667C20.0655 16.0853 20.3962 14.364 20.4712 12.5025C20.553 10.467 20.2545 8.51475 19.575 6.64425H19.9147L19.9155 6.6435ZM10.1745 8.631L9.91496 8.73L9.53246 8.9025C9.42671 8.9235 9.36371 8.86275 9.34196 8.72025C9.32021 8.57775 9.22495 8.5035 9.0562 8.4975C8.7382 8.4975 8.4757 8.5125 8.2687 8.5425C8.09095 8.568 7.99945 8.65425 7.9927 8.80125L7.99645 8.88L7.91095 11.4098C7.90045 11.5118 7.91095 11.5875 7.9432 11.6378C7.96495 11.6715 7.9957 11.6933 8.0362 11.7045L8.10445 11.712L9.09145 11.6918C9.14845 11.7098 9.19796 11.7008 9.24146 11.6655C9.26995 11.6423 9.29545 11.6063 9.31871 11.5598L9.35021 11.4803L9.48071 11.256C9.60071 11.0468 9.7597 10.9013 9.9577 10.8188C10.1227 10.7505 10.3462 10.7393 10.629 10.7843L10.806 10.8188L12.237 11.2283C12.6022 11.286 12.9645 11.286 13.3237 11.2283C13.683 11.1705 14.0167 11.0513 14.3265 10.872C14.2185 11.001 14.061 11.1473 13.854 11.31C13.647 11.4728 13.389 11.652 13.0815 11.8485C12.888 11.9445 12.6862 12.0563 12.4762 12.1838C12.2662 12.3113 12.0487 12.4545 11.823 12.6128C11.5852 12.7943 11.379 12.9788 11.2042 13.167C11.0295 13.3553 10.887 13.5458 10.776 13.7393C10.6312 13.9673 10.5172 14.232 10.4355 14.532C10.3537 14.832 10.3035 15.1688 10.2855 15.5415C10.2727 15.6398 10.2877 15.7133 10.3297 15.7613C10.3612 15.7973 10.4077 15.8182 10.47 15.8257L10.5375 15.828L14.0025 15.8348C14.16 15.8505 14.2695 15.8437 14.331 15.8152C14.3775 15.7942 14.397 15.7598 14.3895 15.714L14.373 15.6637L14.3137 15.3428C14.2867 15.1253 14.2747 14.8823 14.2785 14.6138C14.2822 14.3453 14.3002 14.0512 14.334 13.7325C14.3707 13.4558 14.4232 13.185 14.4907 12.921C14.5582 12.657 14.6407 12.3998 14.7382 12.1485C14.838 11.874 14.9497 11.6033 15.0735 11.337C15.1972 11.0708 15.333 10.809 15.48 10.551C15.564 10.3785 15.6847 10.176 15.8422 9.94425C15.9997 9.7125 16.194 9.4515 16.425 9.16125C16.4782 9.1065 16.5052 9.05775 16.5052 9.01575C16.5052 8.98725 16.4932 8.96175 16.47 8.9385L16.4257 8.90625L16.2165 8.8095L15.786 8.54325C15.7267 8.50275 15.6757 8.48775 15.6315 8.49675C15.5872 8.50575 15.5505 8.5395 15.5212 8.598C15.4687 8.66775 15.3997 8.7255 15.3135 8.76975C15.2272 8.814 15.1245 8.8455 15.0045 8.86425C14.8425 8.89125 14.6805 8.90475 14.5185 8.90625C14.3565 8.90775 14.1937 8.89575 14.031 8.871C13.2862 8.72625 12.588 8.59425 11.9377 8.475C11.3685 8.37075 10.782 8.42325 10.1782 8.631H10.1745Z" fill="#686F78"/>
</svg>
