<svg width="28" height="29" viewBox="0 0 28 29" fill="none" xmlns="http://www.w3.org/2000/svg">
<path d="M27.119 23.6261L23.282 19.6763L19.0283 24.055L22.8653 28.0049C24.0399 29.2141 25.9444 29.2141 27.119 28.0049C28.2936 26.7957 28.2936 24.8353 27.119 23.6261Z" fill="#000"/>
<path d="M12.0652 24.5014C12.2751 24.5014 12.4851 24.4189 12.6452 24.254C12.9656 23.9242 12.9656 23.3896 12.6452 23.0598L11.6814 22.0677L27.6989 8.58681C27.8894 8.42642 27.9999 8.18643 27.9999 7.93304V0.932696C27.9999 0.46634 27.6327 0.0882568 27.1796 0.0882568H20.3792C20.133 0.0882568 19.8999 0.202031 19.7441 0.398166L6.64847 16.8867L5.68466 15.8945C5.36435 15.5648 4.84493 15.5647 4.52457 15.8945C4.20421 16.2243 4.20421 16.759 4.52457 17.0887L11.4851 24.254C11.6453 24.419 11.8552 24.5014 12.0652 24.5014ZM22.8928 4.15142C23.2131 3.82164 23.7325 3.82164 24.0529 4.15142C24.3732 4.4812 24.3732 5.01584 24.0529 5.34562L9.74499 20.0743L8.5849 18.8801L22.8928 4.15142Z" fill="#000"/>
<path d="M5.13459 28.0049L8.97157 24.0551L4.71792 19.6763L0.880883 23.6262C-0.29375 24.8353 -0.29375 26.7958 0.880883 28.005C2.05552 29.2141 3.95995 29.2141 5.13459 28.0049Z" fill="#000"/>
<path d="M0.300994 8.58686L6.78622 14.045L9.31043 10.8668L3.94701 5.34562C3.62665 5.0159 3.62665 4.4812 3.94701 4.15142C4.26737 3.82164 4.78674 3.82164 5.1071 4.15142L10.3541 9.55279L12.9404 6.29652L8.25573 0.398166C8.09992 0.202031 7.86679 0.0882568 7.62064 0.0882568H0.820251C0.36722 0.0882568 -6.10352e-05 0.46634 -6.10352e-05 0.932696V7.93316C-6.10352e-05 8.18654 0.110462 8.42648 0.300994 8.58686Z" fill="#000"/>
<path d="M22.3152 15.8946L21.3514 16.8868L20.9819 16.4216L18.8058 18.2531L19.415 18.8802L18.2549 20.0744L17.5293 19.3274L15.2959 21.2071L16.3185 22.0677L15.3547 23.0599C15.0344 23.3896 15.0343 23.9243 15.3547 24.2541C15.675 24.5838 16.1944 24.5838 16.5147 24.2541L23.4753 17.0888C23.6355 16.9239 23.7156 16.7078 23.7156 16.4917C23.7156 16.2756 23.6355 16.0594 23.4753 15.8946C23.155 15.5648 22.6356 15.5648 22.3152 15.8946Z" fill="#000"/>
<defs>
<clipPath id="clip0">
<rect width="28" height="28.8235" fill="white" transform="translate(-6.10352e-05 0.0882568)"/>
</clipPath>
</defs>
</svg>