<svg width="24" height="23" viewBox="0 0 24 23" fill="none" xmlns="http://www.w3.org/2000/svg">
<path d="M20.991 0H17.5246C17.2907 0 17.1011 0.181723 17.1011 0.405858V2.43515H14.2742V0.405858C14.2742 0.181723 14.0845 0 13.8507 0H10.1471C9.91324 0 9.72362 0.181723 9.72362 0.405858V2.43515H6.89884V0.405858C6.89884 0.181723 6.70922 0 6.47534 0H3.00895C2.77507 0 2.58545 0.181723 2.58545 0.405858V4.76275C2.58778 5.86126 3.51647 6.75125 4.66274 6.75349H4.67121H19.3372C20.4834 6.75125 21.4121 5.86126 21.4145 4.76275V0.405858C21.4145 0.181723 21.2248 0 20.991 0Z" fill="black"/>
<path d="M18.9921 7.36023H5.01643L4.41717 20.3903V20.5161C4.41309 21.1355 4.63141 21.7374 5.03549 22.2207C5.40642 22.6779 5.96349 22.9615 6.56646 23H17.4442C18.0471 22.9615 18.6042 22.6779 18.9751 22.2207C19.3792 21.7374 19.5975 21.1355 19.5935 20.5161C19.5935 20.4918 19.5935 20.4492 19.5935 20.3903L18.9921 7.36023ZM15.2165 22.2086H8.78774V16.4941C8.78774 14.7911 10.2283 13.4106 12.0053 13.4106C13.7823 13.4106 15.2229 14.7911 15.2229 16.4941L15.2165 22.2086Z" fill="black"/>
</svg>
