<svg width="18" height="20" viewBox="0 0 18 20" fill="none" xmlns="http://www.w3.org/2000/svg">
<path d="M5.13501 2.28187C5.71689 2.4925 7.16251 3.03187 8.67814 3.6L9.53314 3.92062C10.315 4.21375 11.0763 4.5 11.7069 4.7375L12.0688 4.87375C12.7006 5.11187 13.1488 5.28125 13.2681 5.32687C13.7244 5.5025 13.9131 5.83687 13.8831 6.29125L13.8694 6.41812L11.4738 18.6969L10.8731 18.9544C10.5894 19.0756 10.2738 19.095 9.97939 19.0112L9.83439 18.9606L5.87876 17.325C5.48001 17.16 5.18814 16.8144 5.08814 16.4006L5.06251 16.26L4.42814 11.3825L1.99814 10.52C1.52314 10.3512 1.18314 9.93 1.11814 9.43L0.948764 8.12562C0.936264 8.03 0.945014 7.93687 0.970014 7.85062L0.946889 7.84437L0.985014 7.80562C1.05876 7.60875 1.22314 7.45187 1.43439 7.39437C1.44064 7.38937 1.44689 7.38375 1.45314 7.37875C2.04126 7.26937 2.83876 7.11625 3.84689 6.91937L3.46939 3.9625C3.40501 3.46 3.63001 2.96875 4.04189 2.6875L4.15876 2.61625L4.56376 2.39625C4.58376 2.3875 4.60626 2.37562 4.63064 2.36062C4.81626 2.24875 4.98439 2.22312 5.13439 2.2825L5.13501 2.28187ZM7.94939 0.965623L8.10189 1.00687L16.1413 3.6925C16.7563 3.89812 17.1294 4.51062 17.0444 5.14062L17.0194 5.27562L14.2113 16.9781C14.1231 17.3444 13.8863 17.6544 13.5613 17.8356L13.4356 17.8975L12.1975 18.4269C13.6556 10.9494 14.4406 6.88812 14.5525 6.24187C14.7231 5.255 14.0075 4.9975 13.5819 4.83437C13.2106 4.6925 7.87501 2.72625 6.32501 2.14125L6.09251 2.05312C5.99751 2.01687 5.93626 1.9925 5.91439 1.98312C5.76314 1.91562 5.60439 1.91125 5.43751 1.96937L7.03939 1.10125C7.31876 0.949373 7.64189 0.903123 7.95001 0.966873L7.94939 0.965623ZM5.57314 15.1162L5.67064 15.87L5.69189 15.9719C5.74001 16.1375 5.85064 16.2781 6.00001 16.3644L6.09376 16.4094L9.14814 17.5881L9.24314 17.6169C9.52626 17.6806 9.81939 17.5531 9.96626 17.3031L10.0144 17.2037L10.0338 17.1469L10.0413 17.1175L10.0475 17.0881L10.0944 16.84L5.57314 15.1156V15.1162ZM5.36876 13.5256L5.51001 14.6212L10.185 16.3656L10.3631 15.4312L5.36876 13.5256ZM5.12501 11.6312L5.30564 13.0344L10.4538 14.9537L10.6856 13.74L5.55189 11.7819L5.12501 11.6306V11.6312ZM10.8025 11.97C10.5081 12.18 10.1256 12.4531 9.65439 12.7894C9.64252 12.8031 9.63064 12.8162 9.61752 12.8287L10.7769 13.2606L11.0075 12.05L10.8025 11.9706V11.97ZM7.17314 9.73562L7.74876 10.8269L7.10876 11.5794L7.78689 11.8081L8.07689 11.3981L8.35439 11.985L9.02189 12.2112L8.40564 11.0356L9.00251 10.3431L8.35189 10.1275L8.08314 10.505L7.83814 9.95062L7.17251 9.735L7.17314 9.73562ZM6.28376 9.43125C6.09439 9.33875 5.87064 9.35625 5.69751 9.47625C5.54251 9.65312 5.47001 9.88875 5.49689 10.1231C5.48501 10.4019 5.55439 10.6781 5.69751 10.9169C5.83689 11.1256 6.04439 11.2781 6.28376 11.3481C6.47314 11.4419 6.69814 11.4256 6.87251 11.305C7.03189 11.13 7.11001 10.8944 7.08564 10.6581C7.09251 10.3819 7.01814 10.1094 6.87251 9.875C6.73251 9.66312 6.52439 9.50625 6.28376 9.43062V9.43125ZM6.24126 9.82937L6.28376 9.84312C6.37064 9.87312 6.44001 9.94125 6.47126 10.0287C6.51751 10.1719 6.53689 10.3225 6.52876 10.4731C6.54064 10.61 6.52127 10.7481 6.47126 10.8762C6.45439 10.9094 6.42439 10.9337 6.38939 10.9444C6.35439 10.955 6.31626 10.9506 6.28376 10.9325C6.19626 10.9056 6.12564 10.8381 6.09376 10.7512C6.04689 10.6062 6.02689 10.4531 6.03626 10.3006C6.02564 10.165 6.04501 10.0287 6.09376 9.90187C6.13126 9.83375 6.21501 9.80812 6.28376 9.84375L6.24126 9.83V9.82937ZM4.60064 8.87062C4.41126 8.7775 4.18689 8.795 4.01439 8.91562C3.86376 9.09062 3.79189 9.32125 3.81626 9.55187C3.80439 9.83 3.87314 10.1062 4.01439 10.3456C4.15314 10.5594 4.36001 10.7187 4.60064 10.7962C4.79126 10.8906 5.01751 10.8731 5.19126 10.7512C5.34564 10.5737 5.41814 10.3387 5.39189 10.1044C5.40501 9.82687 5.33501 9.55187 5.19126 9.315C5.05064 9.10312 4.84189 8.94625 4.60064 8.87062ZM4.41126 9.33C4.44876 9.26187 4.53314 9.23687 4.60126 9.27375C4.68939 9.30187 4.75939 9.36937 4.79126 9.45687C4.83564 9.60062 4.85439 9.75062 4.84689 9.90125C4.85564 10.035 4.83689 10.1694 4.79126 10.2956C4.75376 10.3637 4.67001 10.3894 4.60126 10.3537C4.51439 10.3244 4.44439 10.2575 4.41126 10.1706C4.36689 10.0275 4.34814 9.87812 4.35564 9.72875C4.34626 9.59312 4.36501 9.4575 4.41126 9.33ZM2.38501 8.16312L2.20814 9.11L2.69626 9.29312C2.72126 9.26875 2.75376 9.25375 2.78814 9.25C2.82939 9.2475 2.87064 9.25562 2.90751 9.27375C2.97689 9.29625 3.03689 9.34062 3.07814 9.40125C3.12376 9.46375 3.14689 9.53937 3.14439 9.61687C3.15126 9.67687 3.12626 9.73625 3.07814 9.77187C3.02001 9.80312 2.95064 9.80312 2.89251 9.77187C2.77814 9.73625 2.68876 9.64562 2.65376 9.53062L2.13314 9.4075C2.16876 9.58937 2.25626 9.75625 2.38501 9.88875C2.52501 10.0344 2.69751 10.1437 2.88814 10.2081C3.06814 10.2875 3.27189 10.2925 3.45564 10.2212C3.60689 10.135 3.69126 9.96437 3.66876 9.79C3.67376 9.61562 3.61751 9.44562 3.51126 9.30875C3.39876 9.16625 3.24626 9.06062 3.07439 9.00687C3.00501 8.985 2.93376 8.97062 2.86126 8.96375C2.80689 8.95625 2.75126 8.95625 2.69689 8.96375L2.74814 8.72437L3.52626 8.98125V8.55L2.38501 8.16375V8.16312ZM4.28876 4.1325L4.24501 4.23375L4.21939 4.3325L4.20939 4.43375L4.21439 4.53562L4.52439 6.9525L10.6194 8.88437C10.9894 8.99062 11.3025 9.08687 11.5581 9.17312L12.0125 6.785L12.0238 6.68687C12.0344 6.42687 11.8931 6.18312 11.6613 6.06437L11.5706 6.02562L5.09439 3.81625L4.99814 3.79125C4.71251 3.73875 4.42439 3.87812 4.28814 4.13312L4.28876 4.1325Z" fill="#686F78"/>
</svg>
