<svg width="16" height="12" viewBox="0 0 16 12" fill="none" xmlns="http://www.w3.org/2000/svg">
<path d="M8.37562 8.72252H7.62563C6.06813 8.35002 4.26312 8.42252 2.32812 8.72252V9.33752L3.07812 9.48002C3.07812 9.48002 3.07812 11.75 5.34812 11.75C6.87813 11.75 7.37563 10.3775 7.53813 9.48002H8.45312C8.61562 10.3775 9.11313 11.75 10.6431 11.75C12.9131 11.75 12.9131 9.48002 12.9131 9.48002L13.6631 9.33752V8.72252C11.7656 8.41752 9.97312 8.35752 8.37562 8.72252Z" fill="#686F78"/>
<path d="M15.262 5.69752H0.749531C0.415531 5.69752 0.144531 5.96852 0.144531 6.30252C0.144531 6.63652 0.415531 6.90752 0.749531 6.90752C2.93103 7.22002 5.45053 7.39852 8.01203 7.39852C10.5735 7.39852 13.0925 7.22002 15.559 6.87452L15.2745 6.90702C15.6085 6.90702 15.8795 6.63602 15.8795 6.30202C15.8795 5.96802 15.6085 5.69702 15.2745 5.69702L15.262 5.69752Z" fill="#686F78"/>
<path d="M11.9462 1.355C11.7587 0.712 11.1742 0.25 10.4822 0.25C10.4817 0.25 10.4818 0.25 10.4812 0.25H5.51625C5.51575 0.25 5.51575 0.25 5.51525 0.25C4.82325 0.25 4.23875 0.712 4.05375 1.344L4.05125 1.355L3.15625 4.5H12.8412L11.9462 1.355Z" fill="#686F78"/>
</svg>
