<svg width="18" height="16" viewBox="0 0 18 16" fill="none" xmlns="http://www.w3.org/2000/svg">
<path d="M13.82 0.504985L17.2263 7.28623C17.3744 7.73561 17.2769 8.11811 16.9344 8.43498C16.4207 8.90998 15.5588 10.0231 15.3263 11.0631C15.1713 11.7562 15.0932 12.815 15.0919 14.2381C15.035 15.2481 13.8282 15.6931 11.4725 15.5731C11.5863 13.9106 11.715 12.6225 11.8582 11.7087C12.5475 11.0062 13.035 10.2719 13.3213 9.50624C13.5807 9.02124 13.66 6.94186 13.56 3.26749C13.3525 3.26749 13.1844 3.09936 13.1844 2.89186C13.1844 2.87561 13.1857 2.85936 13.1875 2.84311L13.485 0.56186C13.4975 0.46436 13.5869 0.396235 13.6844 0.408735C13.7432 0.416235 13.7938 0.452485 13.82 0.504985Z" fill="#686F78"/>
<path d="M4.18005 0.504985L0.7738 7.28623C0.625675 7.73561 0.723175 8.11811 1.06567 8.43498C1.57942 8.90998 2.4413 10.0231 2.6738 11.0631C2.8288 11.7562 2.90692 12.815 2.90817 14.2381C2.96505 15.2481 4.17192 15.6931 6.52755 15.5731C6.4138 13.9106 6.28505 12.6225 6.14192 11.7087C5.45255 11.0062 4.96505 10.2719 4.6788 9.50624C4.41943 9.02124 4.34005 6.94186 4.44005 3.26749C4.64755 3.26749 4.81567 3.09936 4.81567 2.89186C4.81567 2.87561 4.81442 2.85936 4.81255 2.84311L4.51505 0.56186C4.50255 0.46436 4.41317 0.396235 4.31567 0.408735C4.25692 0.416235 4.2063 0.452485 4.18005 0.504985Z" fill="#686F78"/>
<path d="M5.43195 1.24936L5.67445 2.76874C5.72008 3.05624 5.9682 3.26749 6.25945 3.26749H11.582C11.8701 3.26749 12.1163 3.05999 12.1657 2.77561L12.4276 1.25624C12.4832 0.933735 12.267 0.627485 11.9445 0.57186C11.9113 0.566235 11.8776 0.56311 11.8438 0.56311H6.01633C5.68883 0.56311 5.42383 0.82811 5.42383 1.15561C5.42383 1.18686 5.42633 1.21811 5.43133 1.24874L5.43195 1.24936Z" fill="#686F78"/>
<path d="M5.58815 4.89499V7.91937C5.93565 10.2037 6.9594 11.495 8.66065 11.7931C9.03815 11.7931 11.9975 11.9481 12.4594 7.98999C12.4594 6.95812 12.4594 5.92687 12.4594 4.89499C12.4594 4.56749 12.1944 4.30249 11.8669 4.30249H6.18002C5.85252 4.30249 5.58752 4.56749 5.58752 4.89499H5.58815Z" fill="#686F78"/>
</svg>
