<svg width="18" height="14" viewBox="0 0 18 14" fill="none" xmlns="http://www.w3.org/2000/svg">
<path d="M4.96063 0.431885C5.40813 0.43876 7.99875 0.50126 12.7325 0.61876C13.0538 0.609385 13.2494 0.73501 13.3188 0.99626C13.4231 1.38813 14.9313 6.49314 17.6731 9.01939C17.8575 9.33751 17.7138 9.58251 17.2406 9.75564L4.9 13.5525C4.51313 13.6294 4.31938 13.4438 4.31938 12.995C4.31938 12.9431 4.32188 12.8719 4.32688 12.7831C5.155 12.6 6.00313 12.21 6.75875 11.6188C8.41125 10.3831 9.00063 8.74126 8.86625 7.38688C9.2575 7.66813 9.765 7.96001 10.3875 8.26251C11.4869 7.33688 12.16 6.57438 12.4069 5.97563C12.7769 5.07813 12.5988 4.40563 11.8331 4.05376C11.3225 3.81876 10.745 4.07626 10.1006 4.82626C9.32688 4.21688 8.68063 4.10376 8.1625 4.48688C7.975 4.62563 7.84125 4.77063 7.75375 4.92126L7.70625 5.01188L7.61125 4.91751C6.78125 4.12751 5.76 3.85376 4.73438 3.93251C4.72188 3.09563 4.70188 2.19563 4.67563 1.23376C4.64563 0.69876 4.72063 0.431885 4.89938 0.431885L4.95938 0.43251L4.96063 0.431885ZM7.08 5.18001C7.25125 5.32938 7.49375 5.61251 7.80625 6.02938C8.83688 7.34876 8.24313 9.71813 6.40813 11.1519C4.57313 12.5856 2.13688 12.5363 1.10563 11.2169L1.09063 11.1969L0.790628 10.8131C0.755628 10.7713 0.721878 10.7281 0.690003 10.6831C-0.267497 9.34001 0.382504 7.00313 2.16438 5.60876C3.83313 4.30251 5.96875 4.11438 7.07938 5.18001H7.08ZM4.8175 10.1588L4.64813 10.2406C4.25188 10.4188 3.84688 10.5138 3.46625 10.5238L3.22125 11.3669L3.41938 11.3563C3.885 11.3181 4.3725 11.19 4.85 10.9713L5.05375 10.8719L4.81688 10.1588H4.8175ZM1.68438 9.39501L0.804379 9.83626C0.879378 10.0756 0.994378 10.3 1.15188 10.5013C1.2775 10.6625 1.42438 10.8006 1.5875 10.9169L1.71313 10.9994L2.35438 10.2525L2.23938 10.1756C2.12813 10.0938 2.0275 9.99751 1.94 9.88564C1.8525 9.77376 1.78375 9.65314 1.73125 9.52501L1.68438 9.39438V9.39501ZM7.49313 8.02876L6.61563 8.06251C6.51375 8.42939 6.32438 8.79938 6.055 9.14063L5.935 9.28501L6.57 9.68688L6.71563 9.51313C7.04313 9.10251 7.28563 8.66063 7.435 8.21813L7.49313 8.02876ZM1.73688 6.62626C1.335 7.08438 1.0425 7.58939 0.871878 8.09501L0.813753 8.28438L1.69125 8.25063L1.74 8.09313C1.84875 7.77876 2.02063 7.46501 2.25125 7.17188L2.37125 7.02751L1.73625 6.62563L1.73688 6.62626ZM6.59313 5.31376L5.95188 6.06063L6.06688 6.13751C6.17813 6.21938 6.27875 6.31563 6.36625 6.42751C6.45375 6.53938 6.5225 6.66001 6.575 6.78813L6.62188 6.91876L7.50188 6.47751L7.45188 6.33563C7.37875 6.14938 7.28 5.97313 7.15438 5.81251C6.99688 5.61126 6.8075 5.44501 6.59313 5.31438V5.31376ZM5.085 4.94751L4.88688 4.95813C4.355 5.00126 3.79438 5.16313 3.2525 5.44188L3.48938 6.15501L3.65875 6.07313C3.99875 5.92001 4.34438 5.82876 4.67625 5.80001L4.84063 5.79063L5.08563 4.94751H5.085ZM5.89125 1.42938C5.84938 1.88938 5.7875 2.42751 5.71063 2.90563L5.65 3.25063H6.21563L6.22 3.18751C6.22313 3.13188 6.225 3.06313 6.22813 3.01126L6.23188 2.96626H6.58L6.60563 3.04751C6.625 3.10938 6.6475 3.18001 6.66125 3.22313C6.84125 3.23126 7.0275 3.23126 7.18188 3.22313C7.08375 2.82751 6.97813 2.42938 6.86688 2.03251L6.69563 1.43813L5.89125 1.42938ZM6.28625 1.99313L6.35188 1.99438C6.39188 2.12813 6.43313 2.26938 6.46813 2.41563L6.51563 2.63688H6.475L6.21563 2.63751L6.28688 1.99313H6.28625Z" fill="#686F78"/>
</svg>
