<svg width="20" height="16" viewBox="0 0 20 16" fill="none" xmlns="http://www.w3.org/2000/svg">
<path d="M10.4695 11.4032H9.53203C7.58516 10.9375 5.32891 11.0282 2.91016 11.4032V12.1719L3.84766 12.35C3.84766 12.35 3.84766 15.1875 6.68516 15.1875C8.59766 15.1875 9.21953 13.4719 9.42266 12.35H10.5664C10.7695 13.4719 11.3914 15.1875 13.3039 15.1875C16.1414 15.1875 16.1414 12.35 16.1414 12.35L17.0789 12.1719V11.4032C14.707 11.0219 12.4664 10.9469 10.4695 11.4032Z" fill="#72777A"/>
<path d="M19.0775 7.62187H0.936914C0.519414 7.62187 0.180664 7.96062 0.180664 8.37812C0.180664 8.79562 0.519414 9.13437 0.936914 9.13437C3.66379 9.525 6.81316 9.74812 10.015 9.74812C13.2169 9.74812 16.3657 9.525 19.4488 9.09312L19.0932 9.13375C19.5107 9.13375 19.8494 8.795 19.8494 8.3775C19.8494 7.96 19.5107 7.62125 19.0932 7.62125L19.0775 7.62187Z" fill="#72777A"/>
<path d="M14.9328 2.19375C14.6984 1.39 13.9678 0.8125 13.1028 0.8125C13.1022 0.8125 13.1022 0.8125 13.1016 0.8125H6.89531C6.89469 0.8125 6.89469 0.8125 6.89406 0.8125C6.02906 0.8125 5.29844 1.39 5.06719 2.18L5.06406 2.19375L3.94531 6.125H16.0516L14.9328 2.19375Z" fill="#72777A"/>
</svg>
