<svg width="24" height="24" viewBox="0 0 24 24" fill="none" xmlns="http://www.w3.org/2000/svg">
<path d="M18.5 10C18.5 11.2457 18.1783 12.4363 17.7197 13.2951C17.4903 13.7246 17.2411 14.0442 17.0073 14.2473C16.7708 14.4528 16.5981 14.5 16.5 14.5V16C17.0769 16 17.5855 15.732 17.9911 15.3796C18.3996 15.0247 18.7535 14.5435 19.0428 14.0017C19.6217 12.9176 20 11.4832 20 10H18.5ZM16.5 14.5C16.4019 14.5 16.2292 14.4528 15.9927 14.2473C15.7589 14.0442 15.5097 13.7246 15.2803 13.2951C14.8217 12.4363 14.5 11.2457 14.5 10H13C13 11.4832 13.3783 12.9176 13.9572 14.0017C14.2465 14.5435 14.6004 15.0247 15.0089 15.3796C15.4145 15.732 15.9231 16 16.5 16V14.5ZM14.5 10C14.5 8.75425 14.8217 7.5637 15.2803 6.70495C15.5097 6.27539 15.7589 5.95579 15.9927 5.75271C16.2292 5.54717 16.4019 5.5 16.5 5.5V4C15.9231 4 15.4145 4.26797 15.0089 4.62041C14.6004 4.9753 14.2465 5.45652 13.9572 5.99835C13.3783 7.08237 13 8.51681 13 10H14.5ZM16.5 5.5C16.5981 5.5 16.7708 5.54717 17.0073 5.75271C17.2411 5.95579 17.4903 6.27539 17.7197 6.70495C18.1783 7.5637 18.5 8.75425 18.5 10H20C20 8.51681 19.6217 7.08237 19.0428 5.99835C18.7535 5.45652 18.3996 4.9753 17.9911 4.62041C17.5855 4.26797 17.0769 4 16.5 4V5.5Z" fill="#686F78"/>
<path d="M7.1819 12.5224C6.8853 12.4482 6.45686 12.1797 6.09498 11.7081C5.74322 11.2498 5.5 10.6568 5.5 10H4C4 11.0325 4.38178 11.9396 4.90502 12.6214C5.41814 13.29 6.1147 13.8018 6.8181 13.9776L7.1819 12.5224ZM5.5 10C5.5 9.34319 5.74322 8.75022 6.09498 8.29186C6.45686 7.82031 6.8853 7.55176 7.1819 7.47761L6.8181 6.02239C6.1147 6.19824 5.41814 6.71001 4.90502 7.37864C4.38178 8.06044 4 8.96746 4 10H5.5ZM6.8181 13.9776C7.33691 14.1073 9.73399 14.6117 11.972 15.078C13.0975 15.3125 14.1917 15.5391 15.0044 15.7071C15.4108 15.7911 15.7468 15.8605 15.9813 15.9089C16.0985 15.933 16.1904 15.952 16.2529 15.9649C16.2842 15.9713 16.3082 15.9762 16.3243 15.9796C16.3324 15.9812 16.3385 15.9825 16.3426 15.9833C16.3446 15.9837 16.3462 15.9841 16.3472 15.9843C16.3477 15.9844 16.3481 15.9845 16.3484 15.9845C16.3485 15.9845 16.3486 15.9846 16.3487 15.9846C16.3487 15.9846 16.3488 15.9846 16.5 15.25C16.6512 14.5154 16.6512 14.5154 16.6511 14.5154C16.6511 14.5154 16.651 14.5154 16.6509 14.5153C16.6506 14.5153 16.6502 14.5152 16.6497 14.5151C16.6487 14.5149 16.6471 14.5146 16.6451 14.5141C16.641 14.5133 16.6349 14.512 16.6269 14.5104C16.6108 14.5071 16.5869 14.5022 16.5557 14.4957C16.4932 14.4828 16.4015 14.4639 16.2843 14.4398C16.05 14.3915 15.7142 14.3221 15.3081 14.2382C14.4958 14.0703 13.4025 13.8438 12.278 13.6095C10.016 13.1383 7.66309 12.6427 7.1819 12.5224L6.8181 13.9776ZM7.1819 7.47761C7.66309 7.35731 10.016 6.86173 12.278 6.39049C13.4025 6.15621 14.4958 5.92974 15.3081 5.76181C15.7142 5.67786 16.05 5.60854 16.2843 5.56022C16.4015 5.53606 16.4932 5.51715 16.5557 5.50428C16.5869 5.49785 16.6108 5.49292 16.6269 5.48961C16.6349 5.48795 16.641 5.4867 16.6451 5.48586C16.6471 5.48544 16.6487 5.48512 16.6497 5.48491C16.6502 5.4848 16.6506 5.48472 16.6509 5.48467C16.651 5.48464 16.6511 5.48463 16.6511 5.48461C16.6512 5.4846 16.6512 5.48459 16.5 4.75C16.3488 4.01541 16.3487 4.01541 16.3487 4.01543C16.3486 4.01544 16.3485 4.01546 16.3484 4.01549C16.3481 4.01554 16.3477 4.01562 16.3472 4.01573C16.3462 4.01594 16.3446 4.01626 16.3426 4.01668C16.3385 4.01753 16.3324 4.01879 16.3243 4.02045C16.3082 4.02377 16.2842 4.0287 16.2529 4.03515C16.1904 4.04803 16.0985 4.06696 15.9813 4.09114C15.7468 4.1395 15.4108 4.20886 15.0044 4.29287C14.1917 4.46089 13.0975 4.68754 11.972 4.92201C9.73399 5.38827 7.33691 5.89269 6.8181 6.02239L7.1819 7.47761Z" fill="#686F78"/>
<path d="M6 13.5V17.25H7.5V13.5H6ZM8.75 20H9.25V18.5H8.75V20ZM12 17.25V14.5H10.5V17.25H12ZM9.25 20C10.7688 20 12 18.7688 12 17.25H10.5C10.5 17.9404 9.94036 18.5 9.25 18.5V20ZM6 17.25C6 18.7688 7.23122 20 8.75 20V18.5C8.05964 18.5 7.5 17.9404 7.5 17.25H6Z" fill="#686F78"/>
</svg>
