<svg id="Layer_1" data-name="Layer 1" xmlns="http://www.w3.org/2000/svg" viewBox="0 0 41.51 42.34">
  <defs>
    <style>
      .cls-1 {
        fill: #39f;
      }
    </style>
  </defs>
  <title>arrow-bold-up-blue</title>
  <path class="cls-1" d="M21.78,1.5,1.94,19.91a.91.91,0,0,0,.56,1.63H42.18a.91.91,0,0,0,.56-1.63L22.9,1.5A.9.9,0,0,0,21.78,1.5Z" transform="translate(-1.58 -1.31)"/>
  <path class="cls-1" d="M10.63,16.13H30.87a0,0,0,0,1,0,0V40.66a1.68,1.68,0,0,1-1.68,1.68H12.31a1.68,1.68,0,0,1-1.68-1.68V16.13a0,0,0,0,1,0,0Z"/>
</svg>
