<svg xmlns="http://www.w3.org/2000/svg" xmlns:xlink="http://www.w3.org/1999/xlink" version="1.1" id="Layer_1" x="0px" y="0px" style="enable-background:new 0 0 56 56;" xml:space="preserve" viewBox="0 0 49.1 55.1"><style type="text/css">	.st0{clip-path:url(#SVGID_2_);}	.st1{fill:#FBFCFC;}	.st2{fill:#FFE46D;}	.st3{fill:#607D8B;}	.st4{fill:#455A64;}</style><g id="Layer_1_1_">	<g>		<g>			<defs>				<polygon id="SVGID_1_" points="11.7,0 49.1,14.7 43.5,55.1 0,43.5     "></polygon>			</defs>			<clipPath id="SVGID_2_">				<use xlink:href="#SVGID_1_" style="overflow:visible;"></use>			</clipPath>			<g class="st0">				<path class="st1" d="M40.3,21.4c-0.1,0-0.3-0.1-0.4-0.2c-1.8-1.6-0.8-8.8-3-9.3c-1.6-0.7-3.5-0.2-4.5,1.2      c-0.4,0.4-1,0.4-1.4,0.1c-0.4-0.3-0.4-0.9-0.1-1.3c1.5-2.1,4.1-2.9,6.5-2c3,0.8,3.1,9.2,3.8,9.8c0.4,0.4,0.4,1,0.1,1.4      C41,21.4,40.6,21.5,40.3,21.4z"></path>				<path class="st2" d="M38.7,27.1c-0.5-0.1-0.8-0.7-0.7-1.2l0.5-1.9c0.1-0.5,0.7-0.8,1.2-0.7c0.5,0.1,0.8,0.7,0.7,1.2l-0.5,1.9      C39.8,26.9,39.3,27.2,38.7,27.1z"></path>				<path class="st2" d="M41.3,17.6c-0.5-0.1-0.8-0.7-0.7-1.2l0.5-1.9c0.1-0.5,0.7-0.8,1.2-0.7s0.8,0.7,0.7,1.2l-0.5,1.9      C42.3,17.4,41.8,17.7,41.3,17.6z"></path>				<path class="st2" d="M43.2,26.5c-0.3-0.1-0.5-0.2-0.6-0.5l-1-1.7c-0.3-0.5-0.1-1.1,0.4-1.3c0.5-0.3,1-0.1,1.3,0.4l1,1.7      c0.3,0.5,0.1,1.1-0.4,1.3C43.7,26.5,43.4,26.5,43.2,26.5L43.2,26.5z"></path>				<path class="st2" d="M45.9,22.9L44,22.4c-0.5-0.1-0.8-0.7-0.7-1.2s0.7-0.8,1.2-0.7l1.9,0.5c0.5,0.1,0.8,0.7,0.7,1.2      C47,22.7,46.4,23,45.9,22.9z"></path>				<path class="st2" d="M43.6,19.4c-0.5-0.1-0.8-0.7-0.7-1.2c0.1-0.3,0.2-0.5,0.5-0.6l1.7-1c0.5-0.3,1.1-0.1,1.3,0.4      c0.3,0.5,0.1,1-0.4,1.3l-1.7,1C44.2,19.5,43.9,19.5,43.6,19.4z"></path>				<path class="st3" d="M37,16.8c-2.8-3.3-6.6-5.7-10.8-6.8c-0.4-0.1-0.8,0.1-1.1,0.4l-2.9,4.4c-0.2,0.3-0.2,0.6-0.1,0.9      c0.1,0.3,0.4,0.5,0.7,0.6c3.8,0.6,7.2,2.7,9.5,5.7c0.1,0.2,0.3,0.3,0.5,0.4c0.4,0.1,0.8,0,1-0.3l3.1-4      C37.3,17.6,37.3,17.1,37,16.8z"></path>				<path class="st4" d="M25,14.7c-8.9-2.4-18,2.9-20.4,11.8s2.9,18,11.8,20.4s18-2.9,20.4-11.8C39.1,26.2,33.8,17.1,25,14.7z"></path>				<path class="st3" d="M9.1,28.7c-0.5-0.1-0.8-0.7-0.7-1.2c1.8-6.8,8.8-10.8,15.6-9c0.5,0.1,0.8,0.7,0.7,1.2      c-0.1,0.5-0.7,0.8-1.2,0.7c-5.7-1.5-11.6,1.9-13.2,7.6C10.1,28.5,9.6,28.8,9.1,28.7z"></path>				<path class="st2" d="M35.2,24.3c-0.5-0.1-0.8-0.7-0.7-1.2c0.1-0.3,0.2-0.5,0.5-0.6l1.7-1c0.5-0.3,1.1-0.1,1.3,0.3      c0.3,0.5,0.1,1.1-0.3,1.3l0,0l-1.7,1C35.7,24.3,35.4,24.4,35.2,24.3z"></path>			</g>		</g>	</g></g></svg>