<svg id="Layer_1" data-name="Layer 1" xmlns="http://www.w3.org/2000/svg" viewBox="0 0 13.78 15.02">
  <defs>
    <style>
      .cls-1 {
        fill: #686f78;
      }
    </style>
  </defs>
  <title>bomb-gray</title>
  <path class="cls-1" d="M15.31,9.34a6.33,6.33,0,0,1-12.66,0,6.17,6.17,0,0,1,.92-3.27A6.27,6.27,0,0,1,7.49,3.19,6.14,6.14,0,0,1,9,3,6.32,6.32,0,0,1,15.31,9.34Z" transform="translate(-1.53 -0.65)"/>
  <path class="cls-1" d="M7.18,2.83A6.27,6.27,0,0,0,3.26,5.71a.58.58,0,0,1-.11-.15l-.56-1a.88.88,0,0,1,.32-1.2L5.6,1.84a.87.87,0,0,1,1.19.32Z" transform="translate(-1.53 -0.65)"/>
  <path class="cls-1" d="M4,1.84a4,4,0,0,0-.53-.69A1.17,1.17,0,0,0,2.15.74a1.45,1.45,0,0,0-.61.89.38.38,0,0,0,.27.46.39.39,0,0,0,.46-.26.5.5,0,0,1,0-.13s0,0,0,0,0,.05,0,0l.09-.18s.07-.09,0,0,0,0,0,0l0,0s-.09.05,0,0l0,0,0,0c-.1.06-.07,0,0,0h0c.05,0-.08,0-.06,0h.06c.05,0,.08,0,0,0h.11c.08,0-.09,0,0,0l.11.05.06,0,0,0,0,0,.2.18.18.21,0,0c.06.06-.06-.08,0,0L3.23,2l.14.22A.38.38,0,1,0,4,1.84Z" transform="translate(-1.53 -0.65)"/>
</svg>
