<svg id="Layer_1" data-name="Layer 1" xmlns="http://www.w3.org/2000/svg" xmlns:xlink="http://www.w3.org/1999/xlink" viewBox="0 0 68 97">
  <defs>
    <style>
      .cls-1 {
        fill: #fbfff9;
      }

      .cls-2 {
        fill: #fe0034;
      }

      .cls-3 {
        fill: none;
      }
    </style>
  </defs>
  <title>default-card</title>
  <g>
    <path class="cls-1" d="M3.52.62H65.3a3,3,0,0,1,3.11,2.82V94.8a3,3,0,0,1-3.11,2.82H3.52A3,3,0,0,1,.41,94.8V3.44A3,3,0,0,1,3.52.62Z" transform="translate(-0.41 -0.62)"/>
    <path class="cls-2" d="M5.58,3.19H63.25a2.23,2.23,0,0,1,2.33,2.12V92.94a2.22,2.22,0,0,1-2.33,2.11H5.58a2.22,2.22,0,0,1-2.33-2.11V5.31A2.23,2.23,0,0,1,5.58,3.19Z" transform="translate(-0.41 -0.62)"/>
    <ellipse class="cls-1" cx="7.08" cy="6.42" rx="1.42" ry="1.28"/>
    <ellipse class="cls-1" cx="60.92" cy="6.42" rx="1.42" ry="1.28"/>
    <ellipse class="cls-1" cx="60.92" cy="90.58" rx="1.42" ry="1.28"/>
    <ellipse class="cls-1" cx="7.08" cy="90.58" rx="1.42" ry="1.28"/>
    <rect class="cls-3" x="14.17" y="32.12" width="39.67" height="31.48"/>
  </g>
  <image width="1415" height="1279" transform="translate(16.39 32.58) scale(0.02)" xlink:href="../../../../633ee86dc431fccb61691e1f24932fe1.png"/>
</svg>
