<svg id="Layer_1" data-name="Layer 1" xmlns="http://www.w3.org/2000/svg" viewBox="0 0 120.71 114.15">
  <defs>
    <style>
      .cls-1 {
        fill: #f4f4f4;
        stroke: #686868;
        stroke-miterlimit: 10;
        stroke-width: 7px;
      }
    </style>
  </defs>
  <title>dice-arrow</title>
  <path class="cls-1" d="M105.05,45.78v29.1a7.78,7.78,0,0,0,7.78,7.78h4.22a7.78,7.78,0,0,1,5.51,13.28L76.67,141.83a11.3,11.3,0,0,1-16,0L13.43,94.59a7.79,7.79,0,0,1,5.5-13.29h2.49a7.78,7.78,0,0,0,7.78-7.78V45.78A7.78,7.78,0,0,1,37,38H97.27A7.78,7.78,0,0,1,105.05,45.78Z" transform="translate(-7.64 -34.5)"/>
</svg>
