<svg width="20" height="14" viewBox="0 0 20 14" fill="none" xmlns="http://www.w3.org/2000/svg">
<g opacity="0.4" clip-path="url(#clip0_108_5770)">
<path d="M17.5321 1.74818C15.0814 -0.0501919 12.7335 0.000351475 12.7335 0.000351475L12.4935 0.269216C15.4069 1.12635 16.7609 2.38679 16.7609 2.38679C12.5925 0.136252 7.28323 0.152401 2.94764 2.38679C2.94764 2.38679 4.35291 1.05903 7.43785 0.201895L7.26654 0.000141467C7.26654 0.000141467 4.93568 -0.0501919 2.46795 1.74797C2.46795 1.74797 0 6.10078 0 11.4621C0 11.4621 1.43971 13.8823 5.22717 14C5.22717 14 5.86127 13.2605 6.37539 12.6219C4.19893 11.9833 3.37621 10.6555 3.37621 10.6555C4.74363 11.4946 6.12624 12.0198 7.84931 12.353C10.6526 12.9189 14.1396 12.3371 16.744 10.6555C16.744 10.6555 15.887 12.0169 13.6419 12.6387C14.1561 13.2605 14.773 13.9832 14.773 13.9832C18.5605 13.8656 20 11.4454 20 11.4623C19.9998 6.10099 17.5321 1.74818 17.5321 1.74818ZM6.80375 9.89928C5.84395 9.89928 5.05566 9.0757 5.05566 8.05057C5.1258 5.59534 8.49924 5.60289 8.55184 8.05057C8.55184 9.0757 7.78045 9.89928 6.80375 9.89928ZM13.0589 9.89928C12.0991 9.89928 11.3109 9.0757 11.3109 8.05057C11.3878 5.60017 14.7191 5.59912 14.807 8.05057C14.807 9.0757 14.0359 9.89928 13.0589 9.89928Z" fill="#EFFAFB"/>
</g>
<defs>
<clipPath id="clip0_108_5770">
<rect width="20" height="14" fill="white"/>
</clipPath>
</defs>
</svg>
