<svg width="14" height="14" viewBox="0 0 14 14" fill="none" xmlns="http://www.w3.org/2000/svg">
<path d="M1.54642 10.9343V12.399H12.4371V10.9343H1.54642ZM1.54642 2.91241H3.07638C3.03251 2.81022 2.99138 2.68532 2.953 2.53771C2.91461 2.39011 2.89542 2.24818 2.89542 2.11192C2.89542 1.52149 3.09557 1.0219 3.49589 0.613139C3.8962 0.20438 4.37603 0 4.93537 0C5.28633 0 5.61261 0.0908353 5.91422 0.272506C6.21582 0.454177 6.45437 0.686942 6.62985 0.970803L7.00823 1.53285L7.37015 0.970803C7.5566 0.675588 7.79514 0.439984 8.08578 0.26399C8.37642 0.0879967 8.68625 0 9.01528 0C9.58559 0 10.0736 0.20438 10.4794 0.613139C10.8852 1.0219 11.0881 1.52717 11.0881 2.12895C11.0881 2.2425 11.0744 2.36456 11.047 2.49513C11.0196 2.62571 10.9785 2.7648 10.9236 2.91241H12.4371C12.8649 2.91241 13.2323 3.07137 13.5394 3.38929C13.8465 3.70722 14 4.08759 14 4.53041V12.399C14 12.8418 13.8465 13.2194 13.5394 13.5316C13.2323 13.8439 12.8649 14 12.4371 14H1.54642C1.11868 14 0.754015 13.8439 0.452409 13.5316C0.150803 13.2194 0 12.8418 0 12.399V4.53041C0 4.08759 0.150803 3.70722 0.452409 3.38929C0.754015 3.07137 1.11868 2.91241 1.54642 2.91241ZM1.54642 8.72019H12.4371V4.53041H8.83431L10.2491 6.6253L9.2785 7.35766L6.99177 3.95134L4.70505 7.35766L3.73443 6.6253L5.18214 4.53041H1.54642V8.72019ZM4.95182 3.0146C5.19311 3.0146 5.39875 2.9266 5.56874 2.75061C5.73874 2.57462 5.82374 2.36172 5.82374 2.11192C5.82374 1.87348 5.73874 1.66342 5.56874 1.48175C5.39875 1.30008 5.19311 1.20925 4.95182 1.20925C4.71054 1.20925 4.5049 1.30008 4.3349 1.48175C4.1649 1.66342 4.07991 1.87348 4.07991 2.11192C4.07991 2.36172 4.1649 2.57462 4.3349 2.75061C4.5049 2.9266 4.71054 3.0146 4.95182 3.0146ZM9.01528 3.0146C9.26753 3.0146 9.47865 2.9266 9.64865 2.75061C9.81864 2.57462 9.90364 2.36172 9.90364 2.11192C9.90364 1.87348 9.81864 1.66342 9.64865 1.48175C9.47865 1.30008 9.26753 1.20925 9.01528 1.20925C8.78496 1.20925 8.5848 1.30008 8.41481 1.48175C8.24481 1.66342 8.15981 1.87348 8.15981 2.11192C8.15981 2.36172 8.24481 2.57462 8.41481 2.75061C8.5848 2.9266 8.78496 3.0146 9.01528 3.0146Z" fill="#15C456"/>
</svg>
