<svg width="16" height="16" viewBox="0 0 16 16" fill="none" xmlns="http://www.w3.org/2000/svg">
<path d="M8.71349 0.713391C4.96949 0.734891 1.89149 3.55889 1.46999 7.19239L1.46699 7.22639H0.0604858L2.52699 10.7264L5.00049 7.22639H3.70049C4.09399 4.78589 6.18499 2.94489 8.70599 2.94489C11.504 2.94489 13.7725 5.21339 13.7725 8.01139C13.7725 10.8094 11.504 13.0779 8.70599 13.0779C7.43349 13.0779 6.27099 12.6089 5.38099 11.8344L5.38699 11.8394L3.94049 13.5059C5.21149 14.6119 6.88299 15.2859 8.71249 15.2859C12.737 15.2859 15.999 12.0234 15.999 7.99939C15.999 3.97539 12.7375 0.713391 8.71349 0.712891V0.713391Z" fill="#686F78"/>
<path d="M7.60648 4.90625V8.45975L10.28 11.1333L11.8465 9.56675L9.81998 7.54025V4.90675H7.60648V4.90625Z" fill="#686F78"/>
</svg>
