<svg id="Layer_1" data-name="Layer 1" xmlns="http://www.w3.org/2000/svg" viewBox="0 0 30.59 30.59">
  <defs>
    <style>
      .cls-1 {
        fill: #fff;
      }
    </style>
  </defs>
  <title>hover-circle-poker</title>
  <path class="cls-1" d="M17.61,3.59V.19A16.23,16.23,0,0,0,15.3,0,16.09,16.09,0,0,0,13,.19v3.4Z"/>
  <path class="cls-1" d="M8.65,5.38,6.25,3A16.9,16.9,0,0,0,4.48,4.5,16.49,16.49,0,0,0,3,6.25l2.4,2.4Z"/>
  <path class="cls-1" d="M3.59,13H.19A16.09,16.09,0,0,0,0,15.3a16.23,16.23,0,0,0,.19,2.31h3.4Z"/>
  <path class="cls-1" d="M5.38,21.94,3,24.34a14.1,14.1,0,0,0,3.27,3.27l2.4-2.4Z"/>
  <path class="cls-1" d="M13,27v3.4a14.32,14.32,0,0,0,4.62,0V27Z"/>
  <path class="cls-1" d="M21.94,25.21l2.4,2.4a14.1,14.1,0,0,0,3.27-3.27l-2.4-2.4Z"/>
  <path class="cls-1" d="M27,17.61h3.4a14.32,14.32,0,0,0,0-4.62H27Z"/>
  <path class="cls-1" d="M25.21,8.65l2.4-2.4a14,14,0,0,0-1.5-1.77A14.77,14.77,0,0,0,24.34,3l-2.4,2.4Z"/>
</svg>
