<svg width="16" height="10" viewBox="0 0 16 10" fill="none" xmlns="http://www.w3.org/2000/svg">
<path d="M11.9267 0.926805C9.60667 0.926805 8.46667 2.69347 7.45333 4.26014C6.36 5.9468 5.58667 6.9668 4.07333 6.9668C2.99067 6.9668 2.11333 6.08947 2.11333 5.0068C2.11333 3.92414 2.99067 3.0468 4.07333 3.0468C4.10133 3.04547 4.13467 3.0448 4.168 3.0448C4.804 3.0448 5.38067 3.30014 5.80067 3.71347L6.054 3.3268C6.32733 2.90014 6.64067 2.4268 7.00067 1.9468C6.248 1.31147 5.26733 0.924805 4.196 0.924805C4.15333 0.924805 4.11 0.925471 4.06733 0.926805H4.07333C1.824 0.926805 0 2.7508 0 5.00014C0 7.24947 1.824 9.07347 4.07333 9.07347C6.84667 9.07347 8.16667 7.07347 9.22667 5.40014C10.1733 3.93347 10.8133 3.04014 11.9267 3.04014C13.0093 3.04014 13.8867 3.91747 13.8867 5.00014C13.8867 6.0828 13.0093 6.96014 11.9267 6.96014C11.904 6.9608 11.8767 6.96147 11.85 6.96147C11.338 6.96147 10.8647 6.79614 10.48 6.51547L10.4867 6.52014C10.0753 7.16747 9.66733 7.72414 9.226 8.2528L9.24667 8.2268C9.96133 8.75614 10.8607 9.07414 11.834 9.07414C11.862 9.07414 11.89 9.07414 11.9173 9.07347H11.9133C14.1627 9.07347 15.9867 7.24947 15.9867 5.00014C15.9867 2.7508 14.1627 0.926805 11.9133 0.926805H11.9267Z" fill="#686F78"/>
</svg>
