<svg width="15" height="12" viewBox="0 0 15 12" fill="none" xmlns="http://www.w3.org/2000/svg">
<path d="M9.128 0.891999H11.116L5.572 11.35H3.584L9.128 0.891999ZM2.884 7.36C2.17467 7.36 1.60533 7.15 1.176 6.73C0.746667 6.30067 0.532 5.74067 0.532 5.05V3.398C0.532 2.70733 0.746667 2.152 1.176 1.732C1.60533 1.30267 2.17467 1.088 2.884 1.088H3.668C4.37733 1.088 4.94667 1.30267 5.376 1.732C5.80533 2.152 6.02 2.70733 6.02 3.398V5.05C6.02 5.74067 5.80533 6.30067 5.376 6.73C4.94667 7.15 4.37733 7.36 3.668 7.36H2.884ZM3.626 5.834C3.822 5.834 3.976 5.75467 4.088 5.596C4.20933 5.428 4.27 5.20867 4.27 4.938V3.51C4.27 3.23933 4.20933 3.02467 4.088 2.866C3.976 2.698 3.822 2.614 3.626 2.614H2.926C2.73 2.614 2.57133 2.698 2.45 2.866C2.338 3.02467 2.282 3.23933 2.282 3.51V4.938C2.282 5.20867 2.338 5.428 2.45 5.596C2.57133 5.75467 2.73 5.834 2.926 5.834H3.626ZM11.046 11.112C10.3367 11.112 9.76733 10.902 9.338 10.482C8.90867 10.0527 8.694 9.49267 8.694 8.802V7.15C8.694 6.45933 8.90867 5.904 9.338 5.484C9.76733 5.05467 10.3367 4.84 11.046 4.84H11.83C12.5393 4.84 13.1087 5.05467 13.538 5.484C13.9673 5.904 14.182 6.45933 14.182 7.15V8.802C14.182 9.49267 13.9673 10.0527 13.538 10.482C13.1087 10.902 12.5393 11.112 11.83 11.112H11.046ZM11.788 9.586C11.984 9.586 12.138 9.50667 12.25 9.348C12.3713 9.18 12.432 8.96067 12.432 8.69V7.262C12.432 6.99133 12.3713 6.77667 12.25 6.618C12.138 6.45 11.984 6.366 11.788 6.366H11.088C10.892 6.366 10.7333 6.45 10.612 6.618C10.5 6.77667 10.444 6.99133 10.444 7.262V8.69C10.444 8.96067 10.5 9.18 10.612 9.348C10.7333 9.50667 10.892 9.586 11.088 9.586H11.788Z" fill="#686F78"/>
</svg>
