<svg width="20" height="20" viewBox="0 0 20 20" fill="none" xmlns="http://www.w3.org/2000/svg">
<path d="M10 18.75C8.77778 18.75 7.63194 18.5243 6.5625 18.0729C5.49306 17.6215 4.56597 16.9965 3.78125 16.1979C2.99653 15.3993 2.37847 14.4653 1.92708 13.3958C1.47569 12.3264 1.25 11.1805 1.25 9.95832C1.25 8.7361 1.47569 7.59374 1.92708 6.53124C2.37847 5.46874 2.99653 4.54513 3.78125 3.76041C4.56597 2.97568 5.49306 2.35763 6.5625 1.90624C7.63194 1.45485 8.77778 1.22916 10 1.22916C11.2222 1.22916 12.3646 1.45485 13.4271 1.90624C14.4896 2.35763 15.4167 2.97568 16.2083 3.76041C17 4.54513 17.625 5.46874 18.0833 6.53124C18.5417 7.59374 18.7708 8.7361 18.7708 9.95832C18.7708 11.1805 18.5417 12.3264 18.0833 13.3958C17.625 14.4653 17 15.3993 16.2083 16.1979C15.4167 16.9965 14.4896 17.6215 13.4271 18.0729C12.3646 18.5243 11.2222 18.75 10 18.75ZM9.97917 16.9375C10.4375 16.4514 10.8264 15.8889 11.1458 15.25C11.4653 14.6111 11.7361 13.8403 11.9583 12.9375H8.08333C8.25 13.7847 8.49653 14.5382 8.82292 15.1979C9.1493 15.8576 9.53472 16.4375 9.97917 16.9375ZM8.33333 16.6667C7.97222 16.1667 7.67361 15.6076 7.4375 14.9896C7.20139 14.3715 7 13.6875 6.83333 12.9375H3.79167C4.27778 13.9236 4.86458 14.691 5.55208 15.2396C6.23958 15.7882 7.16667 16.2639 8.33333 16.6667ZM11.6458 16.6458C12.6319 16.3403 13.5208 15.8715 14.3125 15.2396C15.1042 14.6076 15.7361 13.8403 16.2083 12.9375H13.2083C13.0278 13.6736 12.816 14.3507 12.5729 14.9687C12.3299 15.5868 12.0208 16.1458 11.6458 16.6458ZM3.41667 11.8125H6.60417C6.5625 11.4236 6.53819 11.0833 6.53125 10.7917C6.52431 10.5 6.52083 10.2222 6.52083 9.95832C6.52083 9.6111 6.52778 9.30902 6.54167 9.05207C6.55556 8.79513 6.58333 8.49999 6.625 8.16666H3.41667C3.31944 8.49999 3.25347 8.79166 3.21875 9.04166C3.18403 9.29166 3.16667 9.59721 3.16667 9.95832C3.16667 10.3055 3.18403 10.6146 3.21875 10.8854C3.25347 11.1562 3.31944 11.4653 3.41667 11.8125ZM7.85417 11.8125H12.1875C12.2292 11.368 12.2535 11.0174 12.2604 10.7604C12.2674 10.5035 12.2708 10.2361 12.2708 9.95832C12.2708 9.68054 12.2674 9.42013 12.2604 9.17707C12.2535 8.93402 12.2292 8.59721 12.1875 8.16666H7.85417C7.79861 8.59721 7.76389 8.93402 7.75 9.17707C7.73611 9.42013 7.72917 9.68054 7.72917 9.95832C7.72917 10.2361 7.73611 10.5035 7.75 10.7604C7.76389 11.0174 7.79861 11.368 7.85417 11.8125ZM13.375 11.8125H16.5833C16.6667 11.4653 16.7292 11.1562 16.7708 10.8854C16.8125 10.6146 16.8333 10.3055 16.8333 9.95832C16.8333 9.59721 16.8125 9.29166 16.7708 9.04166C16.7292 8.79166 16.6667 8.49999 16.5833 8.16666H13.3958C13.4097 8.66666 13.4236 9.03471 13.4375 9.27082C13.4514 9.50693 13.4583 9.7361 13.4583 9.95832C13.4583 10.2361 13.4479 10.5069 13.4271 10.7708C13.4062 11.0347 13.3889 11.3819 13.375 11.8125ZM13.1875 6.99999H16.2083C15.7639 6.06943 15.1458 5.28818 14.3542 4.65624C13.5625 4.0243 12.6528 3.57638 11.625 3.31249C12 3.82638 12.309 4.37846 12.5521 4.96874C12.7951 5.55902 13.0069 6.2361 13.1875 6.99999ZM8.08333 6.99999H11.9792C11.8403 6.29166 11.5903 5.59027 11.2292 4.89582C10.8681 4.20138 10.4514 3.60416 9.97917 3.10416C9.57639 3.46527 9.22222 3.94791 8.91667 4.55207C8.61111 5.15624 8.33333 5.97221 8.08333 6.99999ZM3.79167 6.99999H6.85417C7.00694 6.27777 7.19444 5.62499 7.41667 5.04166C7.63889 4.45832 7.9375 3.88888 8.3125 3.33332C7.27083 3.59721 6.36806 4.03124 5.60417 4.63541C4.84028 5.23957 4.23611 6.02777 3.79167 6.99999Z" fill="#72777A"/>
</svg>
