<svg width="125" height="105" viewBox="0 0 125 105" fill="none" xmlns="http://www.w3.org/2000/svg">
<path d="M22.663 70.9502L19.4575 60.1851L14.3133 64.6056C13.2884 65.576 12.5089 66.7948 12.1665 68.1727C11.9079 69.1745 11.855 70.3396 12.35 71.4566C13.6278 74.308 13.998 74.9907 13.998 74.9907C13.998 74.9907 14.293 75.7344 15.646 78.5249C16.1835 79.622 17.11 80.3304 18.0437 80.7763C19.3193 81.3997 20.754 81.586 22.1561 81.4247L28.9583 80.5596L22.663 70.9502Z" fill="#ED6503"/>
<path d="M56.5299 78.4333C56.5299 78.4333 41.4032 98.1875 39.5226 98.9348C37.6633 99.6722 34.2982 100.904 33.3349 100.006C32.3715 99.1073 33.1458 96.1543 34.7615 84.3333L35.0075 82.6376L56.5299 78.4333Z" fill="#D23900"/>
<path d="M57.2679 78.3484C57.2679 78.3484 42.1412 98.1025 40.2606 98.8499C38.4013 99.5873 35.0362 100.82 34.0728 99.9209C33.1095 99.0223 33.8838 96.0693 35.4994 84.2484L35.7454 82.5526L57.2679 78.3484Z" fill="#FF4601"/>
<path d="M32.2542 83.0142C32.2542 83.0142 31.0933 83.1927 28.4857 80.5467C28.4857 80.5467 27.5409 79.3543 26.3067 77.597C25.084 75.8086 23.5719 73.4552 22.45 71.0494C20.2262 66.2805 19.0331 60.3311 19.0331 60.3311C18.6822 56.6327 19.5751 55.8794 19.5751 55.8794C19.5751 55.8794 53.9528 20.4352 81.0977 21.6183C86.0194 26.1141 90.1559 31.65 93.1541 38.0796C96.1523 44.5092 97.734 51.2363 98.0145 57.8964C81.5035 79.4625 32.2542 83.0142 32.2542 83.0142Z" fill="url(#paint0_linear_108_2125)"/>
<path d="M98.0145 57.8963C97.7341 51.2362 96.1523 44.5091 93.1542 38.0795C90.156 31.6499 86.0194 26.1141 81.0978 21.6182C81.2553 21.6225 81.444 21.6382 81.6015 21.6425C107.055 23.1997 110.378 29.6591 110.517 29.9572L110.527 29.9785C110.527 29.9785 113.87 36.4805 98.3198 57.4948C98.2317 57.6395 98.1125 57.7729 98.0145 57.8963Z" fill="url(#paint1_linear_108_2125)"/>
<path d="M98.0145 57.8963C97.7341 51.2362 96.1523 44.5091 93.1542 38.0795C90.156 31.6499 86.0194 26.1141 81.0978 21.6182C81.2553 21.6225 81.444 21.6382 81.6015 21.6425C107.055 23.1997 110.378 29.6591 110.517 29.9572L110.527 29.9785C110.527 29.9785 113.87 36.4805 98.3198 57.4948C98.2317 57.6395 98.1125 57.7729 98.0145 57.8963Z" fill="url(#paint2_radial_108_2125)"/>
<path d="M43.1684 40.886C43.3246 40.554 43.1459 40.1708 42.7912 40.077C41.0273 39.6295 35.9188 38.5125 31.498 39.1484C26.0326 39.9344 18.2134 39.1743 18.2134 39.1743C18.2134 39.1743 11.8375 38.2854 9.85563 40.8166L8.13366 42.6823C7.47356 43.3789 7.6421 44.5185 8.45939 44.9927L8.4906 45.0041C9.64984 45.6558 24.3293 55.736 25.3399 54.9019C26.318 54.1089 40.54 46.3106 43.1684 40.886Z" fill="#FF4601"/>
<path d="M54.5727 45.4435C57.04 50.7346 64.6163 52.4238 71.4948 49.2163C78.3733 46.0087 81.9493 39.1192 79.482 33.8281C77.0147 28.5369 69.4384 26.8478 62.5599 30.0553C55.6814 33.2628 52.1054 40.1523 54.5727 45.4435Z" fill="url(#paint3_linear_108_2125)"/>
<path d="M57.0211 44.3014C59.0004 48.5461 65.0849 49.898 70.6113 47.3211C76.1376 44.7441 79.013 39.2141 77.0337 34.9694C75.0543 30.7247 68.9698 29.3727 63.4435 31.9497C57.9171 34.5267 55.0417 40.0567 57.0211 44.3014Z" fill="#02A6FA"/>
<g filter="url(#filter0_f_108_2125)">
<path d="M62.6476 37.8604C62.9517 39.5852 65.0108 40.6639 67.2467 40.2696C69.4826 39.8754 71.0486 38.1575 70.7445 36.4327C70.4403 34.7078 68.3812 33.6292 66.1453 34.0234C63.9094 34.4177 62.3434 36.1355 62.6476 37.8604Z" fill="#02FFFF"/>
</g>
<path opacity="0.3" d="M65.8187 35.0084C65.575 36.5067 67.2268 38.0221 69.508 38.3931C71.7893 38.7642 73.8362 37.8504 74.0799 36.3521C74.3236 34.8538 72.6718 33.3384 70.3906 32.9673C68.1093 32.5962 66.0624 33.5101 65.8187 35.0084Z" fill="#02FFFF"/>
<g filter="url(#filter1_f_108_2125)">
<path d="M60.3698 40.6556C59.6651 40.747 59.1925 41.582 59.3142 42.5207C59.4359 43.4594 60.1058 44.1464 60.8104 44.055C61.5151 43.9637 61.9877 43.1287 61.866 42.19C61.7444 41.2512 61.0745 40.5643 60.3698 40.6556Z" fill="#02FFFF"/>
</g>
<path d="M47.6995 61.2194C47.6995 61.2194 48.0404 59.894 46.6638 60.2768C45.2658 60.6695 28.3757 68.8047 28.3757 68.8047L19.5114 74.7525C19.2332 74.9341 19.0571 75.2235 18.9747 75.547C18.925 75.8294 19.064 76.1275 19.3123 76.2709C19.623 76.437 19.9991 76.5209 20.3368 76.467C22.5522 76.1597 31.0676 74.1329 47.6995 61.2194Z" fill="#FF4601"/>
<defs>
<filter id="filter0_f_108_2125" x="40.6519" y="11.9845" width="52.0883" height="50.3245" filterUnits="userSpaceOnUse" color-interpolation-filters="sRGB">
<feFlood flood-opacity="0" result="BackgroundImageFix"/>
<feBlend mode="normal" in="SourceGraphic" in2="BackgroundImageFix" result="shape"/>
<feGaussianBlur stdDeviation="10.979" result="effect1_foregroundBlur_108_2125"/>
</filter>
<filter id="filter1_f_108_2125" x="52.2686" y="33.6209" width="16.6431" height="17.4686" filterUnits="userSpaceOnUse" color-interpolation-filters="sRGB">
<feFlood flood-opacity="0" result="BackgroundImageFix"/>
<feBlend mode="normal" in="SourceGraphic" in2="BackgroundImageFix" result="shape"/>
<feGaussianBlur stdDeviation="3.51327" result="effect1_foregroundBlur_108_2125"/>
</filter>
<linearGradient id="paint0_linear_108_2125" x1="52.1235" y1="30.0749" x2="72.8724" y2="74.571" gradientUnits="userSpaceOnUse">
<stop stop-color="white"/>
<stop offset="0.501365" stop-color="white"/>
<stop offset="0.747632" stop-color="#CBCBCB"/>
<stop offset="1" stop-color="white"/>
</linearGradient>
<linearGradient id="paint1_linear_108_2125" x1="110.527" y1="29.9784" x2="89.5561" y2="39.7573" gradientUnits="userSpaceOnUse">
<stop stop-color="#FF4300"/>
<stop offset="1" stop-color="#ED3602"/>
</linearGradient>
<radialGradient id="paint2_radial_108_2125" cx="0" cy="0" r="1" gradientUnits="userSpaceOnUse" gradientTransform="translate(88.3754 30.2771) rotate(-5.80115) scale(13.9296 24.0974)">
<stop stop-color="white" stop-opacity="0.52"/>
<stop offset="1" stop-color="white" stop-opacity="0"/>
</radialGradient>
<linearGradient id="paint3_linear_108_2125" x1="74.5391" y1="28.9533" x2="58.8583" y2="50.9098" gradientUnits="userSpaceOnUse">
<stop stop-color="#EDEDED"/>
<stop offset="1" stop-color="#FAF9F9"/>
</linearGradient>
</defs>
</svg>
