<svg width="24" height="24" viewBox="0 0 24 24" fill="none" xmlns="http://www.w3.org/2000/svg">
<path d="M9.15005 22.625L8.62505 19.275C8.40838 19.2083 8.16255 19.0958 7.88755 18.9375C7.61255 18.7792 7.38338 18.625 7.20005 18.475L4.07505 19.925L1.17505 14.8L4.02505 12.725C4.00838 12.625 3.99588 12.5042 3.98755 12.3625C3.97922 12.2208 3.97505 12.1 3.97505 12C3.97505 11.9 3.97922 11.7792 3.98755 11.6375C3.99588 11.4958 4.00838 11.375 4.02505 11.275L1.17505 9.17501L4.07505 4.10001L7.25005 5.52501C7.41672 5.39167 7.63338 5.25001 7.90005 5.10001C8.16672 4.95001 8.40838 4.84167 8.62505 4.77501L9.15005 1.35001H14.85L15.375 4.75001C15.5917 4.83334 15.8375 4.94584 16.1125 5.08751C16.3875 5.22917 16.6167 5.37501 16.8 5.52501L19.9501 4.10001L22.8251 9.17501L19.9501 11.225C19.9667 11.3417 19.9834 11.4708 20 11.6125C20.0167 11.7542 20.025 11.8833 20.025 12C20.025 12.1167 20.0167 12.2417 20 12.375C19.9834 12.5083 19.9667 12.6333 19.9501 12.75L22.8251 14.8L19.925 19.925L16.775 18.475C16.5917 18.625 16.3709 18.7792 16.1125 18.9375C15.8542 19.0958 15.6084 19.2083 15.375 19.275L14.85 22.625H9.15005ZM11.95 15.25C12.85 15.25 13.6167 14.9333 14.25 14.3C14.8834 13.6667 15.2 12.9 15.2 12C15.2 11.1 14.8834 10.3333 14.25 9.70001C13.6167 9.06667 12.85 8.75001 11.95 8.75001C11.05 8.75001 10.2834 9.06667 9.65005 9.70001C9.01672 10.3333 8.70005 11.1 8.70005 12C8.70005 12.9 9.01672 13.6667 9.65005 14.3C10.2834 14.9333 11.05 15.25 11.95 15.25Z" fill="#686F78"/>
</svg>
