<svg id="Layer_1" data-name="Layer 1" xmlns="http://www.w3.org/2000/svg" viewBox="0 0 110.81 126.31">
  <defs>
    <style>
      .cls-1 {
        fill: #fff;
        opacity: 0.1;
        isolation: isolate;
      }

      .cls-2 {
        fill: #17181c;
      }
    </style>
  </defs>
  <title>slide-card</title>
  <path class="cls-1" d="M107.6,44.92,57.48,16a5.34,5.34,0,0,0-5.28,0L2.08,44.92A5.27,5.27,0,0,0-.56,49.49v57.88a5.24,5.24,0,0,0,2.64,4.57L52.2,140.88a5.3,5.3,0,0,0,5.28,0l50.12-28.94a5.25,5.25,0,0,0,2.65-4.57V49.49A5.28,5.28,0,0,0,107.6,44.92Z" transform="translate(0.56 -15.28)"/>
  <path class="cls-2" d="M99,50.42,57.06,26.17a4.42,4.42,0,0,0-4.42,0L10.71,50.42A4.39,4.39,0,0,0,8.5,54.24v48.42a4.42,4.42,0,0,0,2.21,3.83l41.93,24.2a4.42,4.42,0,0,0,4.42,0L99,106.49a4.44,4.44,0,0,0,2.21-3.83V54.24A4.41,4.41,0,0,0,99,50.42Z" transform="translate(0.56 -15.28)"/>
</svg>
