<svg id="Layer_1" data-name="Layer 1" xmlns="http://www.w3.org/2000/svg" viewBox="0 0 110.81 126.28">
  <defs>
    <style>
      .cls-1 {
        fill: #15c456;
        opacity: 0.48;
        isolation: isolate;
      }

      .cls-2 {
        fill: #17181c;
      }
    </style>
  </defs>
  <title>slide-card-green</title>
  <path class="cls-1" d="M108.16,29.64,58,.72a5.34,5.34,0,0,0-5.28,0L2.64,29.64A5.28,5.28,0,0,0,0,34.21V92.09a5.23,5.23,0,0,0,2.64,4.57L52.76,125.6a5.3,5.3,0,0,0,5.28,0l50.12-28.94a5.26,5.26,0,0,0,2.65-4.57V34.21A5.26,5.26,0,0,0,108.16,29.64Z" transform="translate(0 -0.02)"/>
  <path class="cls-2" d="M99.56,35.14,57.62,10.89a4.42,4.42,0,0,0-4.42,0L11.27,35.14A4.39,4.39,0,0,0,9.06,39V87.38a4.42,4.42,0,0,0,2.21,3.83l41.93,24.2a4.42,4.42,0,0,0,4.42,0l41.94-24.2a4.42,4.42,0,0,0,2.21-3.83V39A4.4,4.4,0,0,0,99.56,35.14Z" transform="translate(0 -0.02)"/>
</svg>
