<svg id="Layer_1" data-name="Layer 1" xmlns="http://www.w3.org/2000/svg" viewBox="0 0 12 16">
  <defs>
    <style>
      .cls-1 {
        fill: #686f78;
      }
    </style>
  </defs>
  <title>speaker</title>
  <path class="cls-1" d="M11.25,16a.86.86,0,0,1-.38-.1L4.29,12H1.75A1.76,1.76,0,0,1,0,10.25V5.75A1.76,1.76,0,0,1,1.75,4H4.29L10.87.1a.77.77,0,0,1,.75,0A.73.73,0,0,1,12,.75v14.5a.73.73,0,0,1-.38.65A.69.69,0,0,1,11.25,16ZM1.75,5.5a.25.25,0,0,0-.25.25v4.5a.25.25,0,0,0,.25.25H4.5a.83.83,0,0,1,.38.1l5.62,3.33V2.07L4.88,5.4a.83.83,0,0,1-.38.1Z" transform="translate(0 0)"/>
</svg>
