<svg id="Layer_1" data-name="Layer 1" xmlns="http://www.w3.org/2000/svg" viewBox="0 0 16.16 16.18">
  <defs>
    <style>
      .cls-1 {
        fill: #686f78;
      }
    </style>
  </defs>
  <title>speaker-mute</title>
  <path class="cls-1" d="M11.62.1a.77.77,0,0,0-.75,0L4.29,4H1.75A1.76,1.76,0,0,0,0,5.75v4.5A1.76,1.76,0,0,0,1.75,12H4.29l.53.31,1.1-1.09-1-.62a.83.83,0,0,0-.38-.1H1.75a.25.25,0,0,1-.25-.25V5.75a.25.25,0,0,1,.25-.25H4.5a.83.83,0,0,0,.38-.1L10.5,2.07V6.65L12,5.16V.75A.73.73,0,0,0,11.62.1ZM10.5,8.77v5.16L7.25,12,6.15,13.1l4.72,2.8a.86.86,0,0,0,.38.1.69.69,0,0,0,.37-.1.73.73,0,0,0,.38-.65v-8Z" transform="translate(0 0)"/>
  <rect class="cls-1" x="-2.16" y="7.73" width="21.19" height="1.5" rx="0.75" transform="translate(-3.52 8.43) rotate(-44.89)"/>
</svg>
