<svg id="Layer_1" data-name="Layer 1" xmlns="http://www.w3.org/2000/svg" viewBox="0 0 63.17 60.25">
  <defs>
    <style>
      .cls-1 {
        fill: #ffe46d;
      }

      .cls-2 {
        fill: #fbd00f;
        opacity: 0.4;
        isolation: isolate;
      }
    </style>
  </defs>
  <title>star-mines</title>
  <g>
    <path class="cls-1" d="M67.54,39.78,47.08,37.86,39,19a1.64,1.64,0,0,0-3,0L27.81,37.85,7.35,39.73a1.64,1.64,0,0,0-.94,2.86L21.84,56.17l-4.53,20A1.63,1.63,0,0,0,19.74,78L37.42,67.51,55.08,78a1.64,1.64,0,0,0,2.44-1.77l-4.5-20L68.46,42.64A1.63,1.63,0,0,0,67.54,39.78Z" transform="translate(-5.85 -17.99)"/>
    <path class="cls-2" d="M39,19a1.64,1.64,0,0,0-3,0L27.81,37.85,7.35,39.73a1.64,1.64,0,0,0-.94,2.86L21.84,56.17l-4.53,20A1.63,1.63,0,0,0,19.74,78l4-2.34A72.25,72.25,0,0,1,43,28.32Z" transform="translate(-5.85 -17.99)"/>
  </g>
</svg>
