<svg id="Layer_1" data-name="Layer 1" xmlns="http://www.w3.org/2000/svg" viewBox="0 0 405.05 57.7">
  <defs>
    <style>
      .cls-1 {
        fill: #292a2d;
      }

      .cls-2 {
        fill: #3d3d3d;
      }
    </style>
  </defs>
  <title>pays-poker</title>
  <path class="cls-1" d="M40.2,45.2V15.3H6.1a2.8,2.8,0,0,0-2.8,2.8,2.66,2.66,0,0,0,.3,1.2l7.3,15.9a2.87,2.87,0,0,1-.2,2.7L.5,53.4a2.73,2.73,0,0,0,.8,3.8,3,3,0,0,0,1.5.5h57a2.8,2.8,0,0,0,2.8-2.8h0v-5H44.9a4.69,4.69,0,0,1-4.7-4.7Z" transform="translate(-0.06)"/>
  <path class="cls-1" d="M404.7,53.4,394.5,37.8a2.87,2.87,0,0,1-.2-2.7l7.3-15.9a2.86,2.86,0,0,0-1.4-3.7,1.72,1.72,0,0,0-1.2-.2H364.9V45.2a4.69,4.69,0,0,1-4.7,4.7H342.6v5a2.8,2.8,0,0,0,2.8,2.8h57a2.71,2.71,0,0,0,2.7-2.8A3.31,3.31,0,0,0,404.7,53.4Z" transform="translate(-0.06)"/>
  <path class="cls-1" d="M47.6,0H357.5a3.37,3.37,0,0,1,3.4,3.4V42.1a3.37,3.37,0,0,1-3.4,3.4H47.6a3.37,3.37,0,0,1-3.4-3.4V3.4A3.44,3.44,0,0,1,47.6,0Z" transform="translate(-0.06)"/>
  <g>
    <path class="cls-2" d="M128.61,16.76V14.59h11.48v2.17Zm4.6,14.09V15.92h2.28V30.85Z" transform="translate(-0.06)"/>
    <path class="cls-2" d="M144.61,14.59V30.85h-2.29V14.59Z" transform="translate(-0.06)"/>
    <path class="cls-2" d="M148.63,30.85V14.59h2.28V30.85Zm1.11-14.09V14.59h9.34v2.17Zm0,7.1V21.69h8.11v2.17Zm0,7V28.68h9.34v2.17Z" transform="translate(-0.06)"/>
    <path class="cls-2" d="M168.47,30.85V14.59h2.28V30.85Zm1.18-6.31V22.37h5.2a2.25,2.25,0,0,0,1.79-.77,3,3,0,0,0,.68-2,3,3,0,0,0-.68-2,2.28,2.28,0,0,0-1.79-.77h-5.2V14.59h5.12a5.17,5.17,0,0,1,2.57.62A4.25,4.25,0,0,1,179,17a5.35,5.35,0,0,1,.61,2.63,5.3,5.3,0,0,1-.61,2.61,4.25,4.25,0,0,1-1.7,1.74,5.17,5.17,0,0,1-2.57.61Z" transform="translate(-0.06)"/>
    <path class="cls-2" d="M180.16,30.85l6-16.26h1.95l6,16.26h-2.46l-4.5-13.12-4.51,13.12Zm2.76-3.57V25.11h8.56v2.17Z" transform="translate(-0.06)"/>
    <path class="cls-2" d="M205.39,14.59l-5,9.65v6.61h-2.28V24.24l-5-9.65h2.54l3.55,7.34,3.56-7.34Z" transform="translate(-0.06)"/>
    <path class="cls-2" d="M211.73,31a10.6,10.6,0,0,1-2.23-.23,8.39,8.39,0,0,1-2-.67,8.19,8.19,0,0,1-1.7-1.12l1.42-1.74a6.44,6.44,0,0,0,2,1.21,7.12,7.12,0,0,0,2.43.4,4.85,4.85,0,0,0,2.74-.66,2.09,2.09,0,0,0,1-1.84v0a1.93,1.93,0,0,0-.49-1.42,3.12,3.12,0,0,0-1.29-.73,15.12,15.12,0,0,0-1.75-.4c-.61-.1-1.23-.22-1.85-.36a6.35,6.35,0,0,1-1.72-.67,3.43,3.43,0,0,1-1.26-1.3,4.76,4.76,0,0,1-.47-2.27h0a4.29,4.29,0,0,1,1.51-3.52,6.5,6.5,0,0,1,4.26-1.25,8,8,0,0,1,2.56.42,9.23,9.23,0,0,1,2.44,1.28l-1.3,1.81a7.64,7.64,0,0,0-1.85-1,5.47,5.47,0,0,0-1.85-.33,4.39,4.39,0,0,0-2.59.66,2.19,2.19,0,0,0-.92,1.89h0a1.77,1.77,0,0,0,.53,1.4,3.35,3.35,0,0,0,1.41.71c.57.15,1.19.29,1.86.43s1.19.26,1.79.43a5.82,5.82,0,0,1,1.62.73,3.46,3.46,0,0,1,1.18,1.3,4.63,4.63,0,0,1,.44,2.16v0a4.18,4.18,0,0,1-1.56,3.48A7,7,0,0,1,211.73,31Z" transform="translate(-0.06)"/>
    <path class="cls-2" d="M231.52,31a5.71,5.71,0,0,1-2.59-.56,4.11,4.11,0,0,1-1.72-1.58,4.51,4.51,0,0,1-.62-2.38v-.27a4.52,4.52,0,0,1,.61-2.29,4,4,0,0,1,1.63-1.62A3.67,3.67,0,0,1,227.45,21a3.63,3.63,0,0,1-.52-1.88v-.39a4,4,0,0,1,1.26-3.1,5.34,5.34,0,0,1,6.67,0,4,4,0,0,1,1.26,3.1v.39a3.7,3.7,0,0,1-1.93,3.24,4.05,4.05,0,0,1,1.64,1.62,4.44,4.44,0,0,1,.63,2.29v.27a4.51,4.51,0,0,1-.62,2.38,4.11,4.11,0,0,1-1.72,1.58A5.76,5.76,0,0,1,231.52,31Zm0-2.19a2.7,2.7,0,0,0,1.93-.69,2.37,2.37,0,0,0,.74-1.81v-.15a2.37,2.37,0,0,0-.74-1.82,3,3,0,0,0-3.86,0,2.42,2.42,0,0,0-.73,1.83v.16a2.36,2.36,0,0,0,.73,1.8A2.76,2.76,0,0,0,231.52,28.83Zm0-7.35a2.21,2.21,0,0,0,1.68-.66,2.39,2.39,0,0,0,.64-1.75v-.15a2.22,2.22,0,0,0-.64-1.67,2.32,2.32,0,0,0-4,1.68v.17a2.33,2.33,0,0,0,.64,1.72A2.21,2.21,0,0,0,231.52,21.48Z" transform="translate(-0.06)"/>
    <path class="cls-2" d="M243.89,16.76V14.59h11.48v2.17Zm4.6,14.09V15.92h2.28V30.85Z" transform="translate(-0.06)"/>
    <path class="cls-2" d="M262.54,31a5.85,5.85,0,0,1-3-.75,5,5,0,0,1-2-2.09,6.75,6.75,0,0,1-.71-3.16v-4.6a6.73,6.73,0,0,1,.71-3.16,5,5,0,0,1,2-2.09,6.4,6.4,0,0,1,6,0,5,5,0,0,1,2,2.09,6.73,6.73,0,0,1,.71,3.16V25a6.75,6.75,0,0,1-.71,3.16,5,5,0,0,1-2,2.09A5.83,5.83,0,0,1,262.54,31Zm0-2.25a3.17,3.17,0,0,0,2.45-1,3.79,3.79,0,0,0,.92-2.66V20.34a3.82,3.82,0,0,0-.92-2.67,3.5,3.5,0,0,0-4.9,0,3.78,3.78,0,0,0-.93,2.67V25.1a3.75,3.75,0,0,0,.93,2.66A3.16,3.16,0,0,0,262.54,28.77Z" transform="translate(-0.06)"/>
    <path class="cls-2" d="M281.68,14.59V30.85H279.4V17.07l-2.32,1.42V16.13l2.32-1.54Z" transform="translate(-0.06)"/>
  </g>
</svg>
