<svg width="17" height="14" viewBox="0 0 17 14" fill="none" xmlns="http://www.w3.org/2000/svg">
<g opacity="0.4" clip-path="url(#clip0_108_5766)">
<path d="M16.7296 1.62863C16.3519 1.79446 15.9598 1.92528 15.5575 2.01998C16.0008 1.60291 16.3341 1.08123 16.5222 0.498943C16.5759 0.332711 16.3935 0.188966 16.2419 0.27797C15.6822 0.60666 15.0793 0.853239 14.4499 1.01094C14.4134 1.02009 14.3757 1.02472 14.3379 1.02472C14.2232 1.02472 14.1118 0.982581 14.0241 0.906092C13.3545 0.321796 12.4933 0 11.5991 0C11.2122 0 10.8215 0.0597058 10.438 0.177476C9.24959 0.542399 8.33264 1.51292 8.04495 2.71031C7.93702 3.15944 7.9078 3.60898 7.95804 4.04641C7.9638 4.09668 7.9398 4.13176 7.925 4.14822C7.89902 4.17707 7.86217 4.1936 7.82391 4.1936C7.81964 4.1936 7.81525 4.1934 7.8109 4.19299C5.20955 3.95371 2.86378 2.71294 1.20566 0.699276C1.12111 0.596565 0.958962 0.609163 0.891568 0.723609C0.566866 1.27512 0.395273 1.90591 0.395273 2.54777C0.395273 3.53146 0.794456 4.45848 1.48784 5.13429C1.19625 5.06584 0.914033 4.95804 0.651876 4.81389C0.525046 4.74413 0.368995 4.83379 0.367213 4.97741C0.349058 6.43875 1.21324 7.73906 2.50782 8.32459C2.48175 8.3252 2.45568 8.32549 2.42957 8.32549C2.22436 8.32549 2.01658 8.30587 1.81208 8.26718C1.66925 8.24018 1.54926 8.37432 1.59361 8.51142C2.01381 9.81021 3.14334 10.7676 4.49504 10.9849C3.37321 11.7305 2.06682 12.1238 0.707126 12.1238L0.283239 12.1235C0.152638 12.1235 0.0421793 12.2078 0.00889675 12.333C-0.0238884 12.4564 0.036501 12.5865 0.147871 12.6507C1.68003 13.5334 3.42767 14 5.20263 14C6.7563 14 8.20963 13.6947 9.52228 13.0928C10.7256 12.5409 11.789 11.752 12.6829 10.748C13.5156 9.81272 14.1667 8.73305 14.6182 7.53901C15.0485 6.40083 15.276 5.18636 15.276 4.02688V3.97164C15.2759 3.78547 15.361 3.61029 15.5094 3.49104C16.0724 3.03843 16.5628 2.50563 16.9667 1.90747C17.0733 1.74952 16.9051 1.55157 16.7296 1.62863Z" fill="#EFFAFB"/>
</g>
<defs>
<clipPath id="clip0_108_5766">
<rect width="17" height="14" fill="white"/>
</clipPath>
</defs>
</svg>
