<svg width="24" height="24" viewBox="0 0 24 24" fill="none" xmlns="http://www.w3.org/2000/svg">
<path d="M3 11.181L9.92242 4.25861" stroke="#686F78" stroke-width="1.88793" stroke-linecap="round" stroke-linejoin="round"/>
<path d="M4.25862 21.2503H4.88794C5.58305 21.2503 6.14656 20.6868 6.14656 19.9917V16.8448C6.14656 16.1497 5.58305 15.5862 4.88794 15.5862H4.25862C3.5635 15.5862 3 16.1497 3 16.8448V19.9917C3 20.6868 3.5635 21.2503 4.25862 21.2503Z" fill="#686F78" stroke="#686F78" stroke-width="1.88793" stroke-linecap="round" stroke-linejoin="round"/>
<path d="M11.8104 21.2503H12.4397C13.1348 21.2503 13.6983 20.6868 13.6983 19.9917V13.069C13.6983 12.3739 13.1348 11.8104 12.4397 11.8104H11.8104C11.1153 11.8104 10.5518 12.3739 10.5518 13.069V19.9917C10.5518 20.6868 11.1153 21.2503 11.8104 21.2503Z" fill="#686F78" stroke="#686F78" stroke-width="1.88793" stroke-linecap="round" stroke-linejoin="round"/>
<path d="M19.3621 21.2503H19.9915C20.6866 21.2503 21.2501 20.6868 21.2501 19.9917V4.25862C21.2501 3.5635 20.6866 3 19.9915 3H19.3621C18.667 3 18.1035 3.5635 18.1035 4.25862V19.9917C18.1035 20.6868 18.667 21.2503 19.3621 21.2503Z" fill="#686F78" stroke="#686F78" stroke-width="1.88793" stroke-linecap="round" stroke-linejoin="round"/>
<path d="M11.1811 7.40517V3H6.77588" stroke="#686F78" stroke-width="1.88793" stroke-linecap="round" stroke-linejoin="round"/>
</svg>
