<svg width="77" height="104" viewBox="0 0 77 104" fill="none" xmlns="http://www.w3.org/2000/svg">
<g filter="url(#filter0_d_1_241)">
<rect x="4.39062" y="3" width="68" height="96" rx="5" fill="url(#paint0_linear_1_241)"/>
</g>
<g opacity="0.48">
<mask id="mask0_1_241" style="mask-type:alpha" maskUnits="userSpaceOnUse" x="9" y="13" width="59" height="87">
<rect x="9" y="13" width="59" height="87" rx="4" fill="url(#paint1_linear_1_241)"/>
</mask>
<g mask="url(#mask0_1_241)">
<path fill-rule="evenodd" clip-rule="evenodd" d="M56.9966 51L67.6639 61.6673L56.9966 72.3347L46.3292 61.6673L56.9966 51ZM56.9966 57.2465L61.4176 61.6676L56.9966 66.0887L52.5755 61.6676L56.9966 57.2465ZM43.6673 64.3344L54.3347 75.0017L43.6673 85.669L33 75.0017L43.6673 64.3344ZM43.6673 70.5821L48.087 75.0018L43.6673 79.4215L39.2476 75.0018L43.6673 70.5821ZM56.9986 83.0018L64.9991 91.0023L64.9901 91.0113H49.0071L48.9981 91.0023L56.9986 83.0018ZM70.3325 64.3344L80.9998 75.0017L70.3325 85.669L59.6651 75.0017L70.3325 64.3344ZM70.3325 70.8472L74.487 75.0017L70.3325 79.1562L66.1779 75.0017L70.3325 70.8472Z" fill="#40314C"/>
</g>
</g>
<path fill-rule="evenodd" clip-rule="evenodd" d="M15.9395 46V91C15.9395 93.4853 17.9542 95.5 20.4395 95.5H64.4395C66.9247 95.5 68.9395 93.4853 68.9395 91V11C68.9395 8.51472 66.9247 6.5 64.4395 6.5H28.4085C28.4289 6.6638 28.4395 6.83067 28.4395 7V7.5H64.4395C66.3724 7.5 67.9395 9.067 67.9395 11V91C67.9395 92.933 66.3724 94.5 64.4395 94.5H20.4395C18.5065 94.5 16.9395 92.933 16.9395 91V46H15.9395Z" fill="url(#paint2_angular_1_241)"/>
<defs>
<filter id="filter0_d_1_241" x="0.390625" y="0" width="76" height="104" filterUnits="userSpaceOnUse" color-interpolation-filters="sRGB">
<feFlood flood-opacity="0" result="BackgroundImageFix"/>
<feColorMatrix in="SourceAlpha" type="matrix" values="0 0 0 0 0 0 0 0 0 0 0 0 0 0 0 0 0 0 127 0" result="hardAlpha"/>
<feOffset dy="1"/>
<feGaussianBlur stdDeviation="2"/>
<feComposite in2="hardAlpha" operator="out"/>
<feColorMatrix type="matrix" values="0 0 0 0 0 0 0 0 0 0 0 0 0 0 0 0 0 0 0.36 0"/>
<feBlend mode="normal" in2="BackgroundImageFix" result="effect1_dropShadow_1_241"/>
<feBlend mode="normal" in="SourceGraphic" in2="effect1_dropShadow_1_241" result="shape"/>
</filter>
<linearGradient id="paint0_linear_1_241" x1="4.39062" y1="3" x2="72.3906" y2="99" gradientUnits="userSpaceOnUse">
<stop stop-color="#D9D9D9"/>
<stop offset="1" stop-color="white"/>
</linearGradient>
<linearGradient id="paint1_linear_1_241" x1="9" y1="13" x2="71.4683" y2="97.434" gradientUnits="userSpaceOnUse">
<stop stop-color="#D9D9D9"/>
<stop offset="1" stop-color="white" stop-opacity="0"/>
</linearGradient>
<radialGradient id="paint2_angular_1_241" cx="0" cy="0" r="1" gradientUnits="userSpaceOnUse" gradientTransform="translate(42.4395 51) rotate(-168.056) scale(26.5754 26.5754)">
<stop stop-color="#40314C"/>
<stop offset="1" stop-color="#40314C" stop-opacity="0"/>
</radialGradient>
</defs>
</svg>
