<svg width="76" height="107" viewBox="0 0 76 107" fill="none" xmlns="http://www.w3.org/2000/svg">
<g filter="url(#filter0_d_1_232)">
<g filter="url(#filter1_d_1_232)">
<rect x="4" y="3" width="68" height="96" rx="5" fill="url(#paint0_linear_1_232)"/>
</g>
<path fill-rule="evenodd" clip-rule="evenodd" d="M15.5488 46V91C15.5488 93.4853 17.5635 95.5 20.0488 95.5H64.0488C66.5341 95.5 68.5488 93.4853 68.5488 91V11C68.5488 8.51472 66.5341 6.5 64.0488 6.5H28.0179C28.0383 6.6638 28.0488 6.83067 28.0488 7V7.5H64.0488C65.9818 7.5 67.5488 9.067 67.5488 11V91C67.5488 92.933 65.9818 94.5 64.0488 94.5H20.0488C18.1158 94.5 16.5488 92.933 16.5488 91V46H15.5488Z" fill="url(#paint1_angular_1_232)"/>
<g opacity="0.48">
<mask id="mask0_1_232" style="mask-type:alpha" maskUnits="userSpaceOnUse" x="9" y="8" width="60" height="87">
<rect x="9.04883" y="8" width="59" height="87" rx="4" fill="url(#paint2_linear_1_232)"/>
</mask>
<g mask="url(#mask0_1_232)">
<path fill-rule="evenodd" clip-rule="evenodd" d="M57.0454 46L67.7127 56.6673L57.0454 67.3347L46.3781 56.6673L57.0454 46ZM57.0454 52.2465L61.4665 56.6676L57.0454 61.0887L52.6243 56.6676L57.0454 52.2465ZM43.7162 59.3344L54.3835 70.0017L43.7162 80.669L33.0488 70.0017L43.7162 59.3344ZM43.7162 65.5821L48.1359 70.0018L43.7162 74.4215L39.2965 70.0018L43.7162 65.5821ZM57.0475 78.0018L65.048 86.0023L65.0389 86.0113H49.056L49.047 86.0023L57.0475 78.0018ZM70.3813 59.3344L81.0486 70.0017L70.3813 80.669L59.714 70.0017L70.3813 59.3344ZM70.3813 65.8472L74.5358 70.0017L70.3813 74.1562L66.2268 70.0017L70.3813 65.8472Z" fill="#40314C"/>
</g>
</g>
<path d="M10.7263 24C10.5663 24 10.4303 23.944 10.3183 23.832C10.2063 23.72 10.1503 23.584 10.1503 23.424V22.2C10.1503 22.056 10.1823 21.888 10.2463 21.696C10.3263 21.488 10.4943 21.28 10.7503 21.072L14.5423 17.304C15.5983 16.472 16.4463 15.768 17.0863 15.192C17.7423 14.6 18.2143 14.064 18.5023 13.584C18.8063 13.088 18.9583 12.6 18.9583 12.12C18.9583 11.4 18.7583 10.816 18.3583 10.368C17.9743 9.92 17.3583 9.696 16.5103 9.696C15.9503 9.696 15.4783 9.816 15.0943 10.056C14.7103 10.28 14.4063 10.584 14.1823 10.968C13.9743 11.352 13.8303 11.776 13.7503 12.24C13.7183 12.448 13.6303 12.592 13.4863 12.672C13.3423 12.752 13.1983 12.792 13.0543 12.792H10.9183C10.7743 12.792 10.6543 12.744 10.5583 12.648C10.4623 12.552 10.4143 12.44 10.4143 12.312C10.4303 11.624 10.5743 10.96 10.8463 10.32C11.1183 9.664 11.5103 9.088 12.0223 8.592C12.5503 8.08 13.1903 7.672 13.9423 7.368C14.6943 7.064 15.5423 6.912 16.4863 6.912C17.8143 6.912 18.9103 7.136 19.7743 7.584C20.6543 8.032 21.3103 8.64 21.7423 9.408C22.1903 10.176 22.4143 11.04 22.4143 12C22.4143 12.752 22.2703 13.448 21.9823 14.088C21.6943 14.712 21.2783 15.32 20.7343 15.912C20.1903 16.488 19.5343 17.08 18.7663 17.688L15.3583 21.144H22.1983C22.3743 21.144 22.5103 21.2 22.6063 21.312C22.7183 21.408 22.7743 21.544 22.7743 21.72V23.424C22.7743 23.584 22.7183 23.72 22.6063 23.832C22.5103 23.944 22.3743 24 22.1983 24H10.7263Z" fill="#40314C"/>
<path fill-rule="evenodd" clip-rule="evenodd" d="M15.9788 28L19.3034 31.3246L15.9788 34.6491L12.6543 31.3246L15.9788 28ZM15.9788 29.9468L17.3567 31.3246L15.9788 32.7025L14.601 31.3246L15.9788 29.9468ZM11.8246 32.1557L15.1491 35.4803L11.8246 38.8049L8.5 35.4803L11.8246 32.1557ZM11.8246 34.1029L13.202 35.4803L11.8246 36.8578L10.4471 35.4803L11.8246 34.1029ZM15.9796 37.9736L18.473 40.467L18.4702 40.4698H13.489L13.4862 40.467L15.9796 37.9736ZM20.135 32.1557L23.4596 35.4803L20.135 38.8049L16.8105 35.4803L20.135 32.1557ZM20.135 34.1855L21.4298 35.4803L20.135 36.7751L18.8402 35.4803L20.135 34.1855Z" fill="#40314C"/>
</g>
<defs>
<filter id="filter0_d_1_232" x="0" y="2" width="76" height="105" filterUnits="userSpaceOnUse" color-interpolation-filters="sRGB">
<feFlood flood-opacity="0" result="BackgroundImageFix"/>
<feColorMatrix in="SourceAlpha" type="matrix" values="0 0 0 0 0 0 0 0 0 0 0 0 0 0 0 0 0 0 127 0" result="hardAlpha"/>
<feOffset dy="4"/>
<feGaussianBlur stdDeviation="2"/>
<feComposite in2="hardAlpha" operator="out"/>
<feColorMatrix type="matrix" values="0 0 0 0 0 0 0 0 0 0 0 0 0 0 0 0 0 0 0.25 0"/>
<feBlend mode="normal" in2="BackgroundImageFix" result="effect1_dropShadow_1_232"/>
<feBlend mode="normal" in="SourceGraphic" in2="effect1_dropShadow_1_232" result="shape"/>
</filter>
<filter id="filter1_d_1_232" x="0" y="0" width="76" height="104" filterUnits="userSpaceOnUse" color-interpolation-filters="sRGB">
<feFlood flood-opacity="0" result="BackgroundImageFix"/>
<feColorMatrix in="SourceAlpha" type="matrix" values="0 0 0 0 0 0 0 0 0 0 0 0 0 0 0 0 0 0 127 0" result="hardAlpha"/>
<feOffset dy="1"/>
<feGaussianBlur stdDeviation="2"/>
<feComposite in2="hardAlpha" operator="out"/>
<feColorMatrix type="matrix" values="0 0 0 0 0 0 0 0 0 0 0 0 0 0 0 0 0 0 0.36 0"/>
<feBlend mode="normal" in2="BackgroundImageFix" result="effect1_dropShadow_1_232"/>
<feBlend mode="normal" in="SourceGraphic" in2="effect1_dropShadow_1_232" result="shape"/>
</filter>
<linearGradient id="paint0_linear_1_232" x1="4" y1="3" x2="72" y2="99" gradientUnits="userSpaceOnUse">
<stop stop-color="#D9D9D9"/>
<stop offset="1" stop-color="white"/>
</linearGradient>
<radialGradient id="paint1_angular_1_232" cx="0" cy="0" r="1" gradientUnits="userSpaceOnUse" gradientTransform="translate(42.0488 51) rotate(-168.056) scale(26.5754 26.5754)">
<stop stop-color="#40314C"/>
<stop offset="1" stop-color="#40314C" stop-opacity="0"/>
</radialGradient>
<linearGradient id="paint2_linear_1_232" x1="9.04883" y1="8" x2="71.5171" y2="92.434" gradientUnits="userSpaceOnUse">
<stop stop-color="#D9D9D9"/>
<stop offset="1" stop-color="white" stop-opacity="0"/>
</linearGradient>
</defs>
</svg>
