<svg width="77" height="107" viewBox="0 0 77 107" fill="none" xmlns="http://www.w3.org/2000/svg">
<g filter="url(#filter0_d_1_275)">
<g filter="url(#filter1_d_1_275)">
<rect x="4.43945" y="3" width="68" height="96" rx="5" fill="url(#paint0_linear_1_275)"/>
</g>
<path fill-rule="evenodd" clip-rule="evenodd" d="M15.9883 46V91C15.9883 93.4853 18.003 95.5 20.4883 95.5H64.4883C66.9736 95.5 68.9883 93.4853 68.9883 91V11C68.9883 8.51472 66.9736 6.5 64.4883 6.5H28.4573C28.4778 6.6638 28.4883 6.83067 28.4883 7V7.5H64.4883C66.4213 7.5 67.9883 9.067 67.9883 11V91C67.9883 92.933 66.4213 94.5 64.4883 94.5H20.4883C18.5553 94.5 16.9883 92.933 16.9883 91V46H15.9883Z" fill="url(#paint1_angular_1_275)"/>
<g opacity="0.48">
<mask id="mask0_1_275" style="mask-type:alpha" maskUnits="userSpaceOnUse" x="9" y="8" width="60" height="87">
<rect x="9.48828" y="8" width="59" height="87" rx="4" fill="url(#paint2_linear_1_275)"/>
</mask>
<g mask="url(#mask0_1_275)">
<path fill-rule="evenodd" clip-rule="evenodd" d="M57.4848 46L68.1522 56.6673L57.4848 67.3347L46.8175 56.6673L57.4848 46ZM57.4848 52.2465L61.9059 56.6676L57.4848 61.0887L53.0638 56.6676L57.4848 52.2465ZM44.1556 59.3344L54.8229 70.0017L44.1556 80.669L33.4883 70.0017L44.1556 59.3344ZM44.1556 65.5821L48.5753 70.0018L44.1556 74.4215L39.7359 70.0018L44.1556 65.5821ZM57.4869 78.0018L65.4874 86.0023L65.4784 86.0113H49.4954L49.4864 86.0023L57.4869 78.0018ZM70.8207 59.3344L81.4881 70.0017L70.8207 80.669L60.1534 70.0017L70.8207 59.3344ZM70.8207 65.8472L74.9753 70.0017L70.8207 74.1562L66.6662 70.0017L70.8207 65.8472Z" fill="#40314C"/>
</g>
</g>
<path d="M15.9073 24.24C15.0433 24.24 14.2193 24.136 13.4353 23.928C12.6673 23.704 11.9793 23.368 11.3713 22.92C10.7633 22.472 10.2753 21.92 9.90733 21.264C9.55533 20.608 9.37133 19.832 9.35533 18.936C9.35533 18.792 9.40333 18.672 9.49933 18.576C9.59533 18.464 9.71533 18.408 9.85933 18.408H12.1393C12.3473 18.408 12.4993 18.464 12.5953 18.576C12.7073 18.688 12.7953 18.84 12.8593 19.032C12.9393 19.608 13.1233 20.08 13.4113 20.448C13.6993 20.8 14.0593 21.064 14.4913 21.24C14.9393 21.4 15.4353 21.48 15.9793 21.48C16.9873 21.48 17.7553 21.152 18.2833 20.496C18.8273 19.84 19.0993 18.928 19.0993 17.76V10.032H10.9633C10.7873 10.032 10.6433 9.976 10.5313 9.864C10.4353 9.752 10.3873 9.616 10.3873 9.456V7.776C10.3873 7.616 10.4353 7.48 10.5313 7.368C10.6433 7.256 10.7873 7.2 10.9633 7.2H21.9313C22.1073 7.2 22.2513 7.256 22.3633 7.368C22.4753 7.48 22.5313 7.624 22.5313 7.8V17.856C22.5313 19.184 22.2513 20.328 21.6913 21.288C21.1473 22.248 20.3793 22.984 19.3873 23.496C18.4113 23.992 17.2513 24.24 15.9073 24.24Z" fill="#40314C"/>
<path fill-rule="evenodd" clip-rule="evenodd" d="M16.4183 28L19.7428 31.3246L16.4183 34.6491L13.0937 31.3246L16.4183 28ZM16.4183 29.9468L17.7961 31.3246L16.4183 32.7025L15.0404 31.3246L16.4183 29.9468ZM12.264 32.1557L15.5886 35.4803L12.264 38.8049L8.93945 35.4803L12.264 32.1557ZM12.264 34.1029L13.6414 35.4803L12.264 36.8578L10.8866 35.4803L12.264 34.1029ZM16.419 37.9736L18.9125 40.467L18.9096 40.4698H13.9284L13.9256 40.467L16.419 37.9736ZM20.5745 32.1557L23.8991 35.4803L20.5745 38.8049L17.2499 35.4803L20.5745 32.1557ZM20.5745 34.1855L21.8693 35.4803L20.5745 36.7751L19.2797 35.4803L20.5745 34.1855Z" fill="#40314C"/>
</g>
<defs>
<filter id="filter0_d_1_275" x="0.439453" y="2" width="76" height="105" filterUnits="userSpaceOnUse" color-interpolation-filters="sRGB">
<feFlood flood-opacity="0" result="BackgroundImageFix"/>
<feColorMatrix in="SourceAlpha" type="matrix" values="0 0 0 0 0 0 0 0 0 0 0 0 0 0 0 0 0 0 127 0" result="hardAlpha"/>
<feOffset dy="4"/>
<feGaussianBlur stdDeviation="2"/>
<feComposite in2="hardAlpha" operator="out"/>
<feColorMatrix type="matrix" values="0 0 0 0 0 0 0 0 0 0 0 0 0 0 0 0 0 0 0.25 0"/>
<feBlend mode="normal" in2="BackgroundImageFix" result="effect1_dropShadow_1_275"/>
<feBlend mode="normal" in="SourceGraphic" in2="effect1_dropShadow_1_275" result="shape"/>
</filter>
<filter id="filter1_d_1_275" x="0.439453" y="0" width="76" height="104" filterUnits="userSpaceOnUse" color-interpolation-filters="sRGB">
<feFlood flood-opacity="0" result="BackgroundImageFix"/>
<feColorMatrix in="SourceAlpha" type="matrix" values="0 0 0 0 0 0 0 0 0 0 0 0 0 0 0 0 0 0 127 0" result="hardAlpha"/>
<feOffset dy="1"/>
<feGaussianBlur stdDeviation="2"/>
<feComposite in2="hardAlpha" operator="out"/>
<feColorMatrix type="matrix" values="0 0 0 0 0 0 0 0 0 0 0 0 0 0 0 0 0 0 0.36 0"/>
<feBlend mode="normal" in2="BackgroundImageFix" result="effect1_dropShadow_1_275"/>
<feBlend mode="normal" in="SourceGraphic" in2="effect1_dropShadow_1_275" result="shape"/>
</filter>
<linearGradient id="paint0_linear_1_275" x1="4.43945" y1="3" x2="72.4395" y2="99" gradientUnits="userSpaceOnUse">
<stop stop-color="#D9D9D9"/>
<stop offset="1" stop-color="white"/>
</linearGradient>
<radialGradient id="paint1_angular_1_275" cx="0" cy="0" r="1" gradientUnits="userSpaceOnUse" gradientTransform="translate(42.4883 51) rotate(-168.056) scale(26.5754 26.5754)">
<stop stop-color="#40314C"/>
<stop offset="1" stop-color="#40314C" stop-opacity="0"/>
</radialGradient>
<linearGradient id="paint2_linear_1_275" x1="9.48828" y1="8" x2="71.9566" y2="92.434" gradientUnits="userSpaceOnUse">
<stop stop-color="#D9D9D9"/>
<stop offset="1" stop-color="white" stop-opacity="0"/>
</linearGradient>
</defs>
</svg>
