<svg width="77" height="107" viewBox="0 0 77 107" fill="none" xmlns="http://www.w3.org/2000/svg">
<g filter="url(#filter0_d_1_99)">
<g filter="url(#filter1_d_1_99)">
<rect x="4.24414" y="3" width="68" height="96" rx="5" fill="url(#paint0_linear_1_99)"/>
</g>
<path fill-rule="evenodd" clip-rule="evenodd" d="M15.793 46V91C15.793 93.4853 17.8077 95.5 20.293 95.5H64.293C66.7783 95.5 68.793 93.4853 68.793 91V11C68.793 8.51472 66.7783 6.5 64.293 6.5H28.262C28.2824 6.6638 28.293 6.83067 28.293 7V7.5H64.293C66.226 7.5 67.793 9.067 67.793 11V91C67.793 92.933 66.226 94.5 64.293 94.5H20.293C18.36 94.5 16.793 92.933 16.793 91V46H15.793Z" fill="url(#paint1_angular_1_99)"/>
<g opacity="0.48">
<mask id="mask0_1_99" style="mask-type:alpha" maskUnits="userSpaceOnUse" x="9" y="8" width="60" height="87">
<rect x="9.29297" y="8" width="59" height="87" rx="4" fill="url(#paint2_linear_1_99)"/>
</mask>
<g mask="url(#mask0_1_99)">
<path fill-rule="evenodd" clip-rule="evenodd" d="M57.2941 45L68.4057 56.1116L57.2941 67.2233L46.1824 56.1116L57.2941 45ZM57.2941 51.1156L62.2902 56.1117L57.2941 61.1079L52.2979 56.1117L57.2941 51.1156ZM43.4046 58.8897L54.5163 70.0013L43.4046 81.113L32.293 70.0013L43.4046 58.8897ZM43.4046 64.9976L48.4083 70.0012L43.4046 75.0049L38.401 70.0012L43.4046 64.9976ZM68.4057 83.8908L57.2941 72.7792L46.1824 83.8908L57.2941 95.0025L68.4057 83.8908ZM62.3263 83.8908L57.2941 78.8586L52.2619 83.8908L57.2941 88.923L62.3263 83.8908ZM71.1802 58.8896L82.2918 70.0013L71.1802 81.1129L60.0685 70.0013L71.1802 58.8896ZM71.1802 64.9971L76.1843 70.0012L71.1802 75.0054L66.176 70.0012L71.1802 64.9971Z" fill="#CD4747"/>
</g>
</g>
<path d="M13.2085 24C13.0645 24 12.9445 23.952 12.8485 23.856C12.7525 23.744 12.7045 23.616 12.7045 23.472C12.7045 23.408 12.7205 23.336 12.7525 23.256L18.5365 10.056H11.0005C10.8245 10.056 10.6805 10 10.5685 9.888C10.4725 9.776 10.4245 9.64 10.4245 9.48V7.8C10.4245 7.624 10.4725 7.48 10.5685 7.368C10.6805 7.256 10.8245 7.2 11.0005 7.2H21.5365C21.7125 7.2 21.8485 7.256 21.9445 7.368C22.0565 7.48 22.1125 7.624 22.1125 7.8V9.288C22.1125 9.512 22.0885 9.704 22.0405 9.864C22.0085 10.008 21.9605 10.16 21.8965 10.32L16.1605 23.424C16.1125 23.536 16.0245 23.664 15.8965 23.808C15.7845 23.936 15.6165 24 15.3925 24H13.2085Z" fill="#CD4747"/>
<path fill-rule="evenodd" clip-rule="evenodd" d="M16.2928 28L19.4039 31.1111L16.2928 34.2223L13.1816 31.1111L16.2928 28ZM16.293 29.7123L17.6918 31.1111L16.293 32.51L14.8941 31.1111L16.293 29.7123ZM12.4041 31.8889L15.5152 35L12.4041 38.1112L9.29297 35L12.4041 31.8889ZM12.4043 33.5991L13.8053 35L12.4043 36.401L11.0033 35L12.4043 33.5991ZM19.4039 38.889L16.2928 35.7778L13.1816 38.889L16.2928 42.0001L19.4039 38.889ZM17.7019 38.889L16.293 37.48L14.884 38.889L16.293 40.2979L17.7019 38.889ZM20.1814 31.8889L23.2926 35L20.1814 38.1112L17.0703 35L20.1814 31.8889ZM20.1816 33.5989L21.5827 35L20.1816 36.4011L18.7805 35L20.1816 33.5989Z" fill="#CD4747"/>
</g>
<defs>
<filter id="filter0_d_1_99" x="0.244141" y="2" width="76" height="105" filterUnits="userSpaceOnUse" color-interpolation-filters="sRGB">
<feFlood flood-opacity="0" result="BackgroundImageFix"/>
<feColorMatrix in="SourceAlpha" type="matrix" values="0 0 0 0 0 0 0 0 0 0 0 0 0 0 0 0 0 0 127 0" result="hardAlpha"/>
<feOffset dy="4"/>
<feGaussianBlur stdDeviation="2"/>
<feComposite in2="hardAlpha" operator="out"/>
<feColorMatrix type="matrix" values="0 0 0 0 0 0 0 0 0 0 0 0 0 0 0 0 0 0 0.25 0"/>
<feBlend mode="normal" in2="BackgroundImageFix" result="effect1_dropShadow_1_99"/>
<feBlend mode="normal" in="SourceGraphic" in2="effect1_dropShadow_1_99" result="shape"/>
</filter>
<filter id="filter1_d_1_99" x="0.244141" y="0" width="76" height="104" filterUnits="userSpaceOnUse" color-interpolation-filters="sRGB">
<feFlood flood-opacity="0" result="BackgroundImageFix"/>
<feColorMatrix in="SourceAlpha" type="matrix" values="0 0 0 0 0 0 0 0 0 0 0 0 0 0 0 0 0 0 127 0" result="hardAlpha"/>
<feOffset dy="1"/>
<feGaussianBlur stdDeviation="2"/>
<feComposite in2="hardAlpha" operator="out"/>
<feColorMatrix type="matrix" values="0 0 0 0 0 0 0 0 0 0 0 0 0 0 0 0 0 0 0.36 0"/>
<feBlend mode="normal" in2="BackgroundImageFix" result="effect1_dropShadow_1_99"/>
<feBlend mode="normal" in="SourceGraphic" in2="effect1_dropShadow_1_99" result="shape"/>
</filter>
<linearGradient id="paint0_linear_1_99" x1="4.24414" y1="3" x2="72.2441" y2="99" gradientUnits="userSpaceOnUse">
<stop stop-color="#D9D9D9"/>
<stop offset="1" stop-color="white"/>
</linearGradient>
<radialGradient id="paint1_angular_1_99" cx="0" cy="0" r="1" gradientUnits="userSpaceOnUse" gradientTransform="translate(42.293 51) rotate(-168.056) scale(26.5754 26.5754)">
<stop stop-color="#CD4747"/>
<stop offset="1" stop-color="#CD4747" stop-opacity="0"/>
</radialGradient>
<linearGradient id="paint2_linear_1_99" x1="9.29297" y1="8" x2="71.7613" y2="92.434" gradientUnits="userSpaceOnUse">
<stop stop-color="#D9D9D9"/>
<stop offset="1" stop-color="white" stop-opacity="0"/>
</linearGradient>
</defs>
</svg>
