<svg width="77" height="107" viewBox="0 0 77 107" fill="none" xmlns="http://www.w3.org/2000/svg">
<g filter="url(#filter0_d_1_138)">
<g filter="url(#filter1_d_1_138)">
<rect x="4.48828" y="3" width="68" height="96" rx="5" fill="url(#paint0_linear_1_138)"/>
</g>
<path fill-rule="evenodd" clip-rule="evenodd" d="M16.0371 46V91C16.0371 93.4853 18.0518 95.5 20.5371 95.5H64.5371C67.0224 95.5 69.0371 93.4853 69.0371 91V11C69.0371 8.51472 67.0224 6.5 64.5371 6.5H28.5062C28.5266 6.6638 28.5371 6.83067 28.5371 7V7.5H64.5371C66.4701 7.5 68.0371 9.067 68.0371 11V91C68.0371 92.933 66.4701 94.5 64.5371 94.5H20.5371C18.6041 94.5 17.0371 92.933 17.0371 91V46H16.0371Z" fill="url(#paint1_angular_1_138)"/>
<g opacity="0.48">
<mask id="mask0_1_138" style="mask-type:alpha" maskUnits="userSpaceOnUse" x="9" y="8" width="60" height="87">
<rect x="9.53711" y="8" width="59" height="87" rx="4" fill="url(#paint2_linear_1_138)"/>
</mask>
<g mask="url(#mask0_1_138)">
<path fill-rule="evenodd" clip-rule="evenodd" d="M57.5382 45L68.6499 56.1116L57.5382 67.2233L46.4266 56.1116L57.5382 45ZM57.5382 51.1156L62.5344 56.1117L57.5382 61.1079L52.5421 56.1117L57.5382 51.1156ZM43.6488 58.8897L54.7604 70.0013L43.6488 81.113L32.5371 70.0013L43.6488 58.8897ZM43.6488 64.9976L48.6524 70.0012L43.6488 75.0049L38.6451 70.0012L43.6488 64.9976ZM68.6499 83.8908L57.5382 72.7792L46.4266 83.8908L57.5382 95.0025L68.6499 83.8908ZM62.5704 83.8908L57.5382 78.8586L52.506 83.8908L57.5382 88.923L62.5704 83.8908ZM71.4243 58.8896L82.5359 70.0013L71.4243 81.1129L60.3127 70.0013L71.4243 58.8896ZM71.4243 64.9971L76.4284 70.0012L71.4243 75.0054L66.4202 70.0012L71.4243 64.9971Z" fill="#CD4747"/>
</g>
</g>
<path d="M21.2925 25.56C21.0685 25.56 20.8845 25.488 20.7405 25.344C20.6125 25.216 20.5085 25.104 20.4285 25.008L19.5405 23.808C18.7885 24.096 17.9325 24.24 16.9725 24.24C15.5485 24.24 14.3165 24.008 13.2765 23.544C12.2525 23.064 11.4525 22.336 10.8765 21.36C10.3165 20.368 10.0045 19.136 9.94053 17.664C9.92453 16.976 9.91653 16.296 9.91653 15.624C9.91653 14.952 9.92453 14.264 9.94053 13.56C10.0045 12.104 10.3245 10.888 10.9005 9.912C11.4925 8.936 12.3085 8.2 13.3485 7.704C14.3885 7.208 15.5965 6.96 16.9725 6.96C18.3485 6.96 19.5565 7.208 20.5965 7.704C21.6365 8.2 22.4525 8.936 23.0445 9.912C23.6365 10.888 23.9485 12.104 23.9805 13.56C24.0125 14.264 24.0285 14.952 24.0285 15.624C24.0285 16.296 24.0125 16.976 23.9805 17.664C23.9005 19.76 23.3245 21.352 22.2525 22.44L23.9325 24.816C23.9485 24.832 23.9645 24.856 23.9805 24.888C23.9965 24.936 24.0045 24.992 24.0045 25.056C24.0205 25.2 23.9725 25.32 23.8605 25.416C23.7645 25.512 23.6525 25.56 23.5245 25.56H21.2925ZM16.9725 21.48C17.9965 21.48 18.8365 21.176 19.4925 20.568C20.1485 19.944 20.5005 18.936 20.5485 17.544C20.5805 16.84 20.5965 16.192 20.5965 15.6C20.5965 14.992 20.5805 14.344 20.5485 13.656C20.5325 12.728 20.3645 11.976 20.0445 11.4C19.7245 10.808 19.3005 10.384 18.7725 10.128C18.2605 9.856 17.6605 9.72 16.9725 9.72C16.3005 9.72 15.7005 9.856 15.1725 10.128C14.6445 10.384 14.2205 10.808 13.9005 11.4C13.5965 11.976 13.4205 12.728 13.3725 13.656C13.3565 14.344 13.3485 14.992 13.3485 15.6C13.3485 16.192 13.3565 16.84 13.3725 17.544C13.4365 18.936 13.7965 19.944 14.4525 20.568C15.1085 21.176 15.9485 21.48 16.9725 21.48Z" fill="#CD4747"/>
<path fill-rule="evenodd" clip-rule="evenodd" d="M16.5371 28L19.6482 31.1111L16.5371 34.2223L13.426 31.1111L16.5371 28ZM16.5373 29.7123L17.9362 31.1111L16.5373 32.51L15.1384 31.1111L16.5373 29.7123ZM12.6484 31.8889L15.7596 35L12.6484 38.1112L9.53731 35L12.6484 31.8889ZM12.6486 33.5991L14.0496 35L12.6486 36.401L11.2477 35L12.6486 33.5991ZM19.6482 38.889L16.5371 35.7778L13.426 38.889L16.5371 42.0001L19.6482 38.889ZM17.9463 38.889L16.5373 37.48L15.1284 38.889L16.5373 40.2979L17.9463 38.889ZM20.4258 31.8889L23.5369 35L20.4258 38.1112L17.3147 35L20.4258 31.8889ZM20.426 33.5989L21.8271 35L20.426 36.4011L19.0249 35L20.426 33.5989Z" fill="#CD4747"/>
</g>
<defs>
<filter id="filter0_d_1_138" x="0.488281" y="2" width="76" height="105" filterUnits="userSpaceOnUse" color-interpolation-filters="sRGB">
<feFlood flood-opacity="0" result="BackgroundImageFix"/>
<feColorMatrix in="SourceAlpha" type="matrix" values="0 0 0 0 0 0 0 0 0 0 0 0 0 0 0 0 0 0 127 0" result="hardAlpha"/>
<feOffset dy="4"/>
<feGaussianBlur stdDeviation="2"/>
<feComposite in2="hardAlpha" operator="out"/>
<feColorMatrix type="matrix" values="0 0 0 0 0 0 0 0 0 0 0 0 0 0 0 0 0 0 0.25 0"/>
<feBlend mode="normal" in2="BackgroundImageFix" result="effect1_dropShadow_1_138"/>
<feBlend mode="normal" in="SourceGraphic" in2="effect1_dropShadow_1_138" result="shape"/>
</filter>
<filter id="filter1_d_1_138" x="0.488281" y="0" width="76" height="104" filterUnits="userSpaceOnUse" color-interpolation-filters="sRGB">
<feFlood flood-opacity="0" result="BackgroundImageFix"/>
<feColorMatrix in="SourceAlpha" type="matrix" values="0 0 0 0 0 0 0 0 0 0 0 0 0 0 0 0 0 0 127 0" result="hardAlpha"/>
<feOffset dy="1"/>
<feGaussianBlur stdDeviation="2"/>
<feComposite in2="hardAlpha" operator="out"/>
<feColorMatrix type="matrix" values="0 0 0 0 0 0 0 0 0 0 0 0 0 0 0 0 0 0 0.36 0"/>
<feBlend mode="normal" in2="BackgroundImageFix" result="effect1_dropShadow_1_138"/>
<feBlend mode="normal" in="SourceGraphic" in2="effect1_dropShadow_1_138" result="shape"/>
</filter>
<linearGradient id="paint0_linear_1_138" x1="4.48828" y1="3" x2="72.4883" y2="99" gradientUnits="userSpaceOnUse">
<stop stop-color="#D9D9D9"/>
<stop offset="1" stop-color="white"/>
</linearGradient>
<radialGradient id="paint1_angular_1_138" cx="0" cy="0" r="1" gradientUnits="userSpaceOnUse" gradientTransform="translate(42.5371 51) rotate(-168.056) scale(26.5754 26.5754)">
<stop stop-color="#CD4747"/>
<stop offset="1" stop-color="#CD4747" stop-opacity="0"/>
</radialGradient>
<linearGradient id="paint2_linear_1_138" x1="9.53711" y1="8" x2="72.0054" y2="92.434" gradientUnits="userSpaceOnUse">
<stop stop-color="#D9D9D9"/>
<stop offset="1" stop-color="white" stop-opacity="0"/>
</linearGradient>
</defs>
</svg>
