<svg width="77" height="107" viewBox="0 0 77 107" fill="none" xmlns="http://www.w3.org/2000/svg">
<g filter="url(#filter0_d_1_165)">
<g filter="url(#filter1_d_1_165)">
<rect x="4.09766" y="3" width="68" height="96" rx="5" fill="url(#paint0_linear_1_165)"/>
</g>
<path fill-rule="evenodd" clip-rule="evenodd" d="M15.6465 46V91C15.6465 93.4853 17.6612 95.5 20.1465 95.5H64.1465C66.6318 95.5 68.6465 93.4853 68.6465 91V11C68.6465 8.51472 66.6318 6.5 64.1465 6.5H28.1155C28.136 6.6638 28.1465 6.83067 28.1465 7V7.5H64.1465C66.0795 7.5 67.6465 9.067 67.6465 11V91C67.6465 92.933 66.0795 94.5 64.1465 94.5H20.1465C18.2135 94.5 16.6465 92.933 16.6465 91V46H15.6465Z" fill="url(#paint1_angular_1_165)"/>
<g opacity="0.48">
<mask id="mask0_1_165" style="mask-type:alpha" maskUnits="userSpaceOnUse" x="9" y="8" width="60" height="87">
<rect x="9.14648" y="8" width="59" height="87" rx="4" fill="url(#paint2_linear_1_165)"/>
</mask>
<g mask="url(#mask0_1_165)">
<path fill-rule="evenodd" clip-rule="evenodd" d="M55.7296 60.2076L44.5221 49L39.6404 53.8817L39.6552 53.8965L30.1465 63.4052L43.7503 77.0091L43.7304 77.029L54.6293 87.928L65.5282 77.029L65.5261 77.0269L79.1477 63.4052L70.7257 54.9832L70.7283 54.9806L65.8424 50.0948L55.7296 60.2076Z" fill="#CD4747"/>
</g>
</g>
<path d="M17.7495 24C17.5895 24 17.4535 23.944 17.3415 23.832C17.2295 23.72 17.1735 23.584 17.1735 23.424V20.352H9.56553C9.38953 20.352 9.24553 20.296 9.13353 20.184C9.03753 20.072 8.98953 19.936 8.98953 19.776V18.144C8.98953 18.048 9.00553 17.936 9.03753 17.808C9.08553 17.664 9.15753 17.536 9.25353 17.424L16.3335 7.608C16.5415 7.336 16.8375 7.2 17.2215 7.2H19.8375C19.9975 7.2 20.1335 7.256 20.2455 7.368C20.3575 7.48 20.4135 7.616 20.4135 7.776V17.52H22.5495C22.7415 17.52 22.8855 17.576 22.9815 17.688C23.0935 17.784 23.1495 17.92 23.1495 18.096V19.776C23.1495 19.936 23.0935 20.072 22.9815 20.184C22.8695 20.296 22.7335 20.352 22.5735 20.352H20.4135V23.424C20.4135 23.584 20.3575 23.72 20.2455 23.832C20.1335 23.944 19.9975 24 19.8375 24H17.7495ZM12.3255 17.616H17.2455V10.68L12.3255 17.616Z" fill="#CD4747"/>
<path fill-rule="evenodd" clip-rule="evenodd" d="M16.5181 33.2295L13.2886 30L11.8821 31.4065L11.8863 31.4107L9.14648 34.1505L13.0667 38.0707L13.0617 38.0758L16.2019 41.216L19.3422 38.0758L19.3411 38.0747L23.2652 34.1505L20.8389 31.7241L20.8398 31.7232L19.4321 30.3154L16.5181 33.2295Z" fill="#CD4747"/>
</g>
<defs>
<filter id="filter0_d_1_165" x="0.0976562" y="2" width="76" height="105" filterUnits="userSpaceOnUse" color-interpolation-filters="sRGB">
<feFlood flood-opacity="0" result="BackgroundImageFix"/>
<feColorMatrix in="SourceAlpha" type="matrix" values="0 0 0 0 0 0 0 0 0 0 0 0 0 0 0 0 0 0 127 0" result="hardAlpha"/>
<feOffset dy="4"/>
<feGaussianBlur stdDeviation="2"/>
<feComposite in2="hardAlpha" operator="out"/>
<feColorMatrix type="matrix" values="0 0 0 0 0 0 0 0 0 0 0 0 0 0 0 0 0 0 0.25 0"/>
<feBlend mode="normal" in2="BackgroundImageFix" result="effect1_dropShadow_1_165"/>
<feBlend mode="normal" in="SourceGraphic" in2="effect1_dropShadow_1_165" result="shape"/>
</filter>
<filter id="filter1_d_1_165" x="0.0976562" y="0" width="76" height="104" filterUnits="userSpaceOnUse" color-interpolation-filters="sRGB">
<feFlood flood-opacity="0" result="BackgroundImageFix"/>
<feColorMatrix in="SourceAlpha" type="matrix" values="0 0 0 0 0 0 0 0 0 0 0 0 0 0 0 0 0 0 127 0" result="hardAlpha"/>
<feOffset dy="1"/>
<feGaussianBlur stdDeviation="2"/>
<feComposite in2="hardAlpha" operator="out"/>
<feColorMatrix type="matrix" values="0 0 0 0 0 0 0 0 0 0 0 0 0 0 0 0 0 0 0.36 0"/>
<feBlend mode="normal" in2="BackgroundImageFix" result="effect1_dropShadow_1_165"/>
<feBlend mode="normal" in="SourceGraphic" in2="effect1_dropShadow_1_165" result="shape"/>
</filter>
<linearGradient id="paint0_linear_1_165" x1="4.09766" y1="3" x2="72.0977" y2="99" gradientUnits="userSpaceOnUse">
<stop stop-color="#D9D9D9"/>
<stop offset="1" stop-color="white"/>
</linearGradient>
<radialGradient id="paint1_angular_1_165" cx="0" cy="0" r="1" gradientUnits="userSpaceOnUse" gradientTransform="translate(42.1465 51) rotate(-168.056) scale(26.5754 26.5754)">
<stop stop-color="#CD4747"/>
<stop offset="1" stop-color="#CD4747" stop-opacity="0"/>
</radialGradient>
<linearGradient id="paint2_linear_1_165" x1="9.14648" y1="8" x2="71.6148" y2="92.434" gradientUnits="userSpaceOnUse">
<stop stop-color="#D9D9D9"/>
<stop offset="1" stop-color="white" stop-opacity="0"/>
</linearGradient>
</defs>
</svg>
