<svg width="77" height="107" viewBox="0 0 77 107" fill="none" xmlns="http://www.w3.org/2000/svg">
<g filter="url(#filter0_d_1_2)">
<g filter="url(#filter1_d_1_2)">
<rect x="4.95117" y="3" width="68" height="96" rx="5" fill="url(#paint0_linear_1_2)"/>
</g>
<g opacity="0.48">
<mask id="mask0_1_2" style="mask-type:alpha" maskUnits="userSpaceOnUse" x="10" y="8" width="59" height="87">
<rect x="10" y="8" width="59" height="87" rx="4" fill="url(#paint1_linear_1_2)"/>
</mask>
<g mask="url(#mask0_1_2)">
<path fill-rule="evenodd" clip-rule="evenodd" d="M67.6257 53.4082L58.2175 44L43.6524 58.5652L43.6514 58.5641L32 70.2155L43.6514 81.8668L52.2882 73.23L52.2893 73.231L58.2187 67.3016L72.784 81.8669L84.4353 70.2155L67.6269 53.407L67.6257 53.4082ZM58.2105 78.9539L66.949 87.6925L66.9392 87.7023H49.4818L49.472 87.6925L58.2105 78.9539Z" fill="#40314C"/>
</g>
</g>
<path fill-rule="evenodd" clip-rule="evenodd" d="M16.5 46V91C16.5 93.4853 18.5147 95.5 21 95.5H65C67.4853 95.5 69.5 93.4853 69.5 91V11C69.5 8.51472 67.4853 6.5 65 6.5H28.9691C28.9895 6.6638 29 6.83067 29 7V7.5H65C66.933 7.5 68.5 9.067 68.5 11V91C68.5 92.933 66.933 94.5 65 94.5H21C19.067 94.5 17.5 92.933 17.5 91V46H16.5Z" fill="url(#paint2_angular_1_2)"/>
<path d="M9.97086 24C9.84286 24 9.72286 23.952 9.61086 23.856C9.51486 23.76 9.46686 23.64 9.46686 23.496C9.46686 23.432 9.48286 23.36 9.51486 23.28L15.2989 7.8C15.3469 7.64 15.4349 7.504 15.5629 7.392C15.7069 7.264 15.8989 7.2 16.1389 7.2H18.7549C18.9949 7.2 19.1789 7.264 19.3069 7.392C19.4349 7.504 19.5309 7.64 19.5949 7.8L25.3789 23.28C25.3949 23.36 25.4029 23.432 25.4029 23.496C25.4029 23.64 25.3549 23.76 25.2589 23.856C25.1629 23.952 25.0509 24 24.9229 24H22.8349C22.6109 24 22.4429 23.952 22.3309 23.856C22.2349 23.744 22.1709 23.64 22.1389 23.544L21.0109 20.616H13.8829L12.7549 23.544C12.7229 23.64 12.6509 23.744 12.5389 23.856C12.4429 23.952 12.2829 24 12.0589 24H9.97086ZM14.7229 17.856H20.1709L17.4349 10.44L14.7229 17.856Z" fill="#40314C"/>
<path fill-rule="evenodd" clip-rule="evenodd" d="M20.1003 31.9205L16.9805 28.8006L13.0806 32.7005L13.0805 32.7005L9.96063 35.8204L13.0805 38.9403L15.393 36.6278L15.393 36.6278L16.9803 35.0406L20.88 38.9403L23.9999 35.8204L20.1002 31.9207L20.1003 31.9205ZM16.9787 38.1602L19.3186 40.5002L19.316 40.5028H14.6414L14.6388 40.5002L16.9787 38.1602Z" fill="#40314C"/>
</g>
<defs>
<filter id="filter0_d_1_2" x="0.951172" y="2" width="76" height="105" filterUnits="userSpaceOnUse" color-interpolation-filters="sRGB">
<feFlood flood-opacity="0" result="BackgroundImageFix"/>
<feColorMatrix in="SourceAlpha" type="matrix" values="0 0 0 0 0 0 0 0 0 0 0 0 0 0 0 0 0 0 127 0" result="hardAlpha"/>
<feOffset dy="4"/>
<feGaussianBlur stdDeviation="2"/>
<feComposite in2="hardAlpha" operator="out"/>
<feColorMatrix type="matrix" values="0 0 0 0 0 0 0 0 0 0 0 0 0 0 0 0 0 0 0.25 0"/>
<feBlend mode="normal" in2="BackgroundImageFix" result="effect1_dropShadow_1_2"/>
<feBlend mode="normal" in="SourceGraphic" in2="effect1_dropShadow_1_2" result="shape"/>
</filter>
<filter id="filter1_d_1_2" x="0.951172" y="0" width="76" height="104" filterUnits="userSpaceOnUse" color-interpolation-filters="sRGB">
<feFlood flood-opacity="0" result="BackgroundImageFix"/>
<feColorMatrix in="SourceAlpha" type="matrix" values="0 0 0 0 0 0 0 0 0 0 0 0 0 0 0 0 0 0 127 0" result="hardAlpha"/>
<feOffset dy="1"/>
<feGaussianBlur stdDeviation="2"/>
<feComposite in2="hardAlpha" operator="out"/>
<feColorMatrix type="matrix" values="0 0 0 0 0 0 0 0 0 0 0 0 0 0 0 0 0 0 0.36 0"/>
<feBlend mode="normal" in2="BackgroundImageFix" result="effect1_dropShadow_1_2"/>
<feBlend mode="normal" in="SourceGraphic" in2="effect1_dropShadow_1_2" result="shape"/>
</filter>
<linearGradient id="paint0_linear_1_2" x1="4.95117" y1="3" x2="72.9512" y2="99" gradientUnits="userSpaceOnUse">
<stop stop-color="#D9D9D9"/>
<stop offset="1" stop-color="white"/>
</linearGradient>
<linearGradient id="paint1_linear_1_2" x1="10" y1="8" x2="72.4683" y2="92.434" gradientUnits="userSpaceOnUse">
<stop stop-color="#D9D9D9"/>
<stop offset="1" stop-color="white" stop-opacity="0"/>
</linearGradient>
<radialGradient id="paint2_angular_1_2" cx="0" cy="0" r="1" gradientUnits="userSpaceOnUse" gradientTransform="translate(43 51) rotate(-168.056) scale(26.5754 26.5754)">
<stop stop-color="#40314C"/>
<stop offset="1" stop-color="#40314C" stop-opacity="0"/>
</radialGradient>
</defs>
</svg>
