<svg fill="none" xmlns="http://www.w3.org/2000/svg" viewBox="4.39 3 68 97"> <g filter="url(#filter0_d_1_240)"> <g filter="url(#filter1_d_1_240)"> <rect x="4.39062" y="3" width="68" height="96" rx="5" fill="url(#paint0_linear_1_240)"></rect> </g> <g opacity="0.48"> <mask id="mask0_1_240" style="mask-type:alpha" maskUnits="userSpaceOnUse" x="9" y="13" width="59" height="87"> <rect x="9" y="13" width="59" height="87" rx="4" fill="url(#paint1_linear_1_240)"></rect> </mask> <g mask="url(#mask0_1_240)"> <path fill-rule="evenodd" clip-rule="evenodd" d="M56.9966 51L67.6639 61.6673L56.9966 72.3347L46.3292 61.6673L56.9966 51ZM56.9966 57.2465L61.4176 61.6676L56.9966 66.0887L52.5755 61.6676L56.9966 57.2465ZM43.6673 64.3344L54.3347 75.0017L43.6673 85.669L33 75.0017L43.6673 64.3344ZM43.6673 70.5821L48.087 75.0018L43.6673 79.4215L39.2476 75.0018L43.6673 70.5821ZM56.9986 83.0018L64.9991 91.0023L64.9901 91.0113H49.0071L48.9981 91.0023L56.9986 83.0018ZM70.3325 64.3344L80.9998 75.0017L70.3325 85.669L59.6651 75.0017L70.3325 64.3344ZM70.3325 70.8472L74.487 75.0017L70.3325 79.1562L66.1779 75.0017L70.3325 70.8472Z" fill="#40314C"></path> </g> </g> <path fill-rule="evenodd" clip-rule="evenodd" d="M15.9395 46V91C15.9395 93.4853 17.9542 95.5 20.4395 95.5H64.4395C66.9247 95.5 68.9395 93.4853 68.9395 91V11C68.9395 8.51472 66.9247 6.5 64.4395 6.5H28.4085C28.4289 6.6638 28.4395 6.83067 28.4395 7V7.5H64.4395C66.3724 7.5 67.9395 9.067 67.9395 11V91C67.9395 92.933 66.3724 94.5 64.4395 94.5H20.4395C18.5065 94.5 16.9395 92.933 16.9395 91V46H15.9395Z" fill="url(#paint2_angular_1_240)"></path> <path d="M11.7956 22C11.6636 22 11.5556 21.958 11.4716 21.874C11.3996 21.79 11.3636 21.688 11.3636 21.568V12.244L8.62757 14.35C8.51957 14.422 8.41157 14.452 8.30357 14.44C8.19557 14.416 8.09957 14.35 8.01557 14.242L7.25957 13.27C7.18757 13.162 7.15757 13.048 7.16957 12.928C7.19357 12.808 7.25957 12.712 7.36757 12.64L11.3996 9.526C11.4716 9.466 11.5436 9.43 11.6156 9.418C11.6876 9.406 11.7656 9.4 11.8496 9.4H13.4336C13.5536 9.4 13.6556 9.442 13.7396 9.526C13.8236 9.61 13.8656 9.712 13.8656 9.832V21.568C13.8656 21.688 13.8236 21.79 13.7396 21.874C13.6556 21.958 13.5536 22 13.4336 22H11.7956ZM21.0456 22.18C20.1936 22.18 19.4676 22.054 18.8676 21.802C18.2676 21.55 17.7756 21.202 17.3916 20.758C17.0076 20.314 16.7196 19.804 16.5276 19.228C16.3356 18.64 16.2216 18.016 16.1856 17.356C16.1736 17.032 16.1616 16.678 16.1496 16.294C16.1496 15.898 16.1496 15.502 16.1496 15.106C16.1616 14.71 16.1736 14.344 16.1856 14.008C16.2096 13.348 16.3236 12.73 16.5276 12.154C16.7316 11.566 17.0256 11.056 17.4096 10.624C17.8056 10.192 18.3036 9.85 18.9036 9.598C19.5036 9.346 20.2176 9.22 21.0456 9.22C21.8856 9.22 22.6056 9.346 23.2056 9.598C23.8056 9.85 24.2976 10.192 24.6816 10.624C25.0776 11.056 25.3716 11.566 25.5636 12.154C25.7676 12.73 25.8816 13.348 25.9056 14.008C25.9296 14.344 25.9416 14.71 25.9416 15.106C25.9416 15.502 25.9416 15.898 25.9416 16.294C25.9416 16.678 25.9296 17.032 25.9056 17.356C25.8816 18.016 25.7736 18.64 25.5816 19.228C25.3896 19.804 25.1016 20.314 24.7176 20.758C24.3336 21.202 23.8356 21.55 23.2236 21.802C22.6236 22.054 21.8976 22.18 21.0456 22.18ZM21.0456 20.11C21.8256 20.11 22.3956 19.858 22.7556 19.354C23.1276 18.838 23.3196 18.142 23.3316 17.266C23.3556 16.918 23.3676 16.57 23.3676 16.222C23.3676 15.862 23.3676 15.502 23.3676 15.142C23.3676 14.782 23.3556 14.44 23.3316 14.116C23.3196 13.264 23.1276 12.58 22.7556 12.064C22.3956 11.536 21.8256 11.272 21.0456 11.272C20.2776 11.272 19.7076 11.536 19.3356 12.064C18.9756 12.58 18.7836 13.264 18.7596 14.116C18.7596 14.44 18.7536 14.782 18.7416 15.142C18.7416 15.502 18.7416 15.862 18.7416 16.222C18.7536 16.57 18.7596 16.918 18.7596 17.266C18.7836 18.142 18.9816 18.838 19.3536 19.354C19.7256 19.858 20.2896 20.11 21.0456 20.11Z" fill="#40314C"></path> <path fill-rule="evenodd" clip-rule="evenodd" d="M16.3694 28L19.694 31.3246L16.3694 34.6491L13.0449 31.3246L16.3694 28ZM16.3694 29.9468L17.7473 31.3246L16.3694 32.7025L14.9916 31.3246L16.3694 29.9468ZM12.2152 32.1557L15.5397 35.4803L12.2152 38.8049L8.89062 35.4803L12.2152 32.1557ZM12.2152 34.1029L13.5926 35.4803L12.2152 36.8578L10.8377 35.4803L12.2152 34.1029ZM16.3702 37.9736L18.8636 40.467L18.8608 40.4698H13.8796L13.8768 40.467L16.3702 37.9736ZM20.5257 32.1557L23.8502 35.4803L20.5257 38.8049L17.2011 35.4803L20.5257 32.1557ZM20.5257 34.1855L21.8205 35.4803L20.5257 36.7751L19.2309 35.4803L20.5257 34.1855Z" fill="#40314C"></path> </g> <defs> <filter id="filter0_d_1_240" x="0.390625" y="2" width="76" height="105" filterUnits="userSpaceOnUse" color-interpolation-filters="sRGB"> <feFlood flood-opacity="0" result="BackgroundImageFix"></feFlood> <feColorMatrix in="SourceAlpha" type="matrix" values="0 0 0 0 0 0 0 0 0 0 0 0 0 0 0 0 0 0 127 0" result="hardAlpha"></feColorMatrix> <feOffset dy="4"></feOffset> <feGaussianBlur stdDeviation="2"></feGaussianBlur> <feComposite in2="hardAlpha" operator="out"></feComposite> <feColorMatrix type="matrix" values="0 0 0 0 0 0 0 0 0 0 0 0 0 0 0 0 0 0 0.25 0"></feColorMatrix> <feBlend mode="normal" in2="BackgroundImageFix" result="effect1_dropShadow_1_240"></feBlend> <feBlend mode="normal" in="SourceGraphic" in2="effect1_dropShadow_1_240" result="shape"></feBlend> </filter> <filter id="filter1_d_1_240" x="0.390625" y="0" width="76" height="104" filterUnits="userSpaceOnUse" color-interpolation-filters="sRGB"> <feFlood flood-opacity="0" result="BackgroundImageFix"></feFlood> <feColorMatrix in="SourceAlpha" type="matrix" values="0 0 0 0 0 0 0 0 0 0 0 0 0 0 0 0 0 0 127 0" result="hardAlpha"></feColorMatrix> <feOffset dy="1"></feOffset> <feGaussianBlur stdDeviation="2"></feGaussianBlur> <feComposite in2="hardAlpha" operator="out"></feComposite> <feColorMatrix type="matrix" values="0 0 0 0 0 0 0 0 0 0 0 0 0 0 0 0 0 0 0.36 0"></feColorMatrix> <feBlend mode="normal" in2="BackgroundImageFix" result="effect1_dropShadow_1_240"></feBlend> <feBlend mode="normal" in="SourceGraphic" in2="effect1_dropShadow_1_240" result="shape"></feBlend> </filter> <linearGradient id="paint0_linear_1_240" x1="4.39062" y1="3" x2="72.3906" y2="99" gradientUnits="userSpaceOnUse"> <stop stop-color="#D9D9D9"></stop> <stop offset="1" stop-color="white"></stop> </linearGradient> <linearGradient id="paint1_linear_1_240" x1="9" y1="13" x2="71.4683" y2="97.434" gradientUnits="userSpaceOnUse"> <stop stop-color="#D9D9D9"></stop> <stop offset="1" stop-color="white" stop-opacity="0"></stop> </linearGradient> <radialGradient id="paint2_angular_1_240" cx="0" cy="0" r="1" gradientUnits="userSpaceOnUse" gradientTransform="translate(42.4395 51) rotate(-168.056) scale(26.5754 26.5754)"> <stop stop-color="#40314C"></stop> <stop offset="1" stop-color="#40314C" stop-opacity="0"></stop> </radialGradient> </defs> </svg>