<svg xmlns="http://www.w3.org/2000/svg" fill="none" viewBox="4.1 3 68 96">
<g filter="url(#filter0_d_1_234)">
<g filter="url(#filter1_d_1_234)">
<rect x="4.09766" y="3" width="68" height="96" rx="5" fill="url(#paint0_linear_1_234)"/>
</g>
<path fill-rule="evenodd" clip-rule="evenodd" d="M15.6465 46V91C15.6465 93.4853 17.6612 95.5 20.1465 95.5H64.1465C66.6318 95.5 68.6465 93.4853 68.6465 91V11C68.6465 8.51472 66.6318 6.5 64.1465 6.5H28.1155C28.136 6.6638 28.1465 6.83067 28.1465 7V7.5H64.1465C66.0795 7.5 67.6465 9.067 67.6465 11V91C67.6465 92.933 66.0795 94.5 64.1465 94.5H20.1465C18.2135 94.5 16.6465 92.933 16.6465 91V46H15.6465Z" fill="url(#paint1_angular_1_234)"/>
<g opacity="0.48">
<mask id="mask0_1_234" style="mask-type:alpha" maskUnits="userSpaceOnUse" x="9" y="8" width="60" height="87">
<rect x="9.14648" y="8" width="59" height="87" rx="4" fill="url(#paint2_linear_1_234)"/>
</mask>
<g mask="url(#mask0_1_234)">
<path fill-rule="evenodd" clip-rule="evenodd" d="M57.143 46L67.8104 56.6673L57.143 67.3347L46.4757 56.6673L57.143 46ZM57.143 52.2465L61.5641 56.6676L57.143 61.0887L52.722 56.6676L57.143 52.2465ZM43.8138 59.3344L54.4811 70.0017L43.8138 80.669L33.1465 70.0017L43.8138 59.3344ZM43.8138 65.5821L48.2335 70.0018L43.8138 74.4215L39.3941 70.0018L43.8138 65.5821ZM57.1451 78.0018L65.1456 86.0023L65.1366 86.0113H49.1536L49.1446 86.0023L57.1451 78.0018ZM70.4789 59.3344L81.1463 70.0017L70.4789 80.669L59.8116 70.0017L70.4789 59.3344ZM70.4789 65.8472L74.6335 70.0017L70.4789 74.1562L66.3244 70.0017L70.4789 65.8472Z" fill="#40314C"/>
</g>
</g>
<path d="M17.7495 24C17.5895 24 17.4535 23.944 17.3415 23.832C17.2295 23.72 17.1735 23.584 17.1735 23.424V20.352H9.56553C9.38953 20.352 9.24553 20.296 9.13353 20.184C9.03753 20.072 8.98953 19.936 8.98953 19.776V18.144C8.98953 18.048 9.00553 17.936 9.03753 17.808C9.08553 17.664 9.15753 17.536 9.25353 17.424L16.3335 7.608C16.5415 7.336 16.8375 7.2 17.2215 7.2H19.8375C19.9975 7.2 20.1335 7.256 20.2455 7.368C20.3575 7.48 20.4135 7.616 20.4135 7.776V17.52H22.5495C22.7415 17.52 22.8855 17.576 22.9815 17.688C23.0935 17.784 23.1495 17.92 23.1495 18.096V19.776C23.1495 19.936 23.0935 20.072 22.9815 20.184C22.8695 20.296 22.7335 20.352 22.5735 20.352H20.4135V23.424C20.4135 23.584 20.3575 23.72 20.2455 23.832C20.1335 23.944 19.9975 24 19.8375 24H17.7495ZM12.3255 17.616H17.2455V10.68L12.3255 17.616Z" fill="#40314C"/>
<path fill-rule="evenodd" clip-rule="evenodd" d="M16.0765 28L19.401 31.3246L16.0765 34.6491L12.7519 31.3246L16.0765 28ZM16.0765 29.9468L17.4543 31.3246L16.0765 32.7025L14.6986 31.3246L16.0765 29.9468ZM11.9222 32.1557L15.2468 35.4803L11.9222 38.8049L8.59766 35.4803L11.9222 32.1557ZM11.9222 34.1029L13.2997 35.4803L11.9222 36.8578L10.5448 35.4803L11.9222 34.1029ZM16.0772 37.9736L18.5707 40.467L18.5678 40.4698H13.5866L13.5838 40.467L16.0772 37.9736ZM20.2327 32.1557L23.5573 35.4803L20.2327 38.8049L16.9081 35.4803L20.2327 32.1557ZM20.2327 34.1855L21.5275 35.4803L20.2327 36.7751L18.9379 35.4803L20.2327 34.1855Z" fill="#40314C"/>
</g>
<defs>
<filter id="filter0_d_1_234" x="0.0976562" y="2" width="76" height="105" filterUnits="userSpaceOnUse" color-interpolation-filters="sRGB">
<feFlood flood-opacity="0" result="BackgroundImageFix"/>
<feColorMatrix in="SourceAlpha" type="matrix" values="0 0 0 0 0 0 0 0 0 0 0 0 0 0 0 0 0 0 127 0" result="hardAlpha"/>
<feOffset dy="4"/>
<feGaussianBlur stdDeviation="2"/>
<feComposite in2="hardAlpha" operator="out"/>
<feColorMatrix type="matrix" values="0 0 0 0 0 0 0 0 0 0 0 0 0 0 0 0 0 0 0.25 0"/>
<feBlend mode="normal" in2="BackgroundImageFix" result="effect1_dropShadow_1_234"/>
<feBlend mode="normal" in="SourceGraphic" in2="effect1_dropShadow_1_234" result="shape"/>
</filter>
<filter id="filter1_d_1_234" x="0.0976562" y="0" width="76" height="104" filterUnits="userSpaceOnUse" color-interpolation-filters="sRGB">
<feFlood flood-opacity="0" result="BackgroundImageFix"/>
<feColorMatrix in="SourceAlpha" type="matrix" values="0 0 0 0 0 0 0 0 0 0 0 0 0 0 0 0 0 0 127 0" result="hardAlpha"/>
<feOffset dy="1"/>
<feGaussianBlur stdDeviation="2"/>
<feComposite in2="hardAlpha" operator="out"/>
<feColorMatrix type="matrix" values="0 0 0 0 0 0 0 0 0 0 0 0 0 0 0 0 0 0 0.36 0"/>
<feBlend mode="normal" in2="BackgroundImageFix" result="effect1_dropShadow_1_234"/>
<feBlend mode="normal" in="SourceGraphic" in2="effect1_dropShadow_1_234" result="shape"/>
</filter>
<linearGradient id="paint0_linear_1_234" x1="4.09766" y1="3" x2="72.0977" y2="99" gradientUnits="userSpaceOnUse">
<stop stop-color="#D9D9D9"/>
<stop offset="1" stop-color="white"/>
</linearGradient>
<radialGradient id="paint1_angular_1_234" cx="0" cy="0" r="1" gradientUnits="userSpaceOnUse" gradientTransform="translate(42.1465 51) rotate(-168.056) scale(26.5754 26.5754)">
<stop stop-color="#40314C"/>
<stop offset="1" stop-color="#40314C" stop-opacity="0"/>
</radialGradient>
<linearGradient id="paint2_linear_1_234" x1="9.14648" y1="8" x2="71.6148" y2="92.434" gradientUnits="userSpaceOnUse">
<stop stop-color="#D9D9D9"/>
<stop offset="1" stop-color="white" stop-opacity="0"/>
</linearGradient>
</defs>
</svg>