<svg xmlns="http://www.w3.org/2000/svg" fill="none" viewBox="4.95 3 68 96">
<g filter="url(#filter0_d_1_197)">
<g filter="url(#filter1_d_1_197)">
<rect x="4.95117" y="3" width="68" height="96" rx="5" fill="url(#paint0_linear_1_197)"/>
</g>
<path fill-rule="evenodd" clip-rule="evenodd" d="M16.5 46V91C16.5 93.4853 18.5147 95.5 21 95.5H65C67.4853 95.5 69.5 93.4853 69.5 91V11C69.5 8.51472 67.4853 6.5 65 6.5H28.9691C28.9895 6.6638 29 6.83067 29 7V7.5H65C66.933 7.5 68.5 9.067 68.5 11V91C68.5 92.933 66.933 94.5 65 94.5H21C19.067 94.5 17.5 92.933 17.5 91V46H16.5Z" fill="url(#paint1_angular_1_197)"/>
<g opacity="0.48">
<mask id="mask0_1_197" style="mask-type:alpha" maskUnits="userSpaceOnUse" x="10" y="8" width="59" height="87">
<rect x="10" y="8" width="59" height="87" rx="4" fill="url(#paint2_linear_1_197)"/>
</mask>
<g mask="url(#mask0_1_197)">
<path fill-rule="evenodd" clip-rule="evenodd" d="M57.9966 46L68.6639 56.6673L57.9966 67.3347L47.3292 56.6673L57.9966 46ZM57.9966 52.2465L62.4176 56.6676L57.9966 61.0887L53.5755 56.6676L57.9966 52.2465ZM44.6673 59.3344L55.3347 70.0017L44.6673 80.669L34 70.0017L44.6673 59.3344ZM44.6673 65.5821L49.087 70.0018L44.6673 74.4215L40.2476 70.0018L44.6673 65.5821ZM57.9986 78.0018L65.9991 86.0023L65.9901 86.0113H50.0071L49.9981 86.0023L57.9986 78.0018ZM71.3325 59.3344L81.9998 70.0017L71.3325 80.669L60.6651 70.0017L71.3325 59.3344ZM71.3325 65.8472L75.487 70.0017L71.3325 74.1562L67.1779 70.0017L71.3325 65.8472Z" fill="#40314C"/>
</g>
</g>
<path d="M9.97086 24C9.84286 24 9.72286 23.952 9.61086 23.856C9.51486 23.76 9.46686 23.64 9.46686 23.496C9.46686 23.432 9.48286 23.36 9.51486 23.28L15.2989 7.8C15.3469 7.64 15.4349 7.504 15.5629 7.392C15.7069 7.264 15.8989 7.2 16.1389 7.2H18.7549C18.9949 7.2 19.1789 7.264 19.3069 7.392C19.4349 7.504 19.5309 7.64 19.5949 7.8L25.3789 23.28C25.3949 23.36 25.4029 23.432 25.4029 23.496C25.4029 23.64 25.3549 23.76 25.2589 23.856C25.1629 23.952 25.0509 24 24.9229 24H22.8349C22.6109 24 22.4429 23.952 22.3309 23.856C22.2349 23.744 22.1709 23.64 22.1389 23.544L21.0109 20.616H13.8829L12.7549 23.544C12.7229 23.64 12.6509 23.744 12.5389 23.856C12.4429 23.952 12.2829 24 12.0589 24H9.97086ZM14.7229 17.856H20.1709L17.4349 10.44L14.7229 17.856Z" fill="#40314C"/>
<path fill-rule="evenodd" clip-rule="evenodd" d="M16.93 28L20.2546 31.3246L16.93 34.6491L13.6054 31.3246L16.93 28ZM16.93 29.9468L18.3079 31.3246L16.93 32.7025L15.5521 31.3246L16.93 29.9468ZM12.7757 32.1557L16.1003 35.4803L12.7757 38.8049L9.45117 35.4803L12.7757 32.1557ZM12.7757 34.1029L14.1532 35.4803L12.7757 36.8578L11.3983 35.4803L12.7757 34.1029ZM16.9307 37.9736L19.4242 40.467L19.4214 40.4698H14.4401L14.4373 40.467L16.9307 37.9736ZM21.0862 32.1557L24.4108 35.4803L21.0862 38.8049L17.7617 35.4803L21.0862 32.1557ZM21.0862 34.1855L22.381 35.4803L21.0862 36.7751L19.7914 35.4803L21.0862 34.1855Z" fill="#40314C"/>
</g>
<defs>
<filter id="filter0_d_1_197" x="0.951172" y="2" width="76" height="105" filterUnits="userSpaceOnUse" color-interpolation-filters="sRGB">
<feFlood flood-opacity="0" result="BackgroundImageFix"/>
<feColorMatrix in="SourceAlpha" type="matrix" values="0 0 0 0 0 0 0 0 0 0 0 0 0 0 0 0 0 0 127 0" result="hardAlpha"/>
<feOffset dy="4"/>
<feGaussianBlur stdDeviation="2"/>
<feComposite in2="hardAlpha" operator="out"/>
<feColorMatrix type="matrix" values="0 0 0 0 0 0 0 0 0 0 0 0 0 0 0 0 0 0 0.25 0"/>
<feBlend mode="normal" in2="BackgroundImageFix" result="effect1_dropShadow_1_197"/>
<feBlend mode="normal" in="SourceGraphic" in2="effect1_dropShadow_1_197" result="shape"/>
</filter>
<filter id="filter1_d_1_197" x="0.951172" y="0" width="76" height="104" filterUnits="userSpaceOnUse" color-interpolation-filters="sRGB">
<feFlood flood-opacity="0" result="BackgroundImageFix"/>
<feColorMatrix in="SourceAlpha" type="matrix" values="0 0 0 0 0 0 0 0 0 0 0 0 0 0 0 0 0 0 127 0" result="hardAlpha"/>
<feOffset dy="1"/>
<feGaussianBlur stdDeviation="2"/>
<feComposite in2="hardAlpha" operator="out"/>
<feColorMatrix type="matrix" values="0 0 0 0 0 0 0 0 0 0 0 0 0 0 0 0 0 0 0.36 0"/>
<feBlend mode="normal" in2="BackgroundImageFix" result="effect1_dropShadow_1_197"/>
<feBlend mode="normal" in="SourceGraphic" in2="effect1_dropShadow_1_197" result="shape"/>
</filter>
<linearGradient id="paint0_linear_1_197" x1="4.95117" y1="3" x2="72.9512" y2="99" gradientUnits="userSpaceOnUse">
<stop stop-color="#D9D9D9"/>
<stop offset="1" stop-color="white"/>
</linearGradient>
<radialGradient id="paint1_angular_1_197" cx="0" cy="0" r="1" gradientUnits="userSpaceOnUse" gradientTransform="translate(43 51) rotate(-168.056) scale(26.5754 26.5754)">
<stop stop-color="#40314C"/>
<stop offset="1" stop-color="#40314C" stop-opacity="0"/>
</radialGradient>
<linearGradient id="paint2_linear_1_197" x1="10" y1="8" x2="72.4683" y2="92.434" gradientUnits="userSpaceOnUse">
<stop stop-color="#D9D9D9"/>
<stop offset="1" stop-color="white" stop-opacity="0"/>
</linearGradient>
</defs>
</svg>