<svg fill="none" xmlns="http://www.w3.org/2000/svg" viewBox="4.39 3 68 96"> <g filter="url(#filter0_d_1_102)"> <g filter="url(#filter1_d_1_102)"> <rect x="4.39062" y="3" width="68" height="96" rx="5" fill="url(#paint0_linear_1_102)"></rect> </g> <g opacity="0.48"> <mask id="mask0_1_102" style="mask-type:alpha" maskUnits="userSpaceOnUse" x="9" y="8" width="60" height="87"> <rect x="9.39062" y="8" width="59" height="87" rx="4" fill="url(#paint1_linear_1_102)"></rect> </mask> <g mask="url(#mask0_1_102)"> <path fill-rule="evenodd" clip-rule="evenodd" d="M57.3917 45L68.5034 56.1116L57.3917 67.2233L46.2801 56.1116L57.3917 45ZM57.3917 51.1156L62.3879 56.1117L57.3917 61.1079L52.3956 56.1117L57.3917 51.1156ZM43.5023 58.8897L54.6139 70.0013L43.5023 81.113L32.3906 70.0013L43.5023 58.8897ZM43.5023 64.9976L48.5059 70.0012L43.5023 75.0049L38.4986 70.0012L43.5023 64.9976ZM68.5034 83.8908L57.3917 72.7792L46.2801 83.8908L57.3917 95.0025L68.5034 83.8908ZM62.4239 83.8908L57.3917 78.8586L52.3595 83.8908L57.3917 88.923L62.4239 83.8908ZM71.2778 58.8896L82.3895 70.0013L71.2778 81.1129L60.1662 70.0013L71.2778 58.8896ZM71.2778 64.9971L76.2819 70.0012L71.2778 75.0054L66.2737 70.0012L71.2778 64.9971Z" fill="#F96262"></path> </g> </g> <path d="M11.7956 22C11.6636 22 11.5556 21.958 11.4716 21.874C11.3996 21.79 11.3636 21.688 11.3636 21.568V12.244L8.62757 14.35C8.51957 14.422 8.41157 14.452 8.30357 14.44C8.19557 14.416 8.09957 14.35 8.01557 14.242L7.25957 13.27C7.18757 13.162 7.15757 13.048 7.16957 12.928C7.19357 12.808 7.25957 12.712 7.36757 12.64L11.3996 9.526C11.4716 9.466 11.5436 9.43 11.6156 9.418C11.6876 9.406 11.7656 9.4 11.8496 9.4H13.4336C13.5536 9.4 13.6556 9.442 13.7396 9.526C13.8236 9.61 13.8656 9.712 13.8656 9.832V21.568C13.8656 21.688 13.8236 21.79 13.7396 21.874C13.6556 21.958 13.5536 22 13.4336 22H11.7956ZM21.0456 22.18C20.1936 22.18 19.4676 22.054 18.8676 21.802C18.2676 21.55 17.7756 21.202 17.3916 20.758C17.0076 20.314 16.7196 19.804 16.5276 19.228C16.3356 18.64 16.2216 18.016 16.1856 17.356C16.1736 17.032 16.1616 16.678 16.1496 16.294C16.1496 15.898 16.1496 15.502 16.1496 15.106C16.1616 14.71 16.1736 14.344 16.1856 14.008C16.2096 13.348 16.3236 12.73 16.5276 12.154C16.7316 11.566 17.0256 11.056 17.4096 10.624C17.8056 10.192 18.3036 9.85 18.9036 9.598C19.5036 9.346 20.2176 9.22 21.0456 9.22C21.8856 9.22 22.6056 9.346 23.2056 9.598C23.8056 9.85 24.2976 10.192 24.6816 10.624C25.0776 11.056 25.3716 11.566 25.5636 12.154C25.7676 12.73 25.8816 13.348 25.9056 14.008C25.9296 14.344 25.9416 14.71 25.9416 15.106C25.9416 15.502 25.9416 15.898 25.9416 16.294C25.9416 16.678 25.9296 17.032 25.9056 17.356C25.8816 18.016 25.7736 18.64 25.5816 19.228C25.3896 19.804 25.1016 20.314 24.7176 20.758C24.3336 21.202 23.8356 21.55 23.2236 21.802C22.6236 22.054 21.8976 22.18 21.0456 22.18ZM21.0456 20.11C21.8256 20.11 22.3956 19.858 22.7556 19.354C23.1276 18.838 23.3196 18.142 23.3316 17.266C23.3556 16.918 23.3676 16.57 23.3676 16.222C23.3676 15.862 23.3676 15.502 23.3676 15.142C23.3676 14.782 23.3556 14.44 23.3316 14.116C23.3196 13.264 23.1276 12.58 22.7556 12.064C22.3956 11.536 21.8256 11.272 21.0456 11.272C20.2776 11.272 19.7076 11.536 19.3356 12.064C18.9756 12.58 18.7836 13.264 18.7596 14.116C18.7596 14.44 18.7536 14.782 18.7416 15.142C18.7416 15.502 18.7416 15.862 18.7416 16.222C18.7536 16.57 18.7596 16.918 18.7596 17.266C18.7836 18.142 18.9816 18.838 19.3536 19.354C19.7256 19.858 20.2896 20.11 21.0456 20.11Z" fill="#F96262"></path> <path fill-rule="evenodd" clip-rule="evenodd" d="M16.4395 28L19.5506 31.1111L16.4395 34.2223L13.3283 31.1111L16.4395 28ZM16.4397 29.7123L17.8385 31.1111L16.4397 32.51L15.0408 31.1111L16.4397 29.7123ZM12.5508 31.8889L15.6619 35L12.5508 38.1112L9.43965 35L12.5508 31.8889ZM12.551 33.5991L13.9519 35L12.551 36.401L11.15 35L12.551 33.5991ZM19.5506 38.889L16.4395 35.7778L13.3283 38.889L16.4395 42.0001L19.5506 38.889ZM17.8486 38.889L16.4397 37.48L15.0307 38.889L16.4397 40.2979L17.8486 38.889ZM20.3281 31.8889L23.4393 35L20.3281 38.1112L17.217 35L20.3281 31.8889ZM20.3283 33.5989L21.7294 35L20.3283 36.4011L18.9272 35L20.3283 33.5989Z" fill="#F96262"></path> </g> <defs> <filter id="filter0_d_1_102" x="0.390625" y="2" width="76" height="105" filterUnits="userSpaceOnUse" color-interpolation-filters="sRGB"> <feFlood flood-opacity="0" result="BackgroundImageFix"></feFlood> <feColorMatrix in="SourceAlpha" type="matrix" values="0 0 0 0 0 0 0 0 0 0 0 0 0 0 0 0 0 0 127 0" result="hardAlpha"></feColorMatrix> <feOffset dy="4"></feOffset> <feGaussianBlur stdDeviation="2"></feGaussianBlur> <feComposite in2="hardAlpha" operator="out"></feComposite> <feColorMatrix type="matrix" values="0 0 0 0 0 0 0 0 0 0 0 0 0 0 0 0 0 0 0.25 0"></feColorMatrix> <feBlend mode="normal" in2="BackgroundImageFix" result="effect1_dropShadow_1_102"></feBlend> <feBlend mode="normal" in="SourceGraphic" in2="effect1_dropShadow_1_102" result="shape"></feBlend> </filter> <filter id="filter1_d_1_102" x="0.390625" y="0" width="76" height="104" filterUnits="userSpaceOnUse" color-interpolation-filters="sRGB"> <feFlood flood-opacity="0" result="BackgroundImageFix"></feFlood> <feColorMatrix in="SourceAlpha" type="matrix" values="0 0 0 0 0 0 0 0 0 0 0 0 0 0 0 0 0 0 127 0" result="hardAlpha"></feColorMatrix> <feOffset dy="1"></feOffset> <feGaussianBlur stdDeviation="2"></feGaussianBlur> <feComposite in2="hardAlpha" operator="out"></feComposite> <feColorMatrix type="matrix" values="0 0 0 0 0 0 0 0 0 0 0 0 0 0 0 0 0 0 0.36 0"></feColorMatrix> <feBlend mode="normal" in2="BackgroundImageFix" result="effect1_dropShadow_1_102"></feBlend> <feBlend mode="normal" in="SourceGraphic" in2="effect1_dropShadow_1_102" result="shape"></feBlend> </filter> <linearGradient id="paint0_linear_1_102" x1="4.39062" y1="3" x2="72.3906" y2="99" gradientUnits="userSpaceOnUse"> <stop stop-color="#D9D9D9"></stop> <stop offset="1" stop-color="white"></stop> </linearGradient> <linearGradient id="paint1_linear_1_102" x1="9.39062" y1="8" x2="71.8589" y2="92.434" gradientUnits="userSpaceOnUse"> <stop stop-color="#D9D9D9"></stop> <stop offset="1" stop-color="white" stop-opacity="0"></stop> </linearGradient> </defs> </svg>