<svg xmlns="http://www.w3.org/2000/svg" fill="none" viewBox="4.1 3 68 96">
<g filter="url(#filter0_d_1_96)">
<g filter="url(#filter1_d_1_96)">
<rect x="4.09766" y="3" width="68" height="96" rx="5" fill="url(#paint0_linear_1_96)"/>
</g>
<path fill-rule="evenodd" clip-rule="evenodd" d="M15.6465 46V91C15.6465 93.4853 17.6612 95.5 20.1465 95.5H64.1465C66.6318 95.5 68.6465 93.4853 68.6465 91V11C68.6465 8.51472 66.6318 6.5 64.1465 6.5H28.1155C28.136 6.6638 28.1465 6.83067 28.1465 7V7.5H64.1465C66.0795 7.5 67.6465 9.067 67.6465 11V91C67.6465 92.933 66.0795 94.5 64.1465 94.5H20.1465C18.2135 94.5 16.6465 92.933 16.6465 91V46H15.6465Z" fill="url(#paint1_angular_1_96)"/>
<g opacity="0.48">
<mask id="mask0_1_96" style="mask-type:alpha" maskUnits="userSpaceOnUse" x="9" y="8" width="60" height="87">
<rect x="9.14648" y="8" width="59" height="87" rx="4" fill="url(#paint2_linear_1_96)"/>
</mask>
<g mask="url(#mask0_1_96)">
<path fill-rule="evenodd" clip-rule="evenodd" d="M57.1476 45L68.2592 56.1116L57.1476 67.2233L46.0359 56.1116L57.1476 45ZM57.1476 51.1156L62.1437 56.1117L57.1476 61.1079L52.1514 56.1117L57.1476 51.1156ZM43.2581 58.8897L54.3698 70.0013L43.2581 81.113L32.1465 70.0013L43.2581 58.8897ZM43.2581 64.9976L48.2618 70.0012L43.2581 75.0049L38.2545 70.0012L43.2581 64.9976ZM68.2592 83.8908L57.1476 72.7792L46.0359 83.8908L57.1476 95.0025L68.2592 83.8908ZM62.1798 83.8908L57.1476 78.8586L52.1154 83.8908L57.1476 88.923L62.1798 83.8908ZM71.0337 58.8896L82.1453 70.0013L71.0337 81.1129L59.922 70.0013L71.0337 58.8896ZM71.0337 64.9971L76.0378 70.0012L71.0337 75.0054L66.0295 70.0012L71.0337 64.9971Z" fill="#CD4747"/>
</g>
</g>
<path d="M17.7495 24C17.5895 24 17.4535 23.944 17.3415 23.832C17.2295 23.72 17.1735 23.584 17.1735 23.424V20.352H9.56553C9.38953 20.352 9.24553 20.296 9.13353 20.184C9.03753 20.072 8.98953 19.936 8.98953 19.776V18.144C8.98953 18.048 9.00553 17.936 9.03753 17.808C9.08553 17.664 9.15753 17.536 9.25353 17.424L16.3335 7.608C16.5415 7.336 16.8375 7.2 17.2215 7.2H19.8375C19.9975 7.2 20.1335 7.256 20.2455 7.368C20.3575 7.48 20.4135 7.616 20.4135 7.776V17.52H22.5495C22.7415 17.52 22.8855 17.576 22.9815 17.688C23.0935 17.784 23.1495 17.92 23.1495 18.096V19.776C23.1495 19.936 23.0935 20.072 22.9815 20.184C22.8695 20.296 22.7335 20.352 22.5735 20.352H20.4135V23.424C20.4135 23.584 20.3575 23.72 20.2455 23.832C20.1335 23.944 19.9975 24 19.8375 24H17.7495ZM12.3255 17.616H17.2455V10.68L12.3255 17.616Z" fill="#CD4747"/>
<path fill-rule="evenodd" clip-rule="evenodd" d="M16.1463 28L19.2574 31.1111L16.1463 34.2223L13.0352 31.1111L16.1463 28ZM16.1465 29.7123L17.5453 31.1111L16.1465 32.51L14.7476 31.1111L16.1465 29.7123ZM12.2576 31.8889L15.3687 35L12.2576 38.1112L9.14648 35L12.2576 31.8889ZM12.2578 33.5991L13.6588 35L12.2578 36.401L10.8569 35L12.2578 33.5991ZM19.2574 38.889L16.1463 35.7778L13.0352 38.889L16.1463 42.0001L19.2574 38.889ZM17.5554 38.889L16.1465 37.48L14.7375 38.889L16.1465 40.2979L17.5554 38.889ZM20.035 31.8889L23.1461 35L20.035 38.1112L16.9238 35L20.035 31.8889ZM20.0352 33.5989L21.4363 35L20.0352 36.4011L18.6341 35L20.0352 33.5989Z" fill="#CD4747"/>
</g>
<defs>
<filter id="filter0_d_1_96" x="0.0976562" y="2" width="76" height="105" filterUnits="userSpaceOnUse" color-interpolation-filters="sRGB">
<feFlood flood-opacity="0" result="BackgroundImageFix"/>
<feColorMatrix in="SourceAlpha" type="matrix" values="0 0 0 0 0 0 0 0 0 0 0 0 0 0 0 0 0 0 127 0" result="hardAlpha"/>
<feOffset dy="4"/>
<feGaussianBlur stdDeviation="2"/>
<feComposite in2="hardAlpha" operator="out"/>
<feColorMatrix type="matrix" values="0 0 0 0 0 0 0 0 0 0 0 0 0 0 0 0 0 0 0.25 0"/>
<feBlend mode="normal" in2="BackgroundImageFix" result="effect1_dropShadow_1_96"/>
<feBlend mode="normal" in="SourceGraphic" in2="effect1_dropShadow_1_96" result="shape"/>
</filter>
<filter id="filter1_d_1_96" x="0.0976562" y="0" width="76" height="104" filterUnits="userSpaceOnUse" color-interpolation-filters="sRGB">
<feFlood flood-opacity="0" result="BackgroundImageFix"/>
<feColorMatrix in="SourceAlpha" type="matrix" values="0 0 0 0 0 0 0 0 0 0 0 0 0 0 0 0 0 0 127 0" result="hardAlpha"/>
<feOffset dy="1"/>
<feGaussianBlur stdDeviation="2"/>
<feComposite in2="hardAlpha" operator="out"/>
<feColorMatrix type="matrix" values="0 0 0 0 0 0 0 0 0 0 0 0 0 0 0 0 0 0 0.36 0"/>
<feBlend mode="normal" in2="BackgroundImageFix" result="effect1_dropShadow_1_96"/>
<feBlend mode="normal" in="SourceGraphic" in2="effect1_dropShadow_1_96" result="shape"/>
</filter>
<linearGradient id="paint0_linear_1_96" x1="4.09766" y1="3" x2="72.0977" y2="99" gradientUnits="userSpaceOnUse">
<stop stop-color="#D9D9D9"/>
<stop offset="1" stop-color="white"/>
</linearGradient>
<radialGradient id="paint1_angular_1_96" cx="0" cy="0" r="1" gradientUnits="userSpaceOnUse" gradientTransform="translate(42.1465 51) rotate(-168.056) scale(26.5754 26.5754)">
<stop stop-color="#CD4747"/>
<stop offset="1" stop-color="#CD4747" stop-opacity="0"/>
</radialGradient>
<linearGradient id="paint2_linear_1_96" x1="9.14648" y1="8" x2="71.6148" y2="92.434" gradientUnits="userSpaceOnUse">
<stop stop-color="#D9D9D9"/>
<stop offset="1" stop-color="white" stop-opacity="0"/>
</linearGradient>
</defs>
</svg>