<svg xmlns="http://www.w3.org/2000/svg" fill="none" viewBox="4.24 3 68 96">
<g filter="url(#filter0_d_1_168)">
<g filter="url(#filter1_d_1_168)">
<rect x="4.24414" y="3" width="68" height="96" rx="5" fill="url(#paint0_linear_1_168)"/>
</g>
<path fill-rule="evenodd" clip-rule="evenodd" d="M15.793 46V91C15.793 93.4853 17.8077 95.5 20.293 95.5H64.293C66.7783 95.5 68.793 93.4853 68.793 91V11C68.793 8.51472 66.7783 6.5 64.293 6.5H28.262C28.2824 6.6638 28.293 6.83067 28.293 7V7.5H64.293C66.226 7.5 67.793 9.067 67.793 11V91C67.793 92.933 66.226 94.5 64.293 94.5H20.293C18.36 94.5 16.793 92.933 16.793 91V46H15.793Z" fill="url(#paint1_angular_1_168)"/>
<g opacity="0.48">
<mask id="mask0_1_168" style="mask-type:alpha" maskUnits="userSpaceOnUse" x="9" y="8" width="60" height="87">
<rect x="9.29297" y="8" width="59" height="87" rx="4" fill="url(#paint2_linear_1_168)"/>
</mask>
<g mask="url(#mask0_1_168)">
<path fill-rule="evenodd" clip-rule="evenodd" d="M55.8761 60.2076L44.6686 49L39.7869 53.8817L39.8017 53.8965L30.293 63.4052L43.8968 77.0091L43.8768 77.029L54.7758 87.928L65.6747 77.029L65.6726 77.0269L79.2942 63.4052L70.8722 54.9832L70.8748 54.9806L65.9889 50.0948L55.8761 60.2076Z" fill="#CD4747"/>
</g>
</g>
<path d="M13.2085 24C13.0645 24 12.9445 23.952 12.8485 23.856C12.7525 23.744 12.7045 23.616 12.7045 23.472C12.7045 23.408 12.7205 23.336 12.7525 23.256L18.5365 10.056H11.0005C10.8245 10.056 10.6805 10 10.5685 9.888C10.4725 9.776 10.4245 9.64 10.4245 9.48V7.8C10.4245 7.624 10.4725 7.48 10.5685 7.368C10.6805 7.256 10.8245 7.2 11.0005 7.2H21.5365C21.7125 7.2 21.8485 7.256 21.9445 7.368C22.0565 7.48 22.1125 7.624 22.1125 7.8V9.288C22.1125 9.512 22.0885 9.704 22.0405 9.864C22.0085 10.008 21.9605 10.16 21.8965 10.32L16.1605 23.424C16.1125 23.536 16.0245 23.664 15.8965 23.808C15.7845 23.936 15.6165 24 15.3925 24H13.2085Z" fill="#CD4747"/>
<path fill-rule="evenodd" clip-rule="evenodd" d="M16.6646 33.2295L13.4351 30L12.0286 31.4065L12.0328 31.4107L9.29297 34.1505L13.2132 38.0707L13.2082 38.0758L16.3484 41.216L19.4887 38.0758L19.4875 38.0747L23.4117 34.1505L20.9854 31.7241L20.9863 31.7232L19.5786 30.3154L16.6646 33.2295Z" fill="#CD4747"/>
</g>
<defs>
<filter id="filter0_d_1_168" x="0.244141" y="2" width="76" height="105" filterUnits="userSpaceOnUse" color-interpolation-filters="sRGB">
<feFlood flood-opacity="0" result="BackgroundImageFix"/>
<feColorMatrix in="SourceAlpha" type="matrix" values="0 0 0 0 0 0 0 0 0 0 0 0 0 0 0 0 0 0 127 0" result="hardAlpha"/>
<feOffset dy="4"/>
<feGaussianBlur stdDeviation="2"/>
<feComposite in2="hardAlpha" operator="out"/>
<feColorMatrix type="matrix" values="0 0 0 0 0 0 0 0 0 0 0 0 0 0 0 0 0 0 0.25 0"/>
<feBlend mode="normal" in2="BackgroundImageFix" result="effect1_dropShadow_1_168"/>
<feBlend mode="normal" in="SourceGraphic" in2="effect1_dropShadow_1_168" result="shape"/>
</filter>
<filter id="filter1_d_1_168" x="0.244141" y="0" width="76" height="104" filterUnits="userSpaceOnUse" color-interpolation-filters="sRGB">
<feFlood flood-opacity="0" result="BackgroundImageFix"/>
<feColorMatrix in="SourceAlpha" type="matrix" values="0 0 0 0 0 0 0 0 0 0 0 0 0 0 0 0 0 0 127 0" result="hardAlpha"/>
<feOffset dy="1"/>
<feGaussianBlur stdDeviation="2"/>
<feComposite in2="hardAlpha" operator="out"/>
<feColorMatrix type="matrix" values="0 0 0 0 0 0 0 0 0 0 0 0 0 0 0 0 0 0 0.36 0"/>
<feBlend mode="normal" in2="BackgroundImageFix" result="effect1_dropShadow_1_168"/>
<feBlend mode="normal" in="SourceGraphic" in2="effect1_dropShadow_1_168" result="shape"/>
</filter>
<linearGradient id="paint0_linear_1_168" x1="4.24414" y1="3" x2="72.2441" y2="99" gradientUnits="userSpaceOnUse">
<stop stop-color="#D9D9D9"/>
<stop offset="1" stop-color="white"/>
</linearGradient>
<radialGradient id="paint1_angular_1_168" cx="0" cy="0" r="1" gradientUnits="userSpaceOnUse" gradientTransform="translate(42.293 51) rotate(-168.056) scale(26.5754 26.5754)">
<stop stop-color="#CD4747"/>
<stop offset="1" stop-color="#CD4747" stop-opacity="0"/>
</radialGradient>
<linearGradient id="paint2_linear_1_168" x1="9.29297" y1="8" x2="71.7613" y2="92.434" gradientUnits="userSpaceOnUse">
<stop stop-color="#D9D9D9"/>
<stop offset="1" stop-color="white" stop-opacity="0"/>
</linearGradient>
</defs>
</svg>