<svg xmlns="http://www.w3.org/2000/svg" fill="none" viewBox="4.95 3 68 96">
<g filter="url(#filter0_d_1_140)">
<g filter="url(#filter1_d_1_140)">
<rect x="4.95117" y="3" width="68" height="96" rx="5" fill="url(#paint0_linear_1_140)"/>
</g>
<path fill-rule="evenodd" clip-rule="evenodd" d="M16.5 46V91C16.5 93.4853 18.5147 95.5 21 95.5H65C67.4853 95.5 69.5 93.4853 69.5 91V11C69.5 8.51472 67.4853 6.5 65 6.5H28.9691C28.9895 6.6638 29 6.83067 29 7V7.5H65C66.933 7.5 68.5 9.067 68.5 11V91C68.5 92.933 66.933 94.5 65 94.5H21C19.067 94.5 17.5 92.933 17.5 91V46H16.5Z" fill="url(#paint1_angular_1_140)"/>
<g opacity="0.48">
<mask id="mask0_1_140" style="mask-type:alpha" maskUnits="userSpaceOnUse" x="10" y="8" width="59" height="87">
<rect x="10" y="8" width="59" height="87" rx="4" fill="url(#paint2_linear_1_140)"/>
</mask>
<g mask="url(#mask0_1_140)">
<path fill-rule="evenodd" clip-rule="evenodd" d="M56.5832 60.2076L45.3756 49L40.4939 53.8817L40.5087 53.8965L31 63.4052L44.6038 77.0091L44.5839 77.029L55.4828 87.928L66.3818 77.029L66.3796 77.0269L80.0013 63.4052L71.5792 54.9832L71.5818 54.9806L66.6959 50.0948L56.5832 60.2076Z" fill="#CD4747"/>
</g>
</g>
<path d="M9.97086 24C9.84286 24 9.72286 23.952 9.61086 23.856C9.51486 23.76 9.46686 23.64 9.46686 23.496C9.46686 23.432 9.48286 23.36 9.51486 23.28L15.2989 7.8C15.3469 7.64 15.4349 7.504 15.5629 7.392C15.7069 7.264 15.8989 7.2 16.1389 7.2H18.7549C18.9949 7.2 19.1789 7.264 19.3069 7.392C19.4349 7.504 19.5309 7.64 19.5949 7.8L25.3789 23.28C25.3949 23.36 25.4029 23.432 25.4029 23.496C25.4029 23.64 25.3549 23.76 25.2589 23.856C25.1629 23.952 25.0509 24 24.9229 24H22.8349C22.6109 24 22.4429 23.952 22.3309 23.856C22.2349 23.744 22.1709 23.64 22.1389 23.544L21.0109 20.616H13.8829L12.7549 23.544C12.7229 23.64 12.6509 23.744 12.5389 23.856C12.4429 23.952 12.2829 24 12.0589 24H9.97086ZM14.7229 17.856H20.1709L17.4349 10.44L14.7229 17.856Z" fill="#CD4747"/>
<path fill-rule="evenodd" clip-rule="evenodd" d="M17.3716 33.2295L14.1421 30L12.7356 31.4065L12.7398 31.4107L10 34.1505L13.9203 38.0707L13.9152 38.0758L17.0555 41.216L20.1957 38.0758L20.1946 38.0747L24.1187 34.1505L21.6924 31.7241L21.6934 31.7232L20.2856 30.3154L17.3716 33.2295Z" fill="#CD4747"/>
</g>
<defs>
<filter id="filter0_d_1_140" x="0.951172" y="2" width="76" height="105" filterUnits="userSpaceOnUse" color-interpolation-filters="sRGB">
<feFlood flood-opacity="0" result="BackgroundImageFix"/>
<feColorMatrix in="SourceAlpha" type="matrix" values="0 0 0 0 0 0 0 0 0 0 0 0 0 0 0 0 0 0 127 0" result="hardAlpha"/>
<feOffset dy="4"/>
<feGaussianBlur stdDeviation="2"/>
<feComposite in2="hardAlpha" operator="out"/>
<feColorMatrix type="matrix" values="0 0 0 0 0 0 0 0 0 0 0 0 0 0 0 0 0 0 0.25 0"/>
<feBlend mode="normal" in2="BackgroundImageFix" result="effect1_dropShadow_1_140"/>
<feBlend mode="normal" in="SourceGraphic" in2="effect1_dropShadow_1_140" result="shape"/>
</filter>
<filter id="filter1_d_1_140" x="0.951172" y="0" width="76" height="104" filterUnits="userSpaceOnUse" color-interpolation-filters="sRGB">
<feFlood flood-opacity="0" result="BackgroundImageFix"/>
<feColorMatrix in="SourceAlpha" type="matrix" values="0 0 0 0 0 0 0 0 0 0 0 0 0 0 0 0 0 0 127 0" result="hardAlpha"/>
<feOffset dy="1"/>
<feGaussianBlur stdDeviation="2"/>
<feComposite in2="hardAlpha" operator="out"/>
<feColorMatrix type="matrix" values="0 0 0 0 0 0 0 0 0 0 0 0 0 0 0 0 0 0 0.36 0"/>
<feBlend mode="normal" in2="BackgroundImageFix" result="effect1_dropShadow_1_140"/>
<feBlend mode="normal" in="SourceGraphic" in2="effect1_dropShadow_1_140" result="shape"/>
</filter>
<linearGradient id="paint0_linear_1_140" x1="4.95117" y1="3" x2="72.9512" y2="99" gradientUnits="userSpaceOnUse">
<stop stop-color="#D9D9D9"/>
<stop offset="1" stop-color="white"/>
</linearGradient>
<radialGradient id="paint1_angular_1_140" cx="0" cy="0" r="1" gradientUnits="userSpaceOnUse" gradientTransform="translate(43 51) rotate(-168.056) scale(26.5754 26.5754)">
<stop stop-color="#CD4747"/>
<stop offset="1" stop-color="#CD4747" stop-opacity="0"/>
</radialGradient>
<linearGradient id="paint2_linear_1_140" x1="10" y1="8" x2="72.4683" y2="92.434" gradientUnits="userSpaceOnUse">
<stop stop-color="#D9D9D9"/>
<stop offset="1" stop-color="white" stop-opacity="0"/>
</linearGradient>
</defs>
</svg>