<svg xmlns="http://www.w3.org/2000/svg" fill="none" viewBox="4 3 68 96">
<g filter="url(#filter0_d_1_25)">
<g filter="url(#filter1_d_1_25)">
<rect x="4" y="3" width="68" height="96" rx="5" fill="url(#paint0_linear_1_25)"/>
</g>
<g opacity="0.48">
<mask id="mask0_1_25" style="mask-type:alpha" maskUnits="userSpaceOnUse" x="9" y="8" width="60" height="87">
<rect x="9.04883" y="8" width="59" height="87" rx="4" fill="url(#paint1_linear_1_25)"/>
</mask>
<g mask="url(#mask0_1_25)">
<path fill-rule="evenodd" clip-rule="evenodd" d="M66.6745 53.4082L57.2664 44L42.7012 58.5652L42.7002 58.5641L31.0488 70.2155L42.7002 81.8668L51.3371 73.23L51.3381 73.231L57.2675 67.3016L71.8328 81.8669L83.4842 70.2155L66.6757 53.407L66.6745 53.4082ZM57.2593 78.9539L65.9978 87.6925L65.988 87.7023H48.5306L48.5208 87.6925L57.2593 78.9539Z" fill="#40314C"/>
</g>
</g>
<path fill-rule="evenodd" clip-rule="evenodd" d="M15.5488 46V91C15.5488 93.4853 17.5635 95.5 20.0488 95.5H64.0488C66.5341 95.5 68.5488 93.4853 68.5488 91V11C68.5488 8.51472 66.5341 6.5 64.0488 6.5H28.0179C28.0383 6.6638 28.0488 6.83067 28.0488 7V7.5H64.0488C65.9818 7.5 67.5488 9.067 67.5488 11V91C67.5488 92.933 65.9818 94.5 64.0488 94.5H20.0488C18.1158 94.5 16.5488 92.933 16.5488 91V46H15.5488Z" fill="url(#paint2_angular_1_25)"/>
<path d="M10.7263 24C10.5663 24 10.4303 23.944 10.3183 23.832C10.2063 23.72 10.1503 23.584 10.1503 23.424V22.2C10.1503 22.056 10.1823 21.888 10.2463 21.696C10.3263 21.488 10.4943 21.28 10.7503 21.072L14.5423 17.304C15.5983 16.472 16.4463 15.768 17.0863 15.192C17.7423 14.6 18.2143 14.064 18.5023 13.584C18.8063 13.088 18.9583 12.6 18.9583 12.12C18.9583 11.4 18.7583 10.816 18.3583 10.368C17.9743 9.92 17.3583 9.696 16.5103 9.696C15.9503 9.696 15.4783 9.816 15.0943 10.056C14.7103 10.28 14.4063 10.584 14.1823 10.968C13.9743 11.352 13.8303 11.776 13.7503 12.24C13.7183 12.448 13.6303 12.592 13.4863 12.672C13.3423 12.752 13.1983 12.792 13.0543 12.792H10.9183C10.7743 12.792 10.6543 12.744 10.5583 12.648C10.4623 12.552 10.4143 12.44 10.4143 12.312C10.4303 11.624 10.5743 10.96 10.8463 10.32C11.1183 9.664 11.5103 9.088 12.0223 8.592C12.5503 8.08 13.1903 7.672 13.9423 7.368C14.6943 7.064 15.5423 6.912 16.4863 6.912C17.8143 6.912 18.9103 7.136 19.7743 7.584C20.6543 8.032 21.3103 8.64 21.7423 9.408C22.1903 10.176 22.4143 11.04 22.4143 12C22.4143 12.752 22.2703 13.448 21.9823 14.088C21.6943 14.712 21.2783 15.32 20.7343 15.912C20.1903 16.488 19.5343 17.08 18.7663 17.688L15.3583 21.144H22.1983C22.3743 21.144 22.5103 21.2 22.6063 21.312C22.7183 21.408 22.7743 21.544 22.7743 21.72V23.424C22.7743 23.584 22.7183 23.72 22.6063 23.832C22.5103 23.944 22.3743 24 22.1983 24H10.7263Z" fill="#40314C"/>
<path fill-rule="evenodd" clip-rule="evenodd" d="M19.1492 31.9205L16.0293 28.8006L12.1294 32.7005L12.1293 32.7005L9.00946 35.8204L12.1293 38.9403L14.4418 36.6278L14.4419 36.6278L16.0291 35.0406L19.9288 38.9403L23.0487 35.8204L19.149 31.9207L19.1492 31.9205ZM16.0275 38.1602L18.3674 40.5002L18.3648 40.5028H13.6902L13.6876 40.5002L16.0275 38.1602Z" fill="#40314C"/>
</g>
<defs>
<filter id="filter0_d_1_25" x="0" y="2" width="76" height="105" filterUnits="userSpaceOnUse" color-interpolation-filters="sRGB">
<feFlood flood-opacity="0" result="BackgroundImageFix"/>
<feColorMatrix in="SourceAlpha" type="matrix" values="0 0 0 0 0 0 0 0 0 0 0 0 0 0 0 0 0 0 127 0" result="hardAlpha"/>
<feOffset dy="4"/>
<feGaussianBlur stdDeviation="2"/>
<feComposite in2="hardAlpha" operator="out"/>
<feColorMatrix type="matrix" values="0 0 0 0 0 0 0 0 0 0 0 0 0 0 0 0 0 0 0.25 0"/>
<feBlend mode="normal" in2="BackgroundImageFix" result="effect1_dropShadow_1_25"/>
<feBlend mode="normal" in="SourceGraphic" in2="effect1_dropShadow_1_25" result="shape"/>
</filter>
<filter id="filter1_d_1_25" x="0" y="0" width="76" height="104" filterUnits="userSpaceOnUse" color-interpolation-filters="sRGB">
<feFlood flood-opacity="0" result="BackgroundImageFix"/>
<feColorMatrix in="SourceAlpha" type="matrix" values="0 0 0 0 0 0 0 0 0 0 0 0 0 0 0 0 0 0 127 0" result="hardAlpha"/>
<feOffset dy="1"/>
<feGaussianBlur stdDeviation="2"/>
<feComposite in2="hardAlpha" operator="out"/>
<feColorMatrix type="matrix" values="0 0 0 0 0 0 0 0 0 0 0 0 0 0 0 0 0 0 0.36 0"/>
<feBlend mode="normal" in2="BackgroundImageFix" result="effect1_dropShadow_1_25"/>
<feBlend mode="normal" in="SourceGraphic" in2="effect1_dropShadow_1_25" result="shape"/>
</filter>
<linearGradient id="paint0_linear_1_25" x1="4" y1="3" x2="72" y2="99" gradientUnits="userSpaceOnUse">
<stop stop-color="#D9D9D9"/>
<stop offset="1" stop-color="white"/>
</linearGradient>
<linearGradient id="paint1_linear_1_25" x1="9.04883" y1="8" x2="71.5171" y2="92.434" gradientUnits="userSpaceOnUse">
<stop stop-color="#D9D9D9"/>
<stop offset="1" stop-color="white" stop-opacity="0"/>
</linearGradient>
<radialGradient id="paint2_angular_1_25" cx="0" cy="0" r="1" gradientUnits="userSpaceOnUse" gradientTransform="translate(42.0488 51) rotate(-168.056) scale(26.5754 26.5754)">
<stop stop-color="#40314C"/>
<stop offset="1" stop-color="#40314C" stop-opacity="0"/>
</radialGradient>
</defs>
</svg>