<svg xmlns="http://www.w3.org/2000/svg" fill="none" viewBox="4.24 3 68 96">
<g filter="url(#filter0_d_1_30)">
<g filter="url(#filter1_d_1_30)">
<rect x="4.24414" y="3" width="68" height="96" rx="5" fill="url(#paint0_linear_1_30)"/>
</g>
<g opacity="0.48">
<mask id="mask0_1_30" style="mask-type:alpha" maskUnits="userSpaceOnUse" x="9" y="8" width="60" height="87">
<rect x="9.29297" y="8" width="59" height="87" rx="4" fill="url(#paint1_linear_1_30)"/>
</mask>
<g mask="url(#mask0_1_30)">
<path fill-rule="evenodd" clip-rule="evenodd" d="M66.9187 53.4082L57.5105 44L42.9453 58.5652L42.9443 58.5641L31.293 70.2155L42.9443 81.8668L51.5812 73.23L51.5822 73.231L57.5117 67.3016L72.077 81.8669L83.7283 70.2155L66.9198 53.407L66.9187 53.4082ZM57.5035 78.9539L66.242 87.6925L66.2322 87.7023H48.7748L48.765 87.6925L57.5035 78.9539Z" fill="#40314C"/>
</g>
</g>
<path fill-rule="evenodd" clip-rule="evenodd" d="M15.793 46V91C15.793 93.4853 17.8077 95.5 20.293 95.5H64.293C66.7783 95.5 68.793 93.4853 68.793 91V11C68.793 8.51472 66.7783 6.5 64.293 6.5H28.262C28.2824 6.6638 28.293 6.83067 28.293 7V7.5H64.293C66.226 7.5 67.793 9.067 67.793 11V91C67.793 92.933 66.226 94.5 64.293 94.5H20.293C18.36 94.5 16.793 92.933 16.793 91V46H15.793Z" fill="url(#paint2_angular_1_30)"/>
<path d="M13.2085 24C13.0645 24 12.9445 23.952 12.8485 23.856C12.7525 23.744 12.7045 23.616 12.7045 23.472C12.7045 23.408 12.7205 23.336 12.7525 23.256L18.5365 10.056H11.0005C10.8245 10.056 10.6805 10 10.5685 9.888C10.4725 9.776 10.4245 9.64 10.4245 9.48V7.8C10.4245 7.624 10.4725 7.48 10.5685 7.368C10.6805 7.256 10.8245 7.2 11.0005 7.2H21.5365C21.7125 7.2 21.8485 7.256 21.9445 7.368C22.0565 7.48 22.1125 7.624 22.1125 7.8V9.288C22.1125 9.512 22.0885 9.704 22.0405 9.864C22.0085 10.008 21.9605 10.16 21.8965 10.32L16.1605 23.424C16.1125 23.536 16.0245 23.664 15.8965 23.808C15.7845 23.936 15.6165 24 15.3925 24H13.2085Z" fill="#40314C"/>
<path fill-rule="evenodd" clip-rule="evenodd" d="M19.3933 31.9205L16.2734 28.8006L12.3735 32.7005L12.3735 32.7005L9.2536 35.8204L12.3735 38.9403L14.686 36.6278L14.686 36.6278L16.2733 35.0406L20.173 38.9403L23.2929 35.8204L19.3932 31.9207L19.3933 31.9205ZM16.2716 38.1602L18.6116 40.5002L18.609 40.5028H13.9343L13.9317 40.5002L16.2716 38.1602Z" fill="#40314C"/>
</g>
<defs>
<filter id="filter0_d_1_30" x="0.244141" y="2" width="76" height="105" filterUnits="userSpaceOnUse" color-interpolation-filters="sRGB">
<feFlood flood-opacity="0" result="BackgroundImageFix"/>
<feColorMatrix in="SourceAlpha" type="matrix" values="0 0 0 0 0 0 0 0 0 0 0 0 0 0 0 0 0 0 127 0" result="hardAlpha"/>
<feOffset dy="4"/>
<feGaussianBlur stdDeviation="2"/>
<feComposite in2="hardAlpha" operator="out"/>
<feColorMatrix type="matrix" values="0 0 0 0 0 0 0 0 0 0 0 0 0 0 0 0 0 0 0.25 0"/>
<feBlend mode="normal" in2="BackgroundImageFix" result="effect1_dropShadow_1_30"/>
<feBlend mode="normal" in="SourceGraphic" in2="effect1_dropShadow_1_30" result="shape"/>
</filter>
<filter id="filter1_d_1_30" x="0.244141" y="0" width="76" height="104" filterUnits="userSpaceOnUse" color-interpolation-filters="sRGB">
<feFlood flood-opacity="0" result="BackgroundImageFix"/>
<feColorMatrix in="SourceAlpha" type="matrix" values="0 0 0 0 0 0 0 0 0 0 0 0 0 0 0 0 0 0 127 0" result="hardAlpha"/>
<feOffset dy="1"/>
<feGaussianBlur stdDeviation="2"/>
<feComposite in2="hardAlpha" operator="out"/>
<feColorMatrix type="matrix" values="0 0 0 0 0 0 0 0 0 0 0 0 0 0 0 0 0 0 0.36 0"/>
<feBlend mode="normal" in2="BackgroundImageFix" result="effect1_dropShadow_1_30"/>
<feBlend mode="normal" in="SourceGraphic" in2="effect1_dropShadow_1_30" result="shape"/>
</filter>
<linearGradient id="paint0_linear_1_30" x1="4.24414" y1="3" x2="72.2441" y2="99" gradientUnits="userSpaceOnUse">
<stop stop-color="#D9D9D9"/>
<stop offset="1" stop-color="white"/>
</linearGradient>
<linearGradient id="paint1_linear_1_30" x1="9.29297" y1="8" x2="71.7613" y2="92.434" gradientUnits="userSpaceOnUse">
<stop stop-color="#D9D9D9"/>
<stop offset="1" stop-color="white" stop-opacity="0"/>
</linearGradient>
<radialGradient id="paint2_angular_1_30" cx="0" cy="0" r="1" gradientUnits="userSpaceOnUse" gradientTransform="translate(42.293 51) rotate(-168.056) scale(26.5754 26.5754)">
<stop stop-color="#40314C"/>
<stop offset="1" stop-color="#40314C" stop-opacity="0"/>
</radialGradient>
</defs>
</svg>